<svg id="Layer_1" enable-background="new 0 0 66 66" height="512" viewBox="0 0 66 66" width="512" xmlns="http://www.w3.org/2000/svg"><g><path d="m2 12.34v36.23c0 2.21 1.79 4 4 4h54c2.21 0 4-1.79 4-4v-36.23z" fill="#e1d9e1"/><path d="m6 16.34h54v32.23h-54z" fill="#ff7146"/><path d="m28.46 37.28-9.13 15.29h27.33l-9.13-15.29c-.96-1.61-2.66-2.58-4.54-2.58s-3.57.97-4.53 2.58z" opacity=".08"/><path d="m64 5.95c0-2.21-1.79-4-4-4h-54c-2.21 0-4 1.79-4 4v6.39h62z" fill="#1c8fc7"/><g fill="#fff"><circle cx="9.36" cy="7.15" r="1.5"/><circle cx="15.02" cy="7.15" r="1.5"/><circle cx="20.69" cy="7.15" r="1.5"/></g><path d="m48.22 59.07-12.4-20.76c-1.28-2.14-4.37-2.14-5.65 0l-12.39 20.76c-1.31 2.19.27 4.97 2.82 4.97h24.79c2.56.01 4.14-2.77 2.83-4.97z" fill="#ffc040"/><path d="m33 42.14c-1.33 0-2.39 1.12-2.33 2.45l.58 9.23c.05.93.82 1.66 1.75 1.66s1.7-.73 1.75-1.66l.58-9.23c.06-1.33-1-2.45-2.33-2.45z" fill="#0e4b5c"/><path d="m33 57.49c-.92 0-1.66.75-1.66 1.66 0 .92.75 1.66 1.66 1.66.92 0 1.66-.75 1.66-1.66 0-.92-.74-1.66-1.66-1.66z" fill="#0e4b5c"/><g fill="#fff"><path d="m25.63 27.1h-1.94v-7.48c0-.32-.2-.6-.5-.71s-.63-.02-.83.23l-6.81 8.23c-.19.22-.22.53-.1.8.12.26.39.43.68.43h6.06v4.69c0 .41.34.75.75.75s.75-.34.75-.75v-4.69h1.94c.41 0 .75-.34.75-.75s-.34-.75-.75-.75zm-3.44-5.4v5.4h-4.47z"/><path d="m49.87 27.1h-1.94v-7.48c0-.32-.2-.6-.5-.71s-.63-.02-.83.23l-6.81 8.23c-.19.22-.22.53-.1.8.12.26.39.43.68.43h6.06v4.69c0 .41.34.75.75.75s.75-.34.75-.75v-4.69h1.94c.41 0 .75-.34.75-.75s-.34-.75-.75-.75zm-3.44-5.4v5.4h-4.47z"/><path d="m33 18.87c-2.36 0-4.28 1.92-4.28 4.28v6.62c0 2.36 1.92 4.28 4.28 4.28s4.28-1.92 4.28-4.28v-6.62c0-2.36-1.92-4.28-4.28-4.28zm2.78 10.9c0 1.53-1.25 2.78-2.78 2.78s-2.78-1.25-2.78-2.78v-6.62c0-1.53 1.25-2.78 2.78-2.78s2.78 1.25 2.78 2.78z"/></g></g></svg>