<svg
    xmlns="http://www.w3.org/2000/svg"
    viewBox="0 0 682 682"
    id="vector">
    <defs>
        <clipPath id="clip_path">
            <path d="M 0 0 L 682.67 0 L 682.67 682.67 L 0 682.67 Z"/>
        </clipPath>
        <clipPath id="clip_path_1">
            <path d="M 0 0 L 682.67 0 L 682.67 682.67 L 0 682.67 Z"/>
        </clipPath>
        <clipPath id="clip_path_2">
            <path d="M 0 0 L 682.67 0 L 682.67 682.67 L 0 682.67 Z"/>
        </clipPath>
        <clipPath id="clip_path_3">
            <path d="M 0 0 L 682.67 0 L 682.67 682.67 L 0 682.67 Z"/>
        </clipPath>
        <clipPath id="clip_path_4">
            <path d="M 0 0 L 682.67 0 L 682.67 682.67 L 0 682.67 Z"/>
        </clipPath>
        <clipPath id="clip_path_5">
            <path d="M 0 0 L 682.67 0 L 682.67 682.67 L 0 682.67 Z"/>
        </clipPath>
        <clipPath id="clip_path_6">
            <path d="M 0 0 L 682.67 0 L 682.67 682.67 L 0 682.67 Z"/>
        </clipPath>
        <clipPath id="clip_path_7">
            <path d="M 0 0 L 682.67 0 L 682.67 682.67 L 0 682.67 Z"/>
        </clipPath>
        <clipPath id="clip_path_8">
            <path d="M 0 0 L 682.67 0 L 682.67 682.67 L 0 682.67 Z"/>
        </clipPath>
        <clipPath id="clip_path_9">
            <path d="M 0 0 L 682.67 0 L 682.67 682.67 L 0 682.67 Z"/>
        </clipPath>
        <clipPath id="clip_path_10">
            <path d="M 0 0 L 682.67 0 L 682.67 682.67 L 0 682.67 Z"/>
        </clipPath>
        <clipPath id="clip_path_11">
            <path d="M 0 0 L 682.67 0 L 682.67 682.67 L 0 682.67 Z"/>
        </clipPath>
        <clipPath id="clip_path_12">
            <path d="M 0 0 L 682.67 0 L 682.67 682.67 L 0 682.67 Z"/>
        </clipPath>
        <clipPath id="clip_path_13">
            <path d="M 0 0 L 682.67 0 L 682.67 682.67 L 0 682.67 Z"/>
        </clipPath>
        <clipPath id="clip_path_14">
            <path d="M 0 0 L 682.67 0 L 682.67 682.67 L 0 682.67 Z"/>
        </clipPath>
        <clipPath id="clip_path_15">
            <path d="M 0 0 L 682.67 0 L 682.67 682.67 L 0 682.67 Z"/>
        </clipPath>
        <clipPath id="clip_path_16">
            <path d="M 0 0 L 682.67 0 L 682.67 682.67 L 0 682.67 Z"/>
        </clipPath>
        <clipPath id="clip_path_17">
            <path d="M 0 0 L 682.67 0 L 682.67 682.67 L 0 682.67 Z"/>
        </clipPath>
        <clipPath id="clip_path_18">
            <path d="M 0 0 L 682.67 0 L 682.67 682.67 L 0 682.67 Z"/>
        </clipPath>
        <clipPath id="clip_path_19">
            <path d="M 0 0 L 682.67 0 L 682.67 682.67 L 0 682.67 Z"/>
        </clipPath>
        <clipPath id="clip_path_20">
            <path d="M 0 0 L 682.67 0 L 682.67 682.67 L 0 682.67 Z"/>
        </clipPath>
        <clipPath id="clip_path_21">
            <path d="M 0 0 L 682.67 0 L 682.67 682.67 L 0 682.67 Z"/>
        </clipPath>
        <clipPath id="clip_path_22">
            <path d="M 0 0 L 682.67 0 L 682.67 682.67 L 0 682.67 Z"/>
        </clipPath>
        <clipPath id="clip_path_23">
            <path d="M 0 0 L 682.67 0 L 682.67 682.67 L 0 682.67 Z"/>
        </clipPath>
        <clipPath id="clip_path_24">
            <path d="M 0 0 L 682.67 0 L 682.67 682.67 L 0 682.67 Z"/>
        </clipPath>
        <clipPath id="clip_path_25">
            <path d="M 0 0 L 682.67 0 L 682.67 682.67 L 0 682.67 Z"/>
        </clipPath>
        <clipPath id="clip_path_26">
            <path d="M 0 0 L 682.67 0 L 682.67 682.67 L 0 682.67 Z"/>
        </clipPath>
        <clipPath id="clip_path_27">
            <path d="M 0 0 L 682.67 0 L 682.67 682.67 L 0 682.67 Z"/>
        </clipPath>
        <clipPath id="clip_path_28">
            <path d="M 0 0 L 682.67 0 L 682.67 682.67 L 0 682.67 Z"/>
        </clipPath>
        <clipPath id="clip_path_29">
            <path d="M 0 0 L 682.67 0 L 682.67 682.67 L 0 682.67 Z"/>
        </clipPath>
    </defs>
    <g id="group">
        <path
            id="path"
            clip-path="url(#clip_path)"
            d="M 624.64 297.6 L 573.75 297.6 C 568.06 297.6 563.45 292.99 563.45 287.3 C 563.45 281.61 568.06 277 573.75 277 L 624.64 276.99 C 630.33 276.99 634.94 281.6 634.94 287.29 C 634.94 292.98 630.33 297.6 624.64 297.6"
            fill="#1785f8"
            stroke="#00000000"/>
        <path
            id="path_1"
            clip-path="url(#clip_path_1)"
            d="M 108.91 297.6 L 58.02 297.6 C 52.33 297.6 47.72 292.99 47.72 287.3 C 47.72 281.61 52.33 277 58.02 277 L 108.91 276.99 C 114.6 276.99 119.21 281.6 119.21 287.29 C 119.21 292.98 114.6 297.6 108.91 297.6"
            fill="#1785f8"
            stroke="#00000000"/>
        <path
            id="path_2"
            clip-path="url(#clip_path_2)"
            d="M 468.24 161.29 L 214.43 161.29 C 177.79 161.29 144.87 183.7 131.44 217.8 L 102.9 290.27 L 579.77 290.27 L 551.22 217.79 C 537.79 183.7 504.88 161.29 468.24 161.29"
            fill="#31a7fb"
            stroke="#00000000"/>
        <path
            id="path_3"
            clip-path="url(#clip_path_3)"
            d="M 579.76 290.27 L 537.94 290.27 L 509.4 217.79 C 495.97 183.7 463.06 161.28 426.41 161.28 L 468.23 161.28 C 504.88 161.28 537.79 183.7 551.22 217.79 Z"
            fill="#1c96f9"
            stroke="#00000000"/>
        <path
            id="path_4"
            clip-path="url(#clip_path_4)"
            d="M 620.16 297.6 L 674.33 297.6 C 679.89 297.6 683.91 292.25 682.3 286.93 C 678.81 275.39 670.36 258.62 650.75 258.62 L 624.64 258.61 C 618.37 258.61 613.29 263.69 613.29 269.96 L 613.29 290.73 C 613.29 294.52 616.37 297.6 620.16 297.6"
            fill="#31a7fb"
            stroke="#00000000"/>
        <path
            id="path_5"
            clip-path="url(#clip_path_5)"
            d="M 62.5 297.6 L 8.33 297.6 C 2.77 297.6 -1.25 292.25 0.36 286.93 C 3.85 275.39 12.3 258.62 31.91 258.62 L 58.03 258.62 C 64.3 258.62 69.38 263.7 69.38 269.97 L 69.37 290.73 C 69.37 294.52 66.3 297.6 62.5 297.6"
            fill="#31a7fb"
            stroke="#00000000"/>
        <path
            id="path_6"
            clip-path="url(#clip_path_6)"
            d="M 485.31 202.72 L 197.37 202.72 C 161.18 202.72 128.67 224.86 115.41 258.53 L 87.2 330.12 L 595.47 330.12 L 567.27 258.53 C 554.01 224.86 521.5 202.72 485.31 202.72"
            fill="#b5dbfd"
            stroke="#00000000"/>
        <path
            id="path_7"
            clip-path="url(#clip_path_7)"
            d="M 550.48 231.54 C 535.21 250.3 511.92 262.29 485.84 262.29 C 448.07 262.29 416.17 237.17 405.94 202.72 L 485.3 202.72 C 510.61 202.73 534.09 213.53 550.48 231.54"
            fill="#8dcafc"
            stroke="#00000000"/>
        <path
            id="path_8"
            clip-path="url(#clip_path_8)"
            d="M 363.12 202.72 L 318.93 202.72 C 276.18 245.03 233.68 287.6 191.14 330.12 L 235.73 330.12 C 278.19 287.66 320.66 245.19 363.12 202.72"
            fill="#d9ecfd"
            stroke="#00000000"/>
        <path
            id="path_9"
            clip-path="url(#clip_path_9)"
            d="M 292.44 202.72 L 225.46 202.72 L 98.06 330.12 L 165.04 330.12 Z"
            fill="#d9ecfd"
            stroke="#00000000"/>
        <path
            id="path_10"
            clip-path="url(#clip_path_10)"
            d="M 595.46 330.12 L 553.64 330.12 L 525.44 258.53 C 512.17 224.85 479.67 202.72 443.48 202.72 L 485.3 202.72 C 521.49 202.72 554 224.85 567.26 258.53 Z"
            fill="#8dcafc"
            stroke="#00000000"/>
        <path
            id="path_11"
            clip-path="url(#clip_path_11)"
            d="M 112.14 619.59 L 63.15 619.59 C 50.4 619.59 40.07 609.25 40.07 596.51 L 40.07 532.74 L 135.21 532.74 L 135.21 596.51 C 135.21 609.25 124.88 619.59 112.14 619.59"
            fill="#094c66"
            stroke="#00000000"/>
        <path
            id="path_12"
            clip-path="url(#clip_path_12)"
            d="M 619.52 619.59 L 570.53 619.59 C 557.79 619.59 547.46 609.25 547.46 596.51 L 547.46 532.74 L 642.59 532.74 L 642.59 596.51 C 642.59 609.25 632.26 619.59 619.52 619.59"
            fill="#094c66"
            stroke="#00000000"/>
        <path
            id="path_13"
            clip-path="url(#clip_path_13)"
            d="M 655.34 374.46 L 655.34 452.85 L 27.33 452.85 L 27.33 374.46 C 27.33 361.04 34.77 348.73 46.66 342.5 L 96.3 316.49 L 586.37 316.49 L 636.01 342.5 C 647.89 348.74 655.34 361.04 655.34 374.46"
            fill="#31a7fb"
            stroke="#00000000"/>
        <path
            id="path_14"
            clip-path="url(#clip_path_14)"
            d="M 171.03 399.49 L 511.64 399.49 L 511.64 373.52 L 171.03 373.51 Z"
            fill="#1c96f9"
            stroke="#00000000"/>
        <path
            id="path_15"
            clip-path="url(#clip_path_15)"
            d="M 655.34 374.46 L 655.34 452.85 L 613.29 452.85 L 613.29 374.46 C 613.29 361.04 605.85 348.72 593.96 342.5 L 544.32 316.49 L 586.36 316.49 L 636 342.5 C 647.89 348.72 655.34 361.04 655.34 374.46"
            fill="#1c96f9"
            stroke="#00000000"/>
        <path
            id="path_16"
            clip-path="url(#clip_path_16)"
            d="M 655.34 441.86 L 655.34 492.74 L 551.98 492.74 C 540.17 492.74 528.84 497.44 520.49 505.79 L 508.93 517.36 C 506.09 520.2 502.24 521.8 498.22 521.8 L 184.48 521.8 C 180.46 521.8 176.61 520.21 173.77 517.36 L 162.2 505.79 C 153.85 497.44 142.52 492.74 130.71 492.74 L 27.35 492.74 L 27.33 441.86 Z"
            fill="#1785f8"
            stroke="#00000000"/>
        <path
            id="path_17"
            clip-path="url(#clip_path_17)"
            d="M 655.34 441.86 L 27.33 441.86 L 27.33 464.77 L 655.34 464.77 Z"
            fill="#1576f7"
            stroke="#00000000"/>
        <path
            id="path_18"
            clip-path="url(#clip_path_18)"
            d="M 655.34 492.74 L 613.3 492.74 L 613.3 441.86 L 655.34 441.86 Z"
            fill="#1576f7"
            stroke="#00000000"/>
        <path
            id="path_19"
            clip-path="url(#clip_path_19)"
            d="M 655.34 481.76 L 655.34 537.31 C 655.34 562.4 635 582.75 609.9 582.75 L 72.76 582.75 C 47.67 582.75 27.32 562.41 27.32 537.31 L 27.32 481.76 L 130.69 481.76 C 142.5 481.76 153.83 486.45 162.19 494.81 L 173.75 506.37 C 176.59 509.21 180.44 510.81 184.46 510.81 L 498.2 510.81 C 502.22 510.81 506.07 509.21 508.91 506.37 L 520.47 494.81 C 528.83 486.45 540.16 481.76 551.98 481.76 Z"
            fill="#64b9fc"
            stroke="#00000000"/>
        <path
            id="path_20"
            clip-path="url(#clip_path_20)"
            d="M 655.34 481.76 L 655.34 537.31 C 655.34 562.4 634.99 582.75 609.9 582.75 L 567.86 582.75 C 592.95 582.75 613.3 562.4 613.3 537.31 L 613.3 481.76 Z"
            fill="#31a7fb"
            stroke="#00000000"/>
        <path
            id="path_21"
            clip-path="url(#clip_path_21)"
            d="M 584.72 526.64 L 553.63 526.64 C 547.94 526.64 543.33 522.03 543.33 516.34 C 543.33 510.65 547.94 506.04 553.63 506.04 L 584.72 506.04 C 590.41 506.04 595.02 510.65 595.02 516.34 C 595.03 522.03 590.41 526.64 584.72 526.64"
            fill="#1785f8"
            stroke="#00000000"/>
        <path
            id="path_22"
            clip-path="url(#clip_path_22)"
            d="M 129.03 526.64 L 97.94 526.64 C 92.25 526.64 87.64 522.03 87.64 516.34 C 87.64 510.65 92.25 506.04 97.94 506.04 L 129.03 506.04 C 134.72 506.04 139.33 510.65 139.33 516.34 C 139.33 522.03 134.72 526.64 129.03 526.64"
            fill="#1785f8"
            stroke="#00000000"/>
        <path
            id="path_23"
            clip-path="url(#clip_path_23)"
            d="M 59.88 340.41 L 59.88 387.64 C 59.88 391.55 62.8 394.83 66.68 395.29 L 152.09 405.35 C 163.82 406.73 175.67 403.92 185.53 397.42 L 200.79 387.36 C 206.31 383.72 204.98 375.28 198.61 373.51 L 120.32 351.76 C 120.11 351.7 119.91 351.64 119.7 351.56 L 70.26 333.19 C 65.23 331.32 59.88 335.05 59.88 340.41"
            fill="#d9ecfd"
            stroke="#00000000"/>
        <path
            id="path_24"
            clip-path="url(#clip_path_24)"
            d="M 200.79 387.37 L 185.53 397.42 C 175.67 403.93 163.82 406.73 152.08 405.36 L 119.4 401.51 C 129.19 401.1 138.77 398.05 147.03 392.58 L 166.67 378.38 C 171.7 375.07 171.5 368.11 167.25 364.8 L 198.59 373.51 C 204.98 375.28 206.3 383.73 200.79 387.37"
            fill="#bad5e4"
            stroke="#00000000"/>
        <path
            id="path_25"
            clip-path="url(#clip_path_25)"
            d="M 622.79 340.41 L 622.79 387.64 C 622.79 391.55 619.87 394.83 615.99 395.29 L 530.58 405.35 C 518.85 406.73 507 403.92 497.14 397.42 L 481.88 387.36 C 476.36 383.72 477.69 375.28 484.06 373.51 L 562.35 351.75 C 562.56 351.69 562.76 351.63 562.97 351.55 L 612.4 333.19 C 617.43 331.32 622.79 335.05 622.79 340.41"
            fill="#d9ecfd"
            stroke="#00000000"/>
        <path
            id="path_26"
            clip-path="url(#clip_path_26)"
            d="M 622.78 340.41 L 622.78 387.64 C 622.78 391.55 619.85 394.84 615.98 395.29 L 583.44 399.12 C 585.86 397.81 587.46 395.27 587.46 392.37 L 587.46 349.26 C 587.46 346.88 586.4 344.82 584.8 343.44 L 612.4 333.2 C 617.44 331.33 622.78 335.05 622.78 340.41"
            fill="#bad5e4"
            stroke="#00000000"/>
        <path
            id="path_27"
            clip-path="url(#clip_path_27)"
            d="M 209.96 441.86 L 472.71 441.86 L 472.71 453.28 C 472.71 485.05 446.96 510.8 415.19 510.8 L 267.48 510.8 C 235.71 510.8 209.96 485.05 209.96 453.28 Z"
            fill="#0c5f7f"
            stroke="#00000000"/>
        <path
            id="path_28"
            clip-path="url(#clip_path_28)"
            d="M 472.71 441.86 L 472.71 453.27 C 472.71 457.21 472.31 461.04 471.56 464.77 L 211.11 464.77 C 210.35 461.05 209.96 457.22 209.96 453.27 L 209.96 441.86 Z"
            fill="#094c66"
            stroke="#00000000"/>
        <path
            id="path_29"
            clip-path="url(#clip_path_29)"
            d="M 472.71 441.86 L 472.71 453.27 C 472.71 485.04 446.95 510.8 415.18 510.8 L 375.1 510.8 C 406.87 510.8 432.63 485.04 432.63 453.27 L 432.63 441.86 Z"
            fill="#094c66"
            stroke="#00000000"/>
    </g>
</svg>
