<svg
    xmlns="http://www.w3.org/2000/svg"
    viewBox="0 0 496 496"
    id="vector">
    <path
        id="path"
        d="M 336 200 L 376 232 C 376 255.36 372 278.24 364.48 300 C 356.8 321.6 345.6 342.08 331.04 360.24 L 312 384 L 311.28 383.92 L 328 256 L 296 232 L 335.36 199.2 Z M 336 200"
        fill="#f3a354"/>
    <path
        id="path_1"
        d="M 200 232 L 168 256 L 184.72 383.92 L 184 384 L 164.96 360.24 C 150.4 342.08 139.2 321.6 131.52 300 C 124 278.24 120 255.36 120 232 L 160 200 L 160.64 199.2 Z M 200 232"
        fill="#f3a354"/>
    <path
        id="path_2"
        d="M 329.2 102.08 L 344 128 L 344 192 L 296 136 L 307.84 100.4 C 310.64 92.16 312 83.6 312 74.96 C 312 74 312 72.96 311.92 72 L 312 72 Z M 329.2 102.08"
        fill="#ccd1d9"/>
    <path
        id="path_3"
        d="M 166.8 102.08 L 184 72 L 184.08 72 C 184 72.96 184 74 184 74.96 C 184 83.6 185.36 92.16 188.16 100.4 L 200 136 L 152 192 L 152 128 Z M 166.8 102.08"
        fill="#ccd1d9"/>
    <path
        id="path_4"
        d="M 296 136 L 344 192 L 335.36 199.2 L 296 232 L 200 232 L 160.64 199.2 L 152 192 L 200 136 Z M 296 136"
        fill="#f3a354"/>
    <path
        id="path_5"
        d="M 368 64 L 368 40 L 408 40 C 421.28 40 432 50.72 432 64 C 432 70.64 429.28 76.64 424.96 80.96 C 420.64 85.28 414.64 88 408 88 L 368 88 Z M 368 64"
        fill="#f3a354"/>
    <path
        id="path_6"
        d="M 392 128 C 400.8 128 408 135.2 408 144 C 408 148.4 406.24 152.4 403.28 155.28 C 400.4 158.24 396.4 160 392 160 L 344 160 L 344 128 Z M 392 128"
        fill="#000000"/>
    <path
        id="path_7"
        d="M 400 360 L 400 384 L 344 384 L 344 352 Z M 400 360"
        fill="#000000"/>
    <path
        id="path_8"
        d="M 307.12 416 L 304 440 L 280 440 L 280 312 L 296 232 L 328 256 L 311.28 383.92 Z M 307.12 416"
        fill="#f3a354"/>
    <path
        id="path_9"
        d="M 311.92 72 C 312 72.96 312 74 312 74.96 C 312 83.6 310.64 92.16 307.84 100.4 L 296 136 L 200 136 L 188.16 100.4 C 185.36 92.16 184 83.6 184 74.96 C 184 74 184 72.96 184.08 72 C 184.48 60.56 187.36 49.28 192.48 39.04 L 208 8 L 288 8 L 303.52 39.04 C 308.64 49.28 311.52 60.56 311.92 72 Z M 311.92 72"
        fill="#8dcafc"/>
    <path
        id="path_10"
        d="M 296 232 L 280 312 L 216 312 L 200 232 Z M 296 232"
        fill="#8dcafc"/>
    <path
        id="path_11"
        d="M 280 440 L 280 456 C 280 473.68 265.68 488 248 488 C 239.2 488 231.2 484.4 225.36 478.64 C 219.6 472.8 216 464.8 216 456 L 216 312 L 280 312 Z M 280 440"
        fill="#000000"/>
    <path
        id="path_12"
        d="M 188.88 416 L 184.72 383.92 L 168 256 L 200 232 L 216 312 L 216 440 L 192 440 Z M 188.88 416"
        fill="#f3a354"/>
    <path
        id="path_13"
        d="M 152 352 L 152 384 L 96 384 L 96 360 Z M 152 352"
        fill="#000000"/>
    <path
        id="path_14"
        d="M 152 128 L 152 160 L 104 160 C 99.6 160 95.6 158.24 92.72 155.28 C 89.76 152.4 88 148.4 88 144 C 88 135.2 95.2 128 104 128 Z M 152 128"
        fill="#000000"/>
    <path
        id="path_15"
        d="M 128 64 L 128 88 L 88 88 C 81.36 88 75.36 85.28 71.04 80.96 C 66.72 76.64 64 70.64 64 64 C 64 50.72 74.72 40 88 40 L 128 40 Z M 128 64"
        fill="#f3a354"/>
    <path
        id="path_16"
        d="M 216 160 L 280 160 L 280 176 L 216 176 Z M 216 160"
        fill="#838f9b"/>
    <path
        id="path_17"
        d="M 216 192 L 280 192 L 280 208 L 216 208 Z M 216 192"
        fill="#838f9b"/>
    <path
        id="path_18"
        d="M 408 96 C 425.65 96 440 81.65 440 64 C 440 46.35 425.65 32 408 32 L 360 32 L 360 56 L 347.47 56 L 329.34 86.21 L 319.67 69.29 C 318.9 57.56 315.94 45.96 310.68 35.46 L 292.95 0 L 203.06 0 L 185.33 35.46 C 180.07 45.97 177.11 57.56 176.34 69.29 L 166.67 86.21 L 148.53 56 L 136 56 L 136 32 L 88 32 C 70.35 32 56 46.35 56 64 C 56 81.65 70.35 96 88 96 L 136 96 L 136 72 L 139.47 72 L 157.56 102.14 L 147.36 120 L 104 120 C 90.77 120 80 130.77 80 144 C 80 157.23 90.77 168 104 168 L 144 168 L 144 195.75 L 148.17 199.22 L 112 228.16 L 112 232 C 112 271.98 123.55 311.23 144.61 344.98 L 88 353.07 L 88 392.01 L 144 392.01 L 144 400.01 C 144 413.24 154.77 424.01 168 424.01 L 181.85 424.01 L 184.98 448.01 L 208 448.01 L 208 456.01 C 208 478.06 225.95 496.01 248 496.01 C 270.05 496.01 288 478.06 288 456.01 L 288 448.01 L 311.02 448.01 L 314.15 424.01 L 328 424.01 C 341.23 424.01 352 413.24 352 400.01 L 352 392.01 L 408 392.01 L 408 353.07 L 351.39 344.98 C 372.45 311.23 384 271.99 384 232 L 384 228.16 L 347.83 199.22 L 352 195.75 L 352 168 L 392 168 C 405.23 168 416 157.23 416 144 C 416 130.77 405.23 120 392 120 L 348.64 120 L 338.44 102.14 L 356.53 72 L 360 72 L 360 96 Z M 120 80 L 88 80 C 79.18 80 72 72.82 72 64 C 72 55.18 79.18 48 88 48 L 120 48 L 120 56 L 96 56 L 96 72 L 120 72 Z M 273.44 304 L 222.56 304 L 209.76 240 L 286.24 240 Z M 293.11 224 L 202.9 224 L 163.36 191.05 L 203.69 144 L 292.33 144 L 332.66 191.05 Z M 180.53 102.89 L 190.98 134.23 L 160 170.38 L 160 130.13 L 178.86 97.13 C 179.36 99.06 179.9 100.99 180.53 102.9 Z M 336 170.38 L 305.02 134.23 L 315.47 102.89 C 316.11 100.99 316.64 99.05 317.14 97.12 L 336 130.13 Z M 199.64 42.62 L 212.95 16 L 283.06 16 L 296.37 42.62 C 301.36 52.61 304 63.8 304 74.96 C 304 82.76 302.75 90.46 300.29 97.83 L 290.23 128 L 205.77 128 L 195.71 97.83 C 193.25 90.45 192 82.76 192 74.96 C 192 63.79 194.64 52.61 199.64 42.62 Z M 104 152 C 99.59 152 96 148.41 96 144 C 96 139.59 99.59 136 104 136 L 144 136 L 144 152 Z M 160.71 209.68 L 187.11 231.67 L 159.46 252.41 L 173.19 357.69 L 171.21 355.22 C 144.13 321.38 128.87 279.11 128.03 235.81 Z M 104 376 L 104 366.94 L 144 361.23 L 144 376.01 Z M 168 408 C 163.59 408 160 404.41 160 400 L 160 366.81 L 177.19 388.3 L 179.76 408 Z M 288 432 L 288 416 L 272 416 L 272 456 C 272 469.23 261.23 480 248 480 C 234.77 480 224 469.23 224 456 L 224 360 L 208 360 L 208 432 L 199.02 432 L 176.53 259.59 L 194.64 246.01 L 207.99 312.79 L 207.99 344 L 223.99 344 L 223.99 320 L 271.99 320 L 271.99 400 L 287.99 400 L 287.99 312.79 L 301.34 246.01 L 319.45 259.59 L 296.96 432 Z M 328 408 L 316.24 408 L 318.81 388.3 L 336 366.81 L 336 400 C 336 404.41 332.41 408 328 408 Z M 392 376 L 352 376 L 352 361.22 L 392 366.93 Z M 367.96 235.82 C 367.11 279.12 351.85 321.38 324.78 355.23 L 322.8 357.69 L 336.53 252.41 L 308.89 231.68 L 335.28 209.69 Z M 400 144 C 400 148.41 396.41 152 392 152 L 352 152 L 352 136 L 392 136 C 396.41 136 400 139.59 400 144 Z M 376 48 L 408 48 C 416.82 48 424 55.18 424 64 C 424 72.82 416.82 80 408 80 L 376 80 L 376 72 L 400 72 L 400 56 L 376 56 Z M 376 48"
        fill="#ff8201"/>
    <path
        id="path_19"
        d="M 234.34 45.66 L 245.65 34.35 L 285.65 74.35 L 274.33 85.67 Z M 234.34 45.66"
        fill="#d9ecfd"/>
    <path
        id="path_20"
        d="M 210.34 69.66 L 221.65 58.35 L 269.65 106.35 L 258.33 117.66 Z M 210.34 69.66"
        fill="#d9ecfd"/>
</svg>
