<svg
    xmlns="http://www.w3.org/2000/svg"
    viewBox="0 0 48 48"
    id="vector">
    <path
        id="path"
        d="M 24 38 M 19 38 C 19 36.674 19.527 35.402 20.464 34.464 C 21.402 33.527 22.674 33 24 33 C 25.326 33 26.598 33.527 27.536 34.464 C 28.473 35.402 29 36.674 29 38 C 29 39.326 28.473 40.598 27.536 41.536 C 26.598 42.473 25.326 43 24 43 C 22.674 43 21.402 42.473 20.464 41.536 C 19.527 40.598 19 39.326 19 38"
        fill="#f44336"/>
    <path
        id="path_1"
        d="M 24 24 M 12.59 24 C 12.59 21.591 13.353 19.242 14.769 17.293 C 16.185 15.344 18.183 13.893 20.474 13.148 C 22.765 12.404 25.235 12.404 27.526 13.148 C 29.817 13.893 31.815 15.344 33.231 17.293 C 34.647 19.242 35.41 21.591 35.41 24 C 35.41 26.409 34.647 28.758 33.231 30.707 C 31.815 32.656 29.817 34.107 27.526 34.852 C 25.235 35.596 22.765 35.596 20.474 34.852 C 18.183 34.107 16.185 32.656 14.769 30.707 C 13.353 28.758 12.59 26.409 12.59 24"
        fill="#f44336"/>
    <path
        id="path_2"
        d="M 24 10 M 19 10 C 19 8.674 19.527 7.402 20.464 6.464 C 21.402 5.527 22.674 5 24 5 C 25.326 5 26.598 5.527 27.536 6.464 C 28.473 7.402 29 8.674 29 10 C 29 11.326 28.473 12.598 27.536 13.536 C 26.598 14.473 25.326 15 24 15 C 22.674 15 21.402 14.473 20.464 13.536 C 19.527 12.598 19 11.326 19 10"
        fill="#f44336"/>
    <path
        id="path_3"
        d="M 31 36.12 M 26 36.12 C 26 34.794 26.527 33.522 27.464 32.584 C 28.402 31.647 29.674 31.12 31 31.12 C 32.326 31.12 33.598 31.647 34.536 32.584 C 35.473 33.522 36 34.794 36 36.12 C 36 37.446 35.473 38.718 34.536 39.656 C 33.598 40.593 32.326 41.12 31 41.12 C 29.674 41.12 28.402 40.593 27.464 39.656 C 26.527 38.718 26 37.446 26 36.12"
        fill="#f44336"/>
    <path
        id="path_4"
        d="M 17 11.88 M 12 11.88 C 11.997 10.822 12.329 9.79 12.949 8.933 C 13.57 8.076 14.446 7.437 15.452 7.11 C 16.458 6.782 17.542 6.782 18.548 7.11 C 19.554 7.437 20.43 8.076 21.051 8.933 C 21.671 9.79 22.003 10.822 22 11.88 C 22.003 12.938 21.671 13.97 21.051 14.827 C 20.43 15.684 19.554 16.323 18.548 16.65 C 17.542 16.978 16.458 16.978 15.452 16.65 C 14.446 16.323 13.57 15.684 12.949 14.827 C 12.329 13.97 11.997 12.938 12 11.88"
        fill="#f44336"/>
    <path
        id="path_5"
        d="M 36.12 31 M 31.12 31 C 31.117 29.942 31.449 28.91 32.069 28.053 C 32.69 27.196 33.566 26.557 34.572 26.23 C 35.578 25.902 36.662 25.902 37.668 26.23 C 38.674 26.557 39.55 27.196 40.171 28.053 C 40.791 28.91 41.123 29.942 41.12 31 C 41.123 32.058 40.791 33.09 40.171 33.947 C 39.55 34.804 38.674 35.443 37.668 35.77 C 36.662 36.098 35.578 36.098 34.572 35.77 C 33.566 35.443 32.69 34.804 32.069 33.947 C 31.449 33.09 31.117 32.058 31.12 31"
        fill="#f44336"/>
    <path
        id="path_6"
        d="M 11.88 17 M 6.88 17 C 6.88 15.674 7.407 14.402 8.344 13.464 C 9.282 12.527 10.554 12 11.88 12 C 13.206 12 14.478 12.527 15.416 13.464 C 16.353 14.402 16.88 15.674 16.88 17 C 16.88 18.056 16.546 19.085 15.925 19.939 C 15.305 20.793 14.429 21.429 13.425 21.755 C 12.421 22.082 11.339 22.082 10.335 21.755 C 9.331 21.429 8.455 20.793 7.835 19.939 C 7.214 19.085 6.88 18.056 6.88 17"
        fill="#f44336"/>
    <path
        id="path_7"
        d="M 38 24 M 33 24 C 33 22.674 33.527 21.402 34.464 20.464 C 35.402 19.527 36.674 19 38 19 C 39.326 19 40.598 19.527 41.536 20.464 C 42.473 21.402 43 22.674 43 24 C 43 25.326 42.473 26.598 41.536 27.536 C 40.598 28.473 39.326 29 38 29 C 36.674 29 35.402 28.473 34.464 27.536 C 33.527 26.598 33 25.326 33 24"
        fill="#f44336"/>
    <path
        id="path_8"
        d="M 10 24 M 5 24 C 5 22.674 5.527 21.402 6.464 20.464 C 7.402 19.527 8.674 19 10 19 C 11.326 19 12.598 19.527 13.536 20.464 C 14.473 21.402 15 22.674 15 24 C 15 25.326 14.473 26.598 13.536 27.536 C 12.598 28.473 11.326 29 10 29 C 8.674 29 7.402 28.473 6.464 27.536 C 5.527 26.598 5 25.326 5 24"
        fill="#f44336"/>
    <path
        id="path_9"
        d="M 36.12 17 M 31.12 17 C 31.117 15.942 31.449 14.91 32.069 14.053 C 32.69 13.196 33.566 12.557 34.572 12.23 C 35.578 11.902 36.662 11.902 37.668 12.23 C 38.674 12.557 39.55 13.196 40.171 14.053 C 40.791 14.91 41.123 15.942 41.12 17 C 41.123 18.058 40.791 19.09 40.171 19.947 C 39.55 20.804 38.674 21.443 37.668 21.77 C 36.662 22.098 35.578 22.098 34.572 21.77 C 33.566 21.443 32.69 20.804 32.069 19.947 C 31.449 19.09 31.117 18.058 31.12 17"
        fill="#f44336"/>
    <path
        id="path_10"
        d="M 11.88 31 M 6.88 31 C 6.88 29.674 7.407 28.402 8.344 27.464 C 9.282 26.527 10.554 26 11.88 26 C 13.206 26 14.478 26.527 15.416 27.464 C 16.353 28.402 16.88 29.674 16.88 31 C 16.88 32.056 16.546 33.085 15.925 33.939 C 15.305 34.793 14.429 35.429 13.425 35.755 C 12.421 36.082 11.339 36.082 10.335 35.755 C 9.331 35.429 8.455 34.793 7.835 33.939 C 7.214 33.085 6.88 32.056 6.88 31"
        fill="#f44336"/>
    <path
        id="path_11"
        d="M 31 11.88 M 26 11.88 C 26 10.554 26.527 9.282 27.464 8.344 C 28.402 7.407 29.674 6.88 31 6.88 C 32.326 6.88 33.598 7.407 34.536 8.344 C 35.473 9.282 36 10.554 36 11.88 C 36 13.206 35.473 14.478 34.536 15.416 C 33.598 16.353 32.326 16.88 31 16.88 C 29.674 16.88 28.402 16.353 27.464 15.416 C 26.527 14.478 26 13.206 26 11.88"
        fill="#f44336"/>
    <path
        id="path_12"
        d="M 17 36.12 M 12 36.12 C 11.997 35.062 12.329 34.03 12.949 33.173 C 13.57 32.316 14.446 31.677 15.452 31.35 C 16.458 31.022 17.542 31.022 18.548 31.35 C 19.554 31.677 20.43 32.316 21.051 33.173 C 21.671 34.03 22.003 35.062 22 36.12 C 22.003 37.178 21.671 38.21 21.051 39.067 C 20.43 39.924 19.554 40.563 18.548 40.89 C 17.542 41.218 16.458 41.218 15.452 40.89 C 14.446 40.563 13.57 39.924 12.949 39.067 C 12.329 38.21 11.997 37.178 12 36.12"
        fill="#f44336"/>
    <path
        id="path_13"
        d="M 15.582 29.585 L 29.58 15.587 L 32.408 18.415 L 18.41 32.413 Z"
        fill="#ffffff"/>
    <path
        id="path_14"
        d="M 15.582 18.415 L 18.41 15.587 L 32.408 29.585 L 29.58 32.413 Z"
        fill="#ffffff"/>
</svg>
