<svg
    xmlns="http://www.w3.org/2000/svg"
    viewBox="0 0 24 24"
    id="vector">
    <path
        id="path"
        d="M 19.473 8.905 C 19.739 7.391 19.822 5.678 19.072 4.928 C 18.323 4.177 16.61 4.259 15.095 4.527 C 14.213 3.268 13.06 2 12 2 C 10.94 2 9.787 3.269 8.905 4.527 C 7.391 4.259 5.677 4.177 4.928 4.928 C 4.178 5.678 4.261 7.391 4.527 8.905 C 3.268 9.787 2 10.94 2 12 C 2 13.06 3.269 14.213 4.527 15.095 C 4.261 16.609 4.178 18.322 4.928 19.072 C 5.676 19.822 7.39 19.741 8.905 19.473 C 9.787 20.732 10.94 22 12 22 C 13.06 22 14.213 20.731 15.095 19.473 C 16.609 19.74 18.323 19.823 19.072 19.072 C 19.822 18.322 19.739 16.609 19.473 15.095 C 20.732 14.213 22 13.06 22 12 C 22 10.94 20.731 9.787 19.473 8.905 Z"
        fill="#c8e6c9"/>
    <path
        id="path_1"
        d="M 11.5 15 C 11.369 15 11.239 14.974 11.117 14.924 C 10.996 14.874 10.886 14.8 10.793 14.707 L 8.793 12.707 C 8.611 12.518 8.51 12.266 8.512 12.004 C 8.515 11.741 8.62 11.491 8.805 11.305 C 8.991 11.12 9.241 11.015 9.504 11.012 C 9.766 11.01 10.018 11.111 10.207 11.293 L 11.5 12.586 L 14.793 9.293 C 14.982 9.111 15.234 9.01 15.496 9.012 C 15.759 9.015 16.009 9.12 16.195 9.305 C 16.38 9.491 16.485 9.741 16.488 10.004 C 16.49 10.266 16.389 10.518 16.207 10.707 L 12.207 14.707 C 12.114 14.8 12.004 14.874 11.883 14.924 C 11.761 14.974 11.631 15 11.5 15 Z"
        fill="#43a048"/>
</svg>
