<svg
    xmlns="http://www.w3.org/2000/svg"
    viewBox="0 0 335 335"
    id="vector">
    <path
        id="path"
        d="M 41.04 0 L 294.72 0 C 302.88 0 309.49 6.61 309.49 14.77 L 309.49 237.79 C 309.49 245.95 302.88 252.56 294.72 252.56 L 41.04 252.56 C 32.88 252.56 26.27 245.95 26.27 237.79 L 26.27 14.77 C 26.27 6.61 32.88 0 41.04 0 Z"
        fill="#838f9b"/>
    <path
        id="path_1"
        d="M 48.98 133.52 L 41.91 133.52 L 41.91 97.99 C 41.93 91.71 47.03 86.62 53.31 86.61 L 280.89 86.61 C 287.17 86.63 292.25 91.71 292.27 97.99 L 292.27 130.11 L 285.21 130.11 L 285.21 97.99 C 285.2 95.61 283.27 93.69 280.89 93.69 L 53.31 93.69 C 50.92 93.69 48.99 95.63 48.98 98.01 Z"
        fill="#1785f8"/>
    <path
        id="path_2"
        d="M 280.68 107.49 L 296.82 107.49 C 299.9 107.49 302.4 109.99 302.4 113.07 L 302.4 164.56 C 302.4 167.64 299.9 170.14 296.82 170.14 L 280.68 170.14 C 277.6 170.14 275.1 167.64 275.1 164.56 L 275.1 113.07 C 275.1 109.98 277.6 107.48 280.68 107.48 Z"
        fill="#31a7fb"/>
    <path
        id="path_3"
        d="M 38.94 107.49 L 55.08 107.49 C 58.16 107.49 60.66 109.99 60.66 113.07 L 60.66 164.56 C 60.66 167.64 58.16 170.14 55.08 170.14 L 38.94 170.14 C 35.86 170.14 33.36 167.64 33.36 164.56 L 33.36 113.07 C 33.36 109.98 35.86 107.48 38.94 107.48 Z"
        fill="#31a7fb"/>
    <path
        id="path_4"
        d="M 248.36 250.88 L 277 250.88 C 281.33 250.88 284.84 254.39 284.84 258.72 L 284.84 327.92 C 284.84 332.25 281.32 335.76 277 335.76 L 248.36 335.76 C 244.03 335.76 240.52 332.25 240.52 327.92 L 240.52 258.72 C 240.52 254.39 244.03 250.88 248.36 250.88 Z"
        fill="#094c66"/>
    <path
        id="path_5"
        d="M 58.76 250.88 L 87.4 250.88 C 91.73 250.88 95.24 254.39 95.24 258.72 L 95.24 327.92 C 95.24 332.25 91.73 335.76 87.4 335.76 L 58.76 335.76 C 54.43 335.76 50.92 332.25 50.92 327.92 L 50.92 258.73 C 50.92 254.4 54.43 250.89 58.76 250.89 Z"
        fill="#094c66"/>
    <path
        id="path_6"
        d="M 253.4 53.69 C 197.05 41.39 138.71 41.39 82.36 53.69 C 75.54 55.23 70.71 61.3 70.73 68.29 L 70.73 303.13 L 265.02 303.13 L 265.02 68.29 C 265.05 61.3 260.21 55.23 253.39 53.69 Z"
        fill="#1785f8"/>
    <path
        id="path_7"
        d="M 265.03 204.91 C 251.49 204.91 240.52 215.88 240.52 229.42 L 240.52 303.12 L 289.53 303.12 L 289.53 229.42 C 289.53 215.89 278.56 204.91 265.03 204.91 Z"
        fill="#31a7fb"/>
    <path
        id="path_8"
        d="M 70.73 204.91 C 57.2 204.91 46.23 215.89 46.23 229.42 L 46.23 303.12 L 95.24 303.12 L 95.24 229.42 C 95.24 215.89 84.27 204.91 70.73 204.91 Z"
        fill="#31a7fb"/>
    <path
        id="path_9"
        d="M 117.22 210.31 L 218.53 210.31 L 218.53 218.29 L 117.22 218.29 Z"
        fill="#0c5f7f"/>
    <path
        id="path_10"
        d="M 117.22 229.74 L 218.53 229.74 L 218.53 237.72 L 117.22 237.72 Z"
        fill="#0c5f7f"/>
    <path
        id="path_11"
        d="M 117.22 249.18 L 218.53 249.18 L 218.53 257.16 L 117.22 257.16 Z"
        fill="#0c5f7f"/>
    <path
        id="path_12"
        d="M 117.22 268.62 L 218.53 268.62 L 218.53 276.6 L 117.22 276.6 Z"
        fill="#0c5f7f"/>
    <path
        id="path_13"
        d="M 294.91 292.93 L 40.84 292.93 C 36.27 292.93 32.57 296.63 32.57 301.2 C 32.57 305.77 36.27 309.47 40.84 309.47 L 294.91 309.47 C 299.48 309.47 303.18 305.77 303.18 301.2 C 303.18 296.63 299.48 292.93 294.91 292.93 Z"
        fill="#3e6b82"/>
    <path
        id="path_14"
        d="M 95.25 92.5 L 240.53 92.5 L 240.53 171.54 L 95.25 171.54 Z"
        fill="#d9ecfd"/>
    <path
        id="path_15"
        d="M 124.71 64.44 L 211.05 64.44 L 211.05 78.1 L 124.71 78.1 Z"
        fill="#0c5f7f"/>
    <path
        id="path_16"
        d="M 265.82 216.48 C 258.49 216.48 252.55 222.42 252.55 229.75 C 252.55 237.08 258.49 243.02 265.82 243.02 C 273.15 243.02 279.09 237.08 279.09 229.75 C 279.09 222.42 273.15 216.48 265.82 216.48 Z"
        fill="#d9ecfd"/>
    <path
        id="path_17"
        d="M 69.94 216.48 C 62.61 216.48 56.67 222.42 56.67 229.75 C 56.67 237.08 62.61 243.02 69.94 243.02 C 77.27 243.02 83.21 237.08 83.21 229.75 C 83.21 222.42 77.27 216.48 69.94 216.48 Z"
        fill="#d9ecfd"/>
    <path
        id="path_18"
        d="M 265.82 249.18 C 258.49 249.18 252.55 255.12 252.55 262.45 C 252.55 269.78 258.49 275.72 265.82 275.72 C 273.15 275.72 279.09 269.78 279.09 262.45 C 279.09 255.12 273.15 249.18 265.82 249.18 Z"
        fill="#d9ecfd"/>
    <path
        id="path_19"
        d="M 69.94 249.18 C 62.61 249.18 56.67 255.12 56.67 262.45 C 56.67 269.78 62.61 275.72 69.94 275.72 C 77.27 275.72 83.21 269.78 83.21 262.45 C 83.21 255.12 77.27 249.18 69.94 249.18 Z"
        fill="#d9ecfd"/>
</svg>
