<?xml version="1.0" encoding="utf-8"?>
<!-- Generator: Adobe Illustrator 26.0.1, SVG Export Plug-In . SVG Version: 6.00 Build 0)  -->
<svg version="1.1" id="Layer_1" xmlns="http://www.w3.org/2000/svg" xmlns:xlink="http://www.w3.org/1999/xlink" x="0px" y="0px"
	 viewBox="0 0 287.2 249.8" style="enable-background:new 0 0 287.2 249.8;" xml:space="preserve">
<style type="text/css">
	.st0{fill:#FFD780;}
	.st1{fill:#FFD16B;}
	.st2{fill:#FCBA4E;}
	.st3{fill:#FCAE30;}
	.st4{fill:#FFFFEB;}
	.st5{fill:#FF7D55;}
	.st6{font-family:'Arial-BoldMT';}
	.st7{font-size:31.49px;}
</style>
<g id="Layer_2_00000124845499170145227730000013059765474434014380_">
	<g id="OBJECTS">
		<path class="st0" d="M282.1,100.8c-0.4-4.2-4.2-7.2-8.4-6.8c-0.8,0.1-1.7,0.3-2.4,0.7c0-0.2,0-0.5,0-0.7c0-8.4-6.8-15.3-15.2-15.3
			c-3.1,0-6.2,1-8.8,2.7c-2.6-12.1-14.6-19.9-26.7-17.2c-12.1,2.6-19.9,14.6-17.2,26.7c0.2,1.1,0.5,2.1,0.9,3.2
			c-0.3,0-0.7-0.1-1-0.1c-1.4,0-2.8,0.4-4.1,1.2c0-0.1,0-0.3,0-0.4c0.2-8-6.1-14.7-14.1-15c-8-0.2-14.7,6.1-15,14.1
			c0,1.1,0.1,2.1,0.3,3.2h-24.4c-3.4,0-6.1,2.7-6.1,6.1s2.7,6.1,6.1,6.1h131.1v-0.5C280.5,107.5,282.5,104.2,282.1,100.8z"/>
		<path class="st1" d="M0,209.8c0,0,36.2-68.6,79.3-67.9c62,1.1,100.7,60.4,100.7,60.4L0,209.8z"/>
		<path class="st0" d="M90.5,209.8c0,0,51.1-87.3,94.2-86.6c62,1.1,94.2,85.1,94.2,85.1L90.5,209.8z"/>
		<path class="st2" d="M287.2,221.4c0,15.2-67.9,15.1-144.5,25.4C22.9,262.9,0,209.8,0,209.8c5.8-14.4,78.9-33.3,150.1-33.3
			S287.2,206.2,287.2,221.4z"/>
		<path class="st0" d="M152.7,51.5h-23.6c0.7-2.7,0.4-5.6-0.9-8.1c-1.6-3.2-4.5-5.5-8-6.3c-2-0.4-4.1-0.3-6.1,0.3c0-0.1,0-0.2,0-0.4
			c0-11.5-9.3-20.8-20.8-20.8c-10,0-18.6,7.1-20.4,16.9c-7.4-1.5-14.5,3.3-16,10.7c-0.1,0.6-0.2,1.3-0.2,1.9h-32c-4-0.1-7.3,3-7.5,7
			c-0.1,4,3,7.3,7,7.4c0.1,0,0.1,0,0.2,0h128.4c2.4,0,4.4-2,4.4-4.4C157.1,53.5,155.1,51.5,152.7,51.5
			C152.7,51.5,152.7,51.5,152.7,51.5L152.7,51.5z"/>
		<path class="st0" d="M240.4,25.6h-14c0.4-1.6,0.3-3.3-0.5-4.8c-0.9-1.9-2.7-3.3-4.8-3.7c-1.2-0.3-2.5-0.2-3.6,0.2V17
			c0-6.8-5.6-12.4-12.4-12.3c-5.9,0-11,4.2-12.1,10c-0.5-0.1-1-0.2-1.5-0.1c-4.3,0-7.9,3.4-8.1,7.7h-19.1c-2.4,0-4.3,1.8-4.5,4.2
			c-0.1,2.4,1.8,4.4,4.2,4.4c0,0,0.1,0,0.1,0h76.4c1.4-0.1,2.5-1.3,2.4-2.8C242.7,26.7,241.7,25.7,240.4,25.6L240.4,25.6z"/>
		<path class="st3" d="M27.4,194.2c11.9,14.1,47.2,41.2,137.3,29.1c45.4-6.1,87.7-8.6,114.7-12.7c-19.5-15.3-72.6-34-129.2-34
			C103.6,176.5,56.2,184.6,27.4,194.2z"/>
		<path class="st4" d="M209.9,71.5c0.4-1.7-1.1-3.7-1.9-5.3c-0.6-1.2-1.2-2.5-1.8-3.8c-0.1-0.2-0.2-0.7-0.3-0.6
			c0.2-0.5,0.5-0.9,0.8-1.3c1-1.8,2.4-3.5,2.4-5.6v-4.7c0.1-1,0.1-2.1,0-3.1c-0.5-1-1.1-2-1.9-2.8c-0.5-0.7-1.1-1.5-1.6-2.2
			c-0.3-0.4-0.7-1.3-0.8-0.9c0.2-1,1.6-2.6,2.1-3.4l2.2-3.6c0.3-0.5-0.4-0.8-0.7-0.8h-53.7c0.1-0.1,0.1-0.2,0.1-0.3V1.4
			c0.3-0.4,0.2-1-0.2-1.3C154.2,0,154,0,153.8,0c-7.5,1.3-14.3,5-21.6,6.7c-0.3,0.1-0.5,0.3-0.6,0.6c-0.1,0.1-0.1,0.2-0.1,0.3v26.1
			H82.2c-0.3,0-0.9,0.3-0.9,0.7c0,3.6,0,7.2-0.1,10.8c0,1.2-0.1,1.3,0.7,2.1c1.1,1.1,2.4,2,3.7,2.9l0,0l-3.9,2.1
			c-0.2,0.1-0.5,0.3-0.5,0.6c0,3.9,0,7.8-0.1,11.7v8c-0.1,1.4-0.1,2.8,0,4.2c0.3,1.4,1.8,3,2.7,4.2c0.1,0.1,0.2,0.3,0.4,0.5
			c-0.2,0.2-0.3,0.6-0.1,0.7c0,0,0,0-0.1,0.1c-0.8,0.9-1.5,1.8-2.2,2.8c-0.9,1.3-0.7,2.3-0.8,3.9c0,2.2,0,4.5-0.1,6.7
			c0,0.4,0.4,0.6,0.8,0.6l42.8,1.4l8.2,0.3v106.6c-0.4,0.3-0.4,0.9-0.1,1.3c0.2,0.2,0.4,0.3,0.6,0.3l20.4,1c0.4,0,0.8-0.3,0.8-0.7
			c0-0.1,0-0.1,0-0.2c0-0.1,0.1-0.2,0.1-0.3V98.4l38,1.2l15.4,0.5c0.2,0,0.3,0,0.5,0c0.2,0,0.4-0.1,0.5-0.3c0.2-0.1,0.3-0.4,0.2-0.6
			l-3.3-15.3c-0.1-0.4-0.2-1.5-0.3-1.2c0.3-1.1,0.7-2.2,1.3-3.2C207.7,76.9,209.3,74.2,209.9,71.5z"/>
		<path class="st3" d="M209.9,71.5c0.4-1.7-1.1-3.7-1.9-5.3c-0.6-1.2-1.2-2.5-1.8-3.8c-0.1-0.2-0.2-0.7-0.3-0.6
			c0.2-0.5,0.5-0.9,0.8-1.3c1-1.8,2.4-3.5,2.4-5.6v-4.7c0.1-1,0.1-2.1,0-3.1c-0.5-1-1.1-2-1.9-2.8c-0.5-0.7-1.1-1.5-1.6-2.2
			c-0.3-0.4-0.7-1.3-0.8-0.9c0.2-1,1.6-2.6,2.1-3.4l2.2-3.6c0.3-0.5-0.4-0.8-0.7-0.8h-53.7c0.1-0.1,0.1-0.2,0.1-0.3V1.4
			c0.3-0.4,0.2-1-0.2-1.3C154.2,0,154,0,153.8,0c-7.5,1.3-14.3,5-21.6,6.7c-0.3,0.1-0.5,0.3-0.6,0.6c-0.1,0.1-0.1,0.2-0.1,0.3v26.1
			H82.2c-0.3,0-0.9,0.3-0.9,0.7c0,3.6,0,7.2-0.1,10.8c0,1.2-0.1,1.3,0.7,2.1c1.1,1.1,2.4,2,3.7,2.9l0,0l-3.9,2.1
			c-0.2,0.1-0.5,0.3-0.5,0.6c0,3.9,0,7.8-0.1,11.7v8c-0.1,1.4-0.1,2.8,0,4.2c0.3,1.4,1.8,3,2.7,4.2c0.1,0.1,0.2,0.3,0.4,0.5
			c-0.2,0.2-0.3,0.6-0.1,0.7c0,0,0,0-0.1,0.1c-0.8,0.9-1.5,1.8-2.2,2.8c-0.9,1.3-0.7,2.3-0.8,3.9c0,2.2,0,4.5-0.1,6.7
			c0,0.4,0.4,0.6,0.8,0.6l42.8,1.4l8.2,0.3v106.6c-0.4,0.3-0.4,0.9-0.1,1.3c0.2,0.2,0.4,0.3,0.6,0.3l20.4,1c0.4,0,0.8-0.3,0.8-0.7
			c0-0.1,0-0.1,0-0.2c0-0.1,0.1-0.2,0.1-0.3V98.4l38,1.2l15.4,0.5c0.2,0,0.3,0,0.5,0c0.2,0,0.4-0.1,0.5-0.3c0.2-0.1,0.3-0.4,0.2-0.6
			l-3.3-15.3c-0.1-0.4-0.2-1.5-0.3-1.2c0.3-1.1,0.7-2.2,1.3-3.2C207.7,76.9,209.3,74.2,209.9,71.5z M133,8.2
			c6.8-1.7,13.1-4.9,19.9-6.3v31.5c0,0,0,0.1,0,0.1H133V8.2z M152.6,205.2l-11.6-0.6c0.4-0.1,0.6-0.4,0.6-0.8v-24
			c-0.1-0.5-0.5-0.8-1-0.8c-0.4,0-0.7,0.4-0.8,0.8v24c0,0.3,0.2,0.7,0.5,0.8l-6.1-0.3V97.8l18.3,0.6V205.2z M204,84.2
			c-6.3,0.5-12.7,0.6-19,0.5c-0.6,0-1.8,0.8-0.7,0.8c6.6,0.1,13.2-0.1,19.8-0.6c0.6,2.7,1.1,5.3,1.7,8c-27.5,0.5-55.1,0.7-82.6,0.5
			c-1,0-1.3,1.3-0.1,1.3c27.7,0.2,55.3,0,83-0.5l1,4.6l-41.7-1.3l-67.9-2.2l-14.9-0.5c0-2.6,0.1-5.2,0-7.8c0-1.3-0.1-0.8,0.7-2
			l2.3-2.9c6.8,0.3,13.7,0.6,20.5,0.7c0.9,0,1.3-1.2,0.2-1.2c-6.8-0.1-13.7-0.3-20.5-0.7c-0.8-1.2-1.6-2.5-2.5-3.7
			c-0.7-1-0.6-0.5-0.6-1.7c0.1-3,0.1-6.1,0.1-9.1l19.7-0.9c1,0,1.3-1.3,0.1-1.3l-19.8,1V65l0.1-11c0-0.3,0-0.7,0-1l0,0
			c1.3-0.4,2.6-1.1,3.7-1.9c0.4,0.1,0.9,0.2,1.3,0.1c0.4,0,0.7-0.2,0.8-0.5L116,51c0.7,0,1.8-1,0.7-1l-29.1-0.4l0,0
			c-1.3-1.1-2.7-2.2-4.1-3.2c-0.2-0.1-0.4-0.2-0.6-0.4c-0.1-0.6-0.1-1.2,0-1.9l0.1-9.3h124c-1.3,2.2-2.6,4.3-3.9,6.4
			c-0.1,0.2-0.1,0.3,0,0.5c1.3,1.7,3.1,3.5,4.1,5.5c0.1,0.2,0.1,0.2,0.1,0.2c0,0.4,0,0.8,0,1.2v4.5c0.2,1.9-0.3,3.8-1.3,5.3
			c-0.6,1.1-1.5,2.2-1.7,3.3c-7.1-0.1-14.2,0.1-21.3,0.6c-0.9,0.1-1.4,1.1-0.2,1c7.2-0.5,14.4-0.7,21.6-0.5c0.9,2.5,2.1,5,3.4,7.3
			c0.2,0.3,0.3,0.6,0.4,0.9V71c-0.3,1-0.6,2-1.1,2.9c-1,2.6-2,5.1-3,7.7C203.9,82.4,203.8,83.3,204,84.2z"/>
		<path class="st3" d="M202.3,40.1c-14.2-0.3-28.4-0.2-42.6,0.2c-0.9,0-1.4,1.1-0.2,1c14.1-0.5,28.1-0.5,42.2-0.2
			C202.4,41.1,203.4,40.1,202.3,40.1z"/>
		<path class="st3" d="M102.8,38.6l-16.2-0.4c-1,0-1.3,1.2-0.1,1.2l16.2,0.4C103.7,39.8,104,38.6,102.8,38.6z"/>
		<path class="st3" d="M109.4,88.6l-20.2-0.3c-0.7,0-1.8,1-0.6,1l20.2,0.3C109.5,89.7,110.6,88.6,109.4,88.6z"/>
		<path class="st3" d="M199.3,88.8h1.2c0.4,0,0.9-0.3,0.9-0.7s-0.4-0.5-0.8-0.5h-1.2c-0.4,0-0.9,0.3-0.9,0.7S199,88.8,199.3,88.8z"
			/>
		<path class="st3" d="M91.8,76.6l-5.5-0.3c-0.4-0.1-0.8,0.1-1.2,0.3c-0.2,0.2-0.3,0.4,0.1,0.5l5.5,0.3c0.4,0.1,0.8-0.1,1.2-0.3
			C92.1,76.9,92.2,76.7,91.8,76.6z"/>
		<path class="st3" d="M199.2,57.8l-8.4-0.3c-0.6,0-1.8,0.8-0.7,0.9l8.4,0.3C199.1,58.7,200.3,57.9,199.2,57.8z"/>
		<path class="st3" d="M196.5,47.8h-9.8c-0.4,0-1.9,0.7-1.1,0.7h9.8C195.8,48.4,197.3,47.8,196.5,47.8z"/>
		<path class="st3" d="M148.6,148.8c-0.1-0.4-0.1-0.9,0.2-1.3c0.6-0.9-0.9-1.8-1.5-0.9c-0.5,0.8-0.6,1.7-0.4,2.6
			c0.2,0.4,0.7,0.7,1.1,0.5C148.5,149.6,148.7,149.2,148.6,148.8z"/>
		<path class="st3" d="M147.7,172.5v2.2c0,0.1-0.1,0.1-0.1,0.2V195c0,0.7,1.3,0.6,1.3-0.1v-19.4c0.3-0.1,0.5-0.4,0.5-0.7v-2.3
			c-0.1-0.5-0.5-0.8-1-0.8C148,171.7,147.7,172.1,147.7,172.5z"/>
		<path class="st3" d="M148.2,199.8c-0.5,0.1-0.8,0.5-0.8,1c0,0.4,0.4,0.7,0.8,0.8c0.5-0.1,0.8-0.5,0.8-1
			C148.9,200.2,148.6,199.9,148.2,199.8z"/>
		<path class="st3" d="M148.6,124.6c-0.1-6.5-0.2-13.1-0.4-19.6c0-0.6-1.3-0.4-1.3,0.1c0.1,6.5,0.2,13.1,0.4,19.6
			C147.2,125.4,148.6,125.1,148.6,124.6z"/>
		<path class="st3" d="M141.2,154.2v-44.2c0-0.4-1.3-0.2-1.3,0.3v44.2C139.9,154.9,141.2,154.7,141.2,154.2z"/>
		<path class="st3" d="M144.8,155.6v-19.1c0-0.7-1.3-0.5-1.3,0.1v19.1C143.5,156.4,144.8,156.2,144.8,155.6z"/>
		<path class="st3" d="M139.4,12.6c-0.5,0-1.4,0.7-0.5,0.7C139.4,13.3,140.3,12.6,139.4,12.6z"/>
		<path class="st3" d="M142.1,10.4v16.9c0,0.3,1.3,0.1,1.3-0.4V10C143.5,9.8,142.1,10,142.1,10.4z"/>
		<path class="st3" d="M139,17.1v12.8c0,0.6,1.3,0.4,1.3-0.1V17C140.3,16.4,139,16.6,139,17.1z"/>
		<path class="st3" d="M150.4,7.1v12.3c0,0.7,1.3,0.5,1.3-0.1V7C151.7,6.3,150.4,6.5,150.4,7.1z"/>
		<path class="st3" d="M140.7,171.6V162c0-0.7-1.3-0.5-1.3,0.1v9.6C139.4,172.4,140.7,172.2,140.7,171.6z"/>
		<path class="st3" d="M138.4,107.3v-7.8c0-0.6-1.3-0.4-1.3,0.1v7.8C137.1,108.1,138.4,107.8,138.4,107.3z"/>
		<text transform="matrix(1 0 0 1 115.6 78.01)" class="st5 st6 st7">401</text>
		<path class="st3" d="M64.6,192v5.7c0,0.4,1,0.2,1-0.1v-5.7C65.5,191.4,64.6,191.6,64.6,192z"/>
		<path class="st4" d="M59.4,196.8h14.3v-47.5c16.9-1.2,30.1-15.2,30.1-32.2c0-4.1-3.3-7.3-7.3-7.3c-4.1,0-7.3,3.3-7.3,7.3
			c0,8.9-6.6,16.3-15.4,17.5v-20.1c-0.1-4-3.5-7-7.4-6.9c-3.7,0.1-6.7,3.1-6.9,6.9v36.8c-7.6-2.1-12.9-9.1-12.8-17
			c0-4.1-3.3-7.3-7.3-7.3c-4.1,0-7.3,3.3-7.3,7.3c0,16,11.7,29.6,27.5,32V196.8z"/>
		<path class="st3" d="M58.6,166.2c0.6,0.6,0,4.2,0,5v19.4c0,1.9-0.2,4.1,0,6.2h1.5c-0.2-2.4,0-5,0-7.4v-23.2c0-0.3-0.2-0.6-0.5-0.7
			c-14.4-2.5-27.5-15.1-27-30.5c0.1-3.8,2.3-7.3,6.6-7.3c4.5,0,6.1,3.5,6.6,7.3c0.2,2.4,0.7,4.8,1.7,7c2.3,4.8,6.6,8.5,11.7,10
			c0.4,0.1,0.8-0.1,1-0.5c0-0.1,0-0.2,0-0.2v-34c0-3.1-0.1-6.5,3.2-8.3c4.6-2.7,9.2,1.1,9.6,5.8c0.1,0.9,0,1.8,0,2.7v17.2
			c0,0.4,0.3,0.8,0.8,0.8c0.1,0,0.2,0,0.2,0c5.5-0.8,10.4-4,13.3-8.8c1.2-2,2-4.3,2.4-6.7c0.5-3.2,0.1-6.5,3.5-8.5
			c4.6-2.7,9.5,0.8,9.9,5.7c-0.2,16.5-12.9,30.1-29.3,31.5c-0.4,0-0.7,0.3-0.8,0.8V195c0,0.6,0,1.2,0,1.8h1.6
			c0.2-2.6-0.1-5.3-0.1-7.8v-32.2c0-1.9-0.6-4.8,0-6.6c0.1-0.2,0.1-0.4,0.1-0.6c0.1,0,0.1,0,0.2-0.1c0.9-0.5,4.4-0.4,5.9-0.8
			c4.4-1.3,8.5-3.5,12-6.4c7.4-6.3,11.8-15.6,11.8-25.3c-0.6-6.4-7.7-10.8-13.2-6.3c-2.6,2.1-2.7,4.6-3,7.7c-0.3,3-1.3,5.9-3.1,8.4
			c-2.5,3.5-5.6,4.5-9.1,6.4c-1.7,0.9-1.3,1.5-1.7,0.4c-0.1-1.1-0.1-2.1,0-3.2v-10.2c0-4.6,0.7-9.9-3.9-12.6
			c-5.5-3.2-11.5,1-11.9,6.9c-0.3,4.1,0,8.4,0,12.5v19.2c0,1,0.5,3.8,0,4.7c0.4-0.6-2.6-1.8-3.7-2.6c-3.2-2.1-5.6-5.2-6.8-8.9
			c-1.2-3.6-0.2-7.4-2.8-10.5c-2.1-2.4-5.4-3.4-8.4-2.5c-7.8,2.1-6.3,11.7-4.5,17.5c3,9.8,10.4,17.6,20,21.2c1.2,0.6,2.6,1,3.9,1.2
			C55.2,166.3,59.2,166.8,58.6,166.2z"/>
		<path class="st3" d="M68.4,121.2v23.4c0,0.4,0.8,0.3,0.8-0.1v-23.4C69.2,120.8,68.4,120.9,68.4,121.2z"/>
		<path class="st3" d="M69.8,154.6v6.2c0,0.2,0.8,0.1,0.8-0.2v-6.2C70.6,154.2,69.8,154.3,69.8,154.6z"/>
		<path class="st3" d="M68.4,171.5v16.4c0,0.2,0.8,0,0.8-0.2v-16.4C69.2,171.1,68.4,171.3,68.4,171.5z"/>
		<path class="st3" d="M64.7,132.5v24.3c0,0.4,0.8,0.3,0.8-0.1v-24.3C65.5,132,64.7,132.1,64.7,132.5z"/>
		<path class="st3" d="M64.7,163.1v4.2c0,0.2,0.8,0.1,0.8-0.2v-4.2C65.5,162.6,64.7,162.8,64.7,163.1z"/>
		<path class="st3" d="M63.3,113.1v5.4c0,0.4,0.8,0.2,0.8-0.1V113C64.1,112.6,63.3,112.8,63.3,113.1z"/>
		<path class="st3" d="M54.4,155.1c-6.7-5.4-12.4-12.6-12-21.6c0-0.2-0.8,0-0.8,0.2c-0.5,9,5.3,16.3,12,21.7
			C53.8,155.5,54.6,155.2,54.4,155.1z"/>
		<path class="st3" d="M47.5,154.3c-1.8-1.4-3.2-3.3-4.2-5.3c-0.2-0.3-1-0.1-0.8,0.2c1,2.1,2.5,3.9,4.3,5.4
			C47,154.9,47.7,154.5,47.5,154.3z"/>
		<path class="st3" d="M41.8,152.9c-4.6-5-7-11.7-6.7-18.5c0-0.4-0.8-0.3-0.8,0.1c-0.3,6.9,2.1,13.7,6.7,18.8
			C41.3,153.6,42.1,153.2,41.8,152.9z"/>
		<path class="st3" d="M93.1,118.2c-1,4.9-3.2,9.4-6.3,13.3c0.3,0.1,0.6,0,0.8-0.1c3.1-3.9,5.2-8.5,6.3-13.4
			C93.9,117.8,93.1,118,93.1,118.2z"/>
		<path class="st3" d="M79.7,136c-0.9,1.2-2.3,1.7-3.7,1.6c-0.4-0.1-0.8,0.5-0.3,0.6c1.8,0.3,3.6-0.5,4.7-1.9
			C80.7,135.9,80,135.7,79.7,136z"/>
		<path class="st3" d="M97.9,113.2c0-0.2-0.8,0-0.8,0.2c0.4,2.9-0.2,5.9-1.7,8.4c-0.1,0.1,0.7,0.1,0.8-0.1
			C97.7,119.1,98.3,116.1,97.9,113.2z"/>
		<path class="st3" d="M99.6,122.9C96,133.5,87,141.4,75.9,143.4c-0.4,0.1-0.7,0.6-0.1,0.5c11.4-2,20.9-10.1,24.6-21.1
			C100.5,122.5,99.7,122.6,99.6,122.9z"/>
		<path class="st3" d="M62.9,183v10.7c0,0.2,1,0.1,1-0.3v-10.7C63.8,182.5,62.9,182.6,62.9,183z"/>
		<path class="st4" d="M102.6,207.6c0,1.1-1.1,2-1.8,2.6c-0.3,0.3-0.3,0.7,0,1c1.7,1.4,4.2,3.4,3.6,5.9c-0.9,3.5-5.5,1.1-7.3-0.1
			c-0.3-0.2-0.6-0.1-0.9,0.1l-31.6,7.7c-0.3,0.1-0.5,0.3-0.5,0.6c0,0.1-0.1,0.2-0.1,0.3c0,2.6-2.2,4.7-4.8,4.6
			c-0.4,0-0.7-0.1-1.1-0.1c-1.8-0.5-3.4-2.1-2.7-4.1c0.6-1.6,2.2-2.6,3.6-3.4c0.4-0.2,0.5-0.7,0.3-1c-0.1-0.2-0.3-0.3-0.6-0.4
			c-1.4,0-2.8-0.4-3.9-1.2c-1.8-1.2-2.3-3.5-0.3-4.9c2.6-1.8,5.5,0.3,7.5,2.2c-0.3,0.3-0.3,0.8,0,1.1c0.2,0.2,0.4,0.3,0.7,0.2
			l32.5-7.9c0.3,0.2,0.7,0,0.9-0.3c0,0,0,0,0-0.1c0.2-0.2,0.2-0.4,0.2-0.7c0.4-1.6,1.5-2.9,3-3.6
			C100.2,205.7,102.5,205.4,102.6,207.6z"/>
		<path class="st3" d="M94.7,209.4L63.5,217c-2.7-2.8-8-6.1-11-1.9c-2.6,3.5,0.8,6.4,4.2,7.4c-1.5,0.9-2.6,2.4-2.9,4.2
			c-0.1,2.1,1.1,4,3.1,4.7c3.1,1.3,6.8-0.2,8.1-3.3c0.3-0.6,0.4-1.3,0.5-1.9l31.1-7.6l0.1-0.1c2.6,1.5,6.8,3.3,8.7,0
			c1.7-3.1-0.6-5.9-2.9-7.9c1.1-0.9,1.7-2.3,1.6-3.6c-0.2-1.4-1.3-2.5-2.6-2.6C98.3,203.9,95.5,206.5,94.7,209.4z M102.6,207.6
			c0,1.1-1.1,2-1.8,2.6c-0.3,0.3-0.3,0.7,0,1c1.7,1.4,4.2,3.4,3.6,5.9c-0.9,3.5-5.5,1.1-7.3-0.1c-0.3-0.2-0.6-0.1-0.9,0.1l-31.6,7.7
			c-0.3,0.1-0.5,0.3-0.5,0.6c0,0.1-0.1,0.2-0.1,0.3c0,2.6-2.2,4.7-4.8,4.6c-0.4,0-0.7-0.1-1.1-0.1c-1.8-0.5-3.4-2.1-2.7-4.1
			c0.6-1.6,2.2-2.6,3.6-3.4c0.4-0.2,0.5-0.7,0.3-1c-0.1-0.2-0.3-0.3-0.6-0.4c-1.4,0-2.8-0.4-3.9-1.2c-1.8-1.2-2.3-3.5-0.3-4.9
			c2.6-1.8,5.5,0.3,7.5,2.2c-0.3,0.3-0.3,0.8,0,1.1c0.2,0.2,0.4,0.3,0.7,0.2l32.5-7.9c0.3,0.2,0.7,0,0.9-0.3c0,0,0,0,0-0.1
			c0.2-0.2,0.2-0.4,0.2-0.7c0.4-1.6,1.5-2.9,3-3.6C100.2,205.7,102.5,205.4,102.6,207.6z"/>
		<path class="st3" d="M62.8,221.5l21.3-5.2c0.5-0.1,0-1.1-0.4-1l-21.3,5.2C61.9,220.6,62.4,221.6,62.8,221.5z"/>
		<path class="st3" d="M87.8,215.6l3.6-0.9c0.2,0-0.2-1.1-0.5-1l-3.6,0.9C87.1,214.7,87.5,215.7,87.8,215.6z"/>
		<path class="st3" d="M99.1,153.2c-0.1-1.5,1.1-2.9,2.6-3s2.9,1.1,3,2.6c0,0.1,0,0.2,0,0.3c0,3.4,2.5,6.2,5.9,6.7v-7.7
			c0-1.5,1.2-2.7,2.7-2.7l0,0l0,0c1.5,0,2.7,1.2,2.7,2.7v14c2.9-0.8,4.9-3.5,4.9-6.5c0-1.5,1.3-2.8,2.8-2.8c1.5,0,2.8,1.3,2.8,2.8
			c0,6.1-4.4,11.4-10.5,12.3v11.9c0,1.5-1.2,2.7-2.7,2.7l0,0c-1.5,0-2.7-1.2-2.7-2.7v-18.4C104.1,165.1,99.1,159.7,99.1,153.2z"/>
		<path class="st3" d="M240.9,176.3c-0.2-1.4,0.8-2.6,2.2-2.8c1.4-0.2,2.6,0.8,2.8,2.2c0,0.2,0,0.4,0,0.6c0,3,2.3,5.6,5.3,6v-6.9
			c0-1.4,1.1-2.5,2.5-2.4l0,0c1.4,0,2.4,1.1,2.4,2.4V188c2.6-0.7,4.4-3.1,4.4-5.8c-0.2-1.4,0.8-2.6,2.2-2.8c1.4-0.2,2.6,0.8,2.8,2.2
			c0,0.2,0,0.4,0,0.6c0,5.5-4,10.2-9.4,11v10.7c0,1.4-1.1,2.5-2.4,2.5l0,0c-1.4,0-2.5-1.1-2.5-2.5v0v-16.5
			C245.4,186.9,240.9,182.1,240.9,176.3z"/>
		<path class="st4" d="M250.9,140.7c-3.3,0-6,2.7-6,6v0.3c0,5.2-4.2,9.4-9.4,9.4H232v-32.3c0-3.8-3.1-6.9-6.9-6.9s-6.9,3.1-6.9,6.9
			c0,0,0,0,0,0v17.8c-3.6-0.2-6.5-3.2-6.5-6.8v-0.9c0-3.3-2.7-6-6-6s-6,2.7-6,6v0.9c0,10.3,8.2,18.7,18.4,18.9v15.9h-3.8
			c-5.2,0-9.4-4.2-9.4-9.4c0-3.3-2.7-6-6-6s-6,2.7-6,6c0,11.8,9.6,21.4,21.4,21.4h3.8v13.2H232v-26.7h3.5c11.8,0,21.3-9.6,21.3-21.4
			v-0.3C256.9,143.4,254.2,140.7,250.9,140.7C250.9,140.7,250.9,140.7,250.9,140.7z"/>
		<path class="st3" d="M251.2,140c-0.1,0-0.2-0.1-0.3-0.1c-0.1,0-0.2,0-0.3,0.1c-2.6,0.2-4.9,1.8-5.9,4.1c-0.7,1.7-0.3,3.4-0.8,5.1
			c-1.1,4-4.7,6.1-8.6,6.4c-0.9,0.1-2.3-0.4-2.6,0c0-0.4,0.1-0.7,0.1-0.9c0.2-2.6,0-5.2,0-7.8v-19.2c0-4.4,0-9-5-10.8
			c-5.4-2-10,2.4-10.2,7.7c-0.1,2.6,0,5.3,0,7.9c0,2,0.9,7,0,8.9c0,0,0,0,0,0.1c0,0-0.1,0-0.1,0c-0.7,0.2-3.9-3-4.2-3.4
			c-1.2-2.1-0.4-4.3-1.3-6.4c-1-2.5-3.5-4.2-6.2-4.2c-8.1,0-7.4,9.9-5.2,15.1c1.3,3.1,3.4,5.9,6.1,8c1.3,1,2.7,1.9,4.3,2.5
			c1.1,0.5,2.3,0.9,3.5,1.1c0,0,3.4,0.5,2.9,0.1c0.2,0.2,0.3,0.6,0.3,1.8v4c0,2.7,0.7,6.5,0,9.1c-0.4,0-0.8,0-1.2-0.1
			c-2.2-0.3-4.1,0.1-6.3-1.2c-5.4-3.2-2.5-9.7-7.1-13c-6.1-4.3-11.1,2.3-10.4,8.1c1,7.8,6,14.5,13.1,17.7c3.3,1.3,6.8,1.9,10.3,1.8
			h1.7c0,1,0,2.1-0.1,3.1c0,2.6-0.5,6.2-0.2,9.4h1.6c-0.2-4.4,0-8.8,0-13.2c0-0.4-0.3-0.7-0.7-0.7c-5,0-9.8-0.2-14.3-2.8
			c-6-3.5-12.4-12.5-9.5-19.7c0.4-2.2,1.9-3.4,4.5-3.4c3.2,0.3,5,2.1,5.3,5.3c0.3,1.1,0.2,2.1,0.6,3.2c0.6,1.9,1.8,3.5,3.4,4.7
			c3,2.3,6.4,2.1,10,2.1c0.4,0,0.7-0.3,0.7-0.7V154c0-0.4-0.3-0.7-0.7-0.7c-8.9-0.5-19.8-8.9-17.8-19.1c0.3-2.8,2.5-5,5.3-5.3
			c3.7-0.5,4.8,3.3,5.3,5.8c0.1,1,0.2,2,0.5,3c1.1,2.8,3.6,4.7,6.5,4.9c0.4,0.1,0.8-0.1,0.9-0.5c0-0.1,0-0.1,0-0.2v-15.2
			c0-4,1-8.8,6.2-8.8c4.8,0,6.2,4.4,6.2,8.2v30.2c0,0.4,0.3,0.7,0.7,0.7c3.5,0,6.8,0.1,9.7-2.2c1.7-1.3,2.9-3.2,3.5-5.2
			c1-3.7,0.1-7.7,5.7-8.3c11.2,1.1,2.5,17.4-1.6,21.1c-5,4.4-10.8,5.2-17.2,5.2c-0.4,0-0.7,0.3-0.7,0.7v26.1c0,0.2,0,0.4,0,0.6h1.6
			c0.4-4.4-0.2-9.3-0.2-13.6v-9.7c-0.1-0.9-0.1-1.8-0.1-2.6c0.3,0.2,1.3-0.1,2-0.1c8.6-0.1,16.5-4.2,20.6-12
			C258.1,151.3,259.8,141.1,251.2,140z"/>
		<path class="st3" d="M227.8,146.7v21.1c0,0.2,0.9,0.1,0.9-0.2v-21.1C228.6,146.2,227.8,146.4,227.8,146.7z"/>
		<path class="st3" d="M223.4,154.7v6.1c0,0.4,0.9,0.2,0.9-0.1v-6.1C224.3,154.2,223.4,154.4,223.4,154.7z"/>
		<path class="st3" d="M223.9,171.8v13.8c0,0.1,0.9,0,0.9-0.2v-13.8C224.8,171.4,223.9,171.6,223.9,171.8z"/>
		<path class="st3" d="M226.4,122v9.8c0,0.2,0.9,0,0.9-0.2v-9.8C227.2,121.6,226.4,121.7,226.4,122z"/>
		<path class="st3" d="M222.1,127v2.8c0,0.4,0.9,0.2,0.9-0.1V127C223.1,126.5,222.1,126.7,222.1,127z"/>
		<path class="st3" d="M249.4,149.1c-1.2,2.8-2.4,5.8-4.6,8c-3,3-6.8,3.1-10.8,2.9c-0.4,0-0.9,0.6-0.3,0.6c3.5,0.2,7.1,0.3,10.1-1.8
			c3.3-2.3,5-6.1,6.6-9.6C250.5,148.7,249.6,148.7,249.4,149.1z"/>
		<path class="st3" d="M251.7,153.9c-0.7,1.9-1.9,3.6-3.4,4.9c-0.2,0.2,0.6,0.1,0.8,0c1.5-1.4,2.7-3.1,3.5-5
			C252.7,153.5,251.8,153.6,251.7,153.9z"/>
		<path class="st3" d="M228.6,195.1v-13.1c0-0.5-0.9-0.4-0.9,0.1v13.1H228.6z"/>
		<path class="st3" d="M228.2,175.7v1.9c0,0.5,0.9,0.4,0.9-0.1v-1.9C229.1,175.2,228.2,175.3,228.2,175.7z"/>
		<path class="st3" d="M213.1,173.1c-6.4-0.8-11.4-5.9-12.1-12.3c0-0.3-0.9-0.1-0.9,0.2c0.8,6.5,5.9,11.7,12.5,12.5
			C212.8,173.7,213.6,173.2,213.1,173.1z"/>
		<path class="st3" d="M212.2,176.7c-0.8,0-1.6-0.1-2.3-0.4c-0.4-0.2-1,0.4-0.5,0.6c0.9,0.4,1.8,0.5,2.8,0.5
			C212.6,177.4,212.8,176.7,212.2,176.7z"/>
		<path class="st3" d="M211.4,148c-2,0-4.5-3.4-5.6-4.9c-1.8-2.2-2.6-5-2.3-7.8c0.1-0.3-0.9-0.2-0.9,0.1c-0.4,3,0.6,6,2.6,8.3
			c1.3,1.7,3.4,4.7,5.8,4.7C211.4,148.5,212,148.1,211.4,148z"/>
		<path class="st3" d="M212,142.6c-1.5-0.3-2.6-1.4-2.8-2.9c0-0.2-0.9,0-0.9,0.2c0.2,1.5,1.5,2.8,3,3c0.2,0,0.4,0,0.6-0.1
			C212,142.8,212.2,142.6,212,142.6z"/>
		<path class="st3" d="M220.8,139v8.4c0,0.2,0.9,0.1,0.9-0.2v-8.4C221.7,138.5,220.8,138.7,220.8,139z"/>
		<path class="st3" d="M228,136.8v3.3c0,0.4,0.9,0.2,0.9-0.1v-3.3C228.9,136.3,228,136.5,228,136.8z"/>
		<path class="st2" d="M30.3,179.5c-1.1,0-2.1,0.9-2.1,2.1v0.1c0,1.8-1.4,3.2-3.2,3.2c0,0,0,0,0,0h-1.2v-11.1c0-1.3-1.1-2.4-2.4-2.4
			c0,0,0,0,0,0l0,0c-1.3,0-2.4,1.1-2.4,2.4l0,0v6.1c-1.2-0.1-2.2-1.1-2.2-2.3v-0.3c0.1-1.1-0.8-2.1-1.9-2.2
			c-1.1-0.1-2.1,0.8-2.2,1.9c0,0.1,0,0.2,0,0.3v0.3c0,3.5,2.8,6.4,6.3,6.4v5.4h-1.3c-1.8,0-3.2-1.4-3.2-3.2l0,0
			c0-1.1-0.9-2.1-2.1-2.1c-1.1,0-2.1,0.9-2.1,2.1c0,4,3.3,7.3,7.3,7.3h1.3v5c0,1.3,1,2.4,2.3,2.4c0,0,0.1,0,0.1,0l0,0
			c1.3,0,2.4-1.1,2.4-2.4l0,0V189h1.2c4,0,7.3-3.3,7.3-7.3v-0.1C32.4,180.4,31.5,179.5,30.3,179.5C30.4,179.5,30.3,179.5,30.3,179.5
			z"/>
		<path class="st4" d="M249.6,218.8c-1-0.2-1.9-0.1-2.9,0.2l-0.4,0.1c0.5-1.5,0.9-3,1.2-4.6c0.1-0.2,0-0.4-0.2-0.4
			c-0.1,0-0.2,0-0.2,0c-1.1,0.6-2.2,1.3-3.2,2.1c-0.2-2.4-1.7-4.6-2.8-6.7c-0.1-0.2-0.3-0.2-0.5-0.1c0,0-0.1,0.1-0.1,0.1
			c-1,1.6-1.7,3.3-2.2,5.1c-0.2-0.3-0.5-0.6-0.7-0.9c-0.5-0.6-1.7-1.8-2.6-1.6s-0.5,1.8-0.5,2.5c0.1,1.3,0.3,2.5,0.6,3.8
			c-1.3,0.1-2.5,0.5-3.7,1c-1.2,0.6-1.7,1-0.6,2c2.4,2.2,5.2,4.4,8.6,4.4l0,0c0,0,0.1,0,0.1,0.1c0.1,0.1,0.2,0.1,0.3,0
			c0.2,0,0.4-0.1,0.5-0.2c3.9-0.8,7.2-3,10.4-5.2C252.1,219.5,250.5,219,249.6,218.8z"/>
		<path class="st3" d="M249.6,218.8c-1-0.2-1.9-0.1-2.9,0.2l-0.4,0.1c0.5-1.5,0.9-3,1.2-4.6c0.1-0.2,0-0.4-0.2-0.4
			c-0.1,0-0.2,0-0.2,0c-1.1,0.6-2.2,1.3-3.2,2.1c-0.2-2.4-1.7-4.6-2.8-6.7c-0.1-0.2-0.3-0.2-0.5-0.1c0,0-0.1,0.1-0.1,0.1
			c-1,1.6-1.7,3.3-2.2,5.1c-0.2-0.3-0.5-0.6-0.7-0.9c-0.5-0.6-1.7-1.8-2.6-1.6s-0.5,1.8-0.5,2.5c0.1,1.3,0.3,2.5,0.6,3.8
			c-1.3,0.1-2.5,0.5-3.7,1c-1.2,0.6-1.7,1-0.6,2c2.4,2.2,5.2,4.4,8.6,4.4l0,0c0,0,0.1,0,0.1,0.1c0.1,0.1,0.2,0.1,0.3,0
			c0.2,0,0.4-0.1,0.5-0.2c3.9-0.8,7.2-3,10.4-5.2C252.1,219.5,250.5,219,249.6,218.8z M232.8,222.2c-0.6-0.4-1.1-0.9-1.6-1.4
			c-0.2-0.3-0.3-0.2-0.1-0.5c0.1-0.2,0.6-0.3,0.8-0.4c1.1-0.5,2.3-0.8,3.4-0.9v0.1c0.5,1.6,1.2,3.1,2.1,4.4c-1.5-0.7-2.8-1.7-3.8-3
			c-0.1-0.1-0.3,0-0.2,0.1c1.2,1.4,2.6,2.5,4.3,3.3c0.3,0.4,0.6,0.8,1,1.1C236.5,224.7,234.4,223.7,232.8,222.2z M239.8,224.7
			c-1-2.9-2-5.7-2.9-8.6c0-0.1-0.3-0.1-0.3,0.1c0.9,2.9,1.9,5.8,2.9,8.7c0,0,0.1,0.1,0.1,0.1c0,0,0,0-0.1,0.1
			c-0.3-0.3-0.6-0.5-0.8-0.8c0,0,0-0.1,0-0.1l0,0c-1.1-1.2-1.9-2.6-2.4-4.1c-0.2-0.4-0.3-0.9-0.4-1.4c0,0,0-0.1,0-0.1
			c-0.2-0.6-0.3-1.3-0.4-1.9s-0.2-1.1-0.2-1.7c0-0.4-0.1-0.7-0.1-1.1s-0.2-0.7,0.2-0.8c0.9-0.3,2.2,1.6,2.6,2.2c0.6,1,1,2,1.3,3.1
			c0.2,0.8,0.4,1.7,0.6,2.6c0,0,0,0.1,0,0.1C240.1,222.3,240,223.5,239.8,224.7L239.8,224.7z M240.6,219.6v-1.2c0-0.5,0-1,0.1-1.5
			c0.1-1,0.1-2,0.3-3.1c0-0.1-0.2-0.1-0.3,0c-0.1,1.2-0.3,2.4-0.3,3.6c0,0.5,0,1,0,1.6c0,0.3,0,0.6,0,0.9c-0.2-1-0.5-1.9-0.8-2.8
			c-0.2-0.5-0.4-1-0.6-1.4c0.3-1.8,1-3.5,1.9-5.1c1.1,2,2.5,4.1,2.4,6.4c-1,0.9-1.9,1.8-2.6,2.9
			C240.7,219.6,240.6,219.6,240.6,219.6L240.6,219.6z M240.4,225c0.1-0.4,0.2-0.7,0.2-1.1c1.5-1.7,2.8-3.5,4-5.4
			c0.1-0.1-0.2-0.2-0.2-0.1c-1.1,1.8-2.4,3.4-3.7,5c0.1-0.9,0-1.7-0.1-2.6c0.9-1.3,2-2.6,3.2-3.6c0.1,0,0.2-0.1,0.2-0.2
			c0.9-0.8,1.8-1.4,2.9-2c-0.3,1.5-0.7,3-1.2,4.4c-0.1,0.1-0.2,0.2-0.2,0.3c0,0.1,0,0.1,0,0.2c-0.2,0.3-0.3,0.6-0.5,0.9
			c-0.6,0.9-1.4,1.7-2.2,2.4c-0.4,0.3-0.7,0.6-1.1,0.9C241.2,224.3,240.7,224.8,240.4,225L240.4,225z M250.1,220.2l-0.7,0.5
			c-0.6,0.4-1.3,0.9-1.9,1.3c-1.8,1.2-3.7,2.1-5.8,2.8l0.1-0.1c0.5-0.4,1.1-0.9,1.6-1.3c1.5-1.1,3-2,4.5-2.9c0.1-0.1-0.1-0.1-0.2,0
			c-1.2,0.7-2.5,1.5-3.6,2.3c0.2-0.2,0.4-0.4,0.6-0.6c0.5-0.6,0.9-1.2,1.2-1.9c0.1,0,0.1-0.1,0.1-0.2V220c0,0,0-0.1,0-0.1l0,0
			c0.7-0.3,1.5-0.5,2.2-0.5c0.7-0.1,1.5,0,2.2,0.3l0.3,0.1L250.1,220.2z"/>
		<path class="st4" d="M44.6,226.5c-1-0.2-1.9-0.1-2.9,0.2l-0.4,0.1c0.5-1.5,0.8-3,1.2-4.6c0.1-0.2,0-0.4-0.2-0.4
			c-0.1,0-0.2,0-0.2,0c-1.1,0.6-2.2,1.3-3.2,2.1c-0.2-2.4-1.7-4.6-2.8-6.7c-0.1-0.2-0.3-0.2-0.5-0.1c0,0-0.1,0.1-0.1,0.1
			c-1,1.6-1.7,3.3-2.2,5.1c-0.2-0.3-0.5-0.6-0.7-0.9c-0.5-0.6-1.7-1.8-2.6-1.6s-0.5,1.8-0.5,2.5c0.1,1.3,0.3,2.5,0.6,3.8
			c-1.3,0.1-2.5,0.5-3.7,1c-1.2,0.6-1.7,1-0.6,2c2.5,2.2,5.2,4.4,8.6,4.4l0,0c0,0,0.1,0,0.1,0.1c0.1,0.1,0.2,0.1,0.3,0
			c0.2,0,0.4-0.1,0.5-0.2c3.8-0.8,7.2-3,10.3-5.2C47.2,227.2,45.6,226.7,44.6,226.5z"/>
		<path class="st3" d="M44.6,226.5c-1-0.2-1.9-0.1-2.9,0.2l-0.4,0.1c0.5-1.5,0.8-3,1.2-4.6c0.1-0.2,0-0.4-0.2-0.4
			c-0.1,0-0.2,0-0.2,0c-1.1,0.6-2.2,1.3-3.2,2.1c-0.2-2.4-1.7-4.6-2.8-6.7c-0.1-0.2-0.3-0.2-0.5-0.1c0,0-0.1,0.1-0.1,0.1
			c-1,1.6-1.7,3.3-2.2,5.1c-0.2-0.3-0.5-0.6-0.7-0.9c-0.5-0.6-1.7-1.8-2.6-1.6s-0.5,1.8-0.5,2.5c0.1,1.3,0.3,2.5,0.6,3.8
			c-1.3,0.1-2.5,0.5-3.7,1c-1.2,0.6-1.7,1-0.6,2c2.5,2.2,5.2,4.4,8.6,4.4l0,0c0,0,0.1,0,0.1,0.1c0.1,0.1,0.2,0.1,0.3,0
			c0.2,0,0.4-0.1,0.5-0.2c3.8-0.8,7.2-3,10.3-5.2C47.2,227.2,45.6,226.7,44.6,226.5z M27.9,229.9c-0.6-0.4-1.1-0.9-1.6-1.4
			c-0.2-0.3-0.3-0.2-0.1-0.5c0.1-0.2,0.6-0.3,0.8-0.4c1.1-0.5,2.3-0.8,3.4-0.9v0.1c0.5,1.6,1.2,3.1,2.1,4.4c-1.5-0.7-2.8-1.7-3.8-3
			c-0.1-0.1-0.3,0-0.2,0.1c1.2,1.4,2.6,2.5,4.3,3.3c0.3,0.4,0.6,0.8,1,1.1C31.6,232.4,29.5,231.4,27.9,229.9z M34.9,232.4
			c-1-2.8-2-5.7-2.9-8.6c0-0.1-0.3-0.1-0.3,0.1c0.9,2.9,1.9,5.8,3,8.7c1.6,4.3,0.1,0.1,0.1,0.1c0,0,0,0-0.1,0.1
			c-0.3-0.3-0.6-0.5-0.8-0.8l0,0l0,0c-1.1-1.2-1.9-2.6-2.5-4.1c-0.2-0.4-0.3-0.9-0.4-1.4c0,0,0-0.1,0-0.1c-0.2-0.6-0.3-1.3-0.4-1.9
			s-0.2-1.1-0.2-1.7c0-0.4,0-0.7-0.1-1.1s-0.2-0.7,0.2-0.8c0.9-0.3,2.2,1.6,2.6,2.2c0.6,1,1,2,1.3,3.1c0.2,0.8,0.4,1.7,0.5,2.6
			c0,0,0,0.1,0,0.1C35.2,230,35.1,231.2,34.9,232.4L34.9,232.4z M35.7,227.3V226c0-0.5,0-1,0.1-1.5c0.1-1,0.2-2,0.3-3.1
			c0-0.1-0.2-0.1-0.3,0c-0.2,1.2-0.3,2.4-0.3,3.6c0,0.5,0,1,0,1.6c0,0.3,0,0.6,0,0.9c-0.2-1-0.5-1.9-0.8-2.8c-0.2-0.5-0.4-1-0.6-1.4
			c0.3-1.8,1-3.5,1.9-5.1c1.1,2,2.5,4.1,2.4,6.4C37.5,225.3,36.6,226.3,35.7,227.3C35.7,227.3,35.7,227.3,35.7,227.3L35.7,227.3z
			 M35.5,232.8c0.1-0.4,0.2-0.7,0.2-1.1c1.5-1.7,2.8-3.5,4-5.4c0.1-0.1-0.2-0.2-0.2-0.1c-1.1,1.8-2.4,3.4-3.7,5
			c0.1-0.9,0-1.7-0.1-2.6c0.9-1.3,2-2.5,3.2-3.6c0.1,0,0.2-0.1,0.2-0.2c0.9-0.8,1.8-1.4,2.8-2c-0.3,1.5-0.7,3-1.2,4.4
			c-0.1,0.1-0.2,0.2-0.2,0.3c0,0.1,0,0.1,0,0.2c-0.2,0.3-0.3,0.6-0.5,0.9c-0.6,0.9-1.4,1.7-2.2,2.4c-0.4,0.3-0.7,0.6-1.1,0.9
			C36.3,232,35.8,232.5,35.5,232.8L35.5,232.8z M45.2,227.9l-0.7,0.5c-0.7,0.4-1.3,0.9-2,1.3c-1.8,1.2-3.7,2.1-5.8,2.8h0.1
			c0.5-0.4,1.1-0.9,1.6-1.3c1.4-1.1,3-2.1,4.5-3c0.1-0.1-0.1-0.1-0.2,0c-1.2,0.7-2.5,1.5-3.7,2.3c0.2-0.2,0.4-0.4,0.6-0.6
			c0.5-0.6,0.9-1.2,1.2-1.9c0.1,0,0.1-0.1,0.1-0.2v-0.1c0,0,0-0.1,0-0.1l0,0c0.7-0.3,1.5-0.5,2.2-0.5c0.7-0.1,1.5,0,2.2,0.3l0.3,0.1
			L45.2,227.9z"/>
		<path class="st4" d="M161.2,201.7c-1.5-0.3-3.1-0.3-4.6,0.1L156,202c0.9-2.4,1.6-4.8,2.2-7.2c0.1-0.3-0.1-0.6-0.3-0.7
			c-0.1,0-0.3,0-0.4,0c-1.9,0.9-3.6,2-5.2,3.2c-0.2-3.8-2.5-7.5-4.1-10.9c-0.1-0.3-0.4-0.4-0.7-0.2c-0.1,0-0.1,0.1-0.2,0.2
			c-1.7,2.5-3,5.2-3.7,8.1c-0.3-0.5-0.7-1.1-1.1-1.5c-0.9-1-2.7-3-4.1-2.7s-1,2.9-0.9,4c0.1,2,0.3,4.1,0.7,6.1
			c-2.1,0.1-4.1,0.6-6,1.4c-2,0.9-2.7,1.5-1,3.1c3.8,3.7,8.1,7.3,13.7,7.5l0,0c0.1,0.1,0.1,0.1,0.2,0.1c0.2,0.1,0.3,0.1,0.5,0.1
			c0.3,0,0.6-0.1,0.9-0.2c6.2-1,11.8-4.4,16.9-7.9C165.4,202.9,162.8,202,161.2,201.7z"/>
		<path class="st3" d="M161.2,201.7c-1.5-0.3-3.1-0.3-4.6,0.1L156,202c0.9-2.4,1.6-4.8,2.2-7.2c0.1-0.3-0.1-0.6-0.3-0.7
			c-0.1,0-0.3,0-0.4,0c-1.9,0.9-3.6,2-5.2,3.2c-0.2-3.8-2.5-7.5-4.1-10.9c-0.1-0.3-0.4-0.4-0.7-0.2c-0.1,0-0.1,0.1-0.2,0.2
			c-1.7,2.5-3,5.2-3.7,8.1c-0.3-0.5-0.7-1.1-1.1-1.5c-0.9-1-2.7-3-4.1-2.7s-1,2.9-0.9,4c0.1,2,0.3,4.1,0.7,6.1
			c-2.1,0.1-4.1,0.6-6,1.4c-2,0.9-2.7,1.5-1,3.1c3.8,3.7,8.1,7.3,13.7,7.5l0,0c0.1,0.1,0.1,0.1,0.2,0.1c0.2,0.1,0.3,0.1,0.5,0.1
			c0.3,0,0.6-0.1,0.9-0.2c6.2-1,11.8-4.4,16.9-7.9C165.4,202.9,162.8,202,161.2,201.7z M134.1,206.3c-0.9-0.7-1.7-1.5-2.5-2.3
			c-0.4-0.5-0.5-0.3-0.1-0.8c0.2-0.3,1-0.4,1.3-0.6c1.8-0.7,3.7-1.1,5.6-1.2c0,0.1,0,0.1,0.1,0.2c0.6,2.6,1.7,5,3.2,7.2
			c-2.3-1.2-4.4-2.9-6-5c-0.1-0.1-0.5,0-0.4,0.1c1.8,2.3,4.1,4.2,6.8,5.5c0.5,0.6,1,1.3,1.5,1.9
			C139.9,210.7,136.8,208.7,134.1,206.3L134.1,206.3z M145.2,210.7c-1.5-4.6-2.9-9.3-4.2-14c-0.1-0.2-0.5-0.1-0.4,0.1
			c1.3,4.8,2.8,9.5,4.3,14.2c0,0.1,0.1,0.1,0.2,0.1s-0.1,0-0.1,0.1c-0.5-0.4-0.9-0.9-1.3-1.4c0,0,0-0.1-0.1-0.1l0,0
			c-1.7-2-3-4.2-3.8-6.7c-0.2-0.7-0.5-1.5-0.6-2.2c0-0.1,0-0.1-0.1-0.2c-0.2-1-0.4-2-0.5-3.1s-0.2-1.8-0.2-2.8c0-0.6,0-1.1-0.1-1.7
			s-0.3-1.1,0.4-1.3c1.4-0.4,3.4,2.6,4.1,3.6c0.9,1.6,1.5,3.3,1.9,5.1c0.3,1.3,0.6,2.7,0.8,4.2c0,0.1,0,0.2,0,0.2
			C145.7,206.7,145.6,208.8,145.2,210.7L145.2,210.7z M146.7,202.4V202c0-0.5,0-1.1,0.1-1.6c0-0.8,0.1-1.6,0.2-2.5
			c0.1-1.6,0.4-3.3,0.6-4.9c0-0.2-0.4-0.2-0.4,0c-0.3,1.9-0.5,3.8-0.7,5.7c-0.1,0.8-0.1,1.7-0.1,2.5c-0.1,0.5-0.1,0.9-0.1,1.4
			c-0.3-1.5-0.6-3.1-1.1-4.5c-0.3-0.8-0.6-1.6-0.9-2.3c0.6-2.9,1.8-5.6,3.4-8.1c1.6,3.2,3.8,6.8,3.6,10.4c-1.6,1.3-3.1,2.9-4.4,4.5
			C146.8,202.5,146.7,202.5,146.7,202.4L146.7,202.4z M146.1,211.2c0.2-0.6,0.3-1.2,0.4-1.8c2.5-2.6,4.7-5.5,6.7-8.5
			c0.1-0.2-0.3-0.3-0.4-0.1c-1.9,2.8-4,5.5-6.3,7.9c0.1-1.4,0.1-2.8,0-4.2c1.5-2.1,3.3-4,5.3-5.7c0.1,0,0.3-0.1,0.3-0.3
			c1.5-1.2,3-2.2,4.7-3.1c-0.5,2.4-1.3,4.7-2.2,7c-0.2,0.1-0.3,0.3-0.4,0.5c0,0.1,0,0.2,0,0.3c-0.3,0.5-0.6,1-0.9,1.4
			c-1.1,1.4-2.3,2.7-3.7,3.8c-0.6,0.5-1.2,1-1.9,1.4C147.6,210.1,146.7,210.8,146.1,211.2L146.1,211.2z M162.1,203.9l-1.2,0.8
			c-1.1,0.7-2.1,1.4-3.2,2c-2.9,1.8-6.1,3.2-9.4,4.1l0.1-0.1c0.9-0.6,1.8-1.3,2.6-2c2.4-1.6,4.9-3.1,7.4-4.5
			c0.2-0.1-0.2-0.1-0.3-0.1c-2,1.1-4,2.3-6,3.5c0.3-0.3,0.6-0.7,1-1c0.8-0.9,1.5-1.9,2-3c0.1-0.1,0.2-0.1,0.2-0.3v-0.1
			c0,0,0-0.1,0-0.1l0,0c1.1-0.4,2.4-0.7,3.6-0.7c1,0,2.7,0,3.5,0.6l0.5,0.1L162.1,203.9z"/>
		<path class="st4" d="M146.9,199.2c-1.2,0.2-2.4,0.7-3.4,1.4l-0.4,0.3c0-2-0.1-4-0.3-6c0-0.2-0.2-0.4-0.4-0.4c-0.1,0-0.2,0-0.3,0.1
			c-1.1,1.2-2.1,2.5-3,3.9c-1.2-2.8-3.9-4.9-6.1-7c-0.2-0.2-0.4-0.1-0.6,0c0,0-0.1,0.1-0.1,0.2c-0.6,2.3-0.8,4.7-0.6,7.1
			c-0.4-0.3-0.8-0.6-1.3-0.8c-0.9-0.5-2.8-1.5-3.8-0.9s0.1,2.4,0.4,3.2c0.6,1.5,1.4,3,2.2,4.3c-1.5,0.7-2.9,1.6-4.1,2.7
			c-1.3,1.2-1.6,1.8,0.1,2.6c3.9,1.7,8.1,3.2,12.3,1.8l0,0c0.1,0,0.1,0,0.2,0c0.1,0,0.3,0,0.4-0.1c0.2-0.1,0.4-0.2,0.6-0.4
			c4.4-2.5,7.6-6.5,10.5-10.6C150.4,199,148.2,199,146.9,199.2z"/>
		<path class="st3" d="M146.9,199.2c-1.2,0.2-2.4,0.7-3.4,1.4l-0.4,0.3c0-2-0.1-4-0.3-6c0-0.2-0.2-0.4-0.4-0.4c-0.1,0-0.2,0-0.3,0.1
			c-1.1,1.2-2.1,2.5-3,3.9c-1.2-2.8-3.9-4.9-6.1-7c-0.2-0.2-0.4-0.1-0.6,0c0,0-0.1,0.1-0.1,0.2c-0.6,2.3-0.8,4.7-0.6,7.1
			c-0.4-0.3-0.8-0.6-1.3-0.8c-0.9-0.5-2.8-1.5-3.8-0.9s0.1,2.4,0.4,3.2c0.6,1.5,1.4,3,2.2,4.3c-1.5,0.7-2.9,1.6-4.1,2.7
			c-1.3,1.2-1.6,1.8,0.1,2.6c3.9,1.7,8.1,3.2,12.3,1.8l0,0c0.1,0,0.1,0,0.2,0c0.1,0,0.3,0,0.4-0.1c0.2-0.1,0.4-0.2,0.6-0.4
			c4.4-2.5,7.6-6.5,10.5-10.6C150.4,199,148.2,199,146.9,199.2z M127.9,210.1c-0.9-0.2-1.7-0.6-2.5-1c-0.4-0.3-0.5-0.1-0.3-0.6
			c0.1-0.3,0.6-0.6,0.8-0.8c1.1-1,2.4-1.9,3.8-2.4l0.1,0.1c1.2,1.8,2.7,3.3,4.4,4.5c-2.1-0.3-4.1-1-5.8-2.1
			c-0.1-0.1-0.4,0.1-0.3,0.2c2,1.3,4.2,2,6.6,2.2c0.5,0.4,1.1,0.7,1.7,1C133.4,211.7,130.5,211.3,127.9,210.1L127.9,210.1z
			 M137.4,210.4c-2.4-3-4.7-6.1-7-9.3c-0.1-0.1-0.4,0-0.3,0.2c2.3,3.2,4.7,6.3,7.1,9.4c0.1,0,0.1,0,0.2,0c0,0,0,0.1,0,0.1
			c-0.5-0.2-0.9-0.4-1.3-0.6c0,0,0-0.1-0.1-0.1l0,0c-1.8-1-3.4-2.4-4.6-4c-0.4-0.5-0.7-1-1.1-1.5c0-0.1-0.1-0.1-0.1-0.1
			c-0.4-0.7-0.9-1.4-1.2-2.1s-0.6-1.3-1-2c-0.2-0.4-0.3-0.8-0.5-1.3s-0.5-0.8-0.1-1.1c1-0.7,3.3,1,4,1.6c1.1,0.9,2,2,2.8,3.2
			c0.6,0.9,1.2,1.9,1.7,2.9c0,0.1,0,0.1,0.1,0.2C136.7,207.2,137.2,208.8,137.4,210.4L137.4,210.4z M136.3,203.7
			c0-0.1-0.1-0.2-0.1-0.3c-0.1-0.4-0.3-0.8-0.4-1.2c-0.2-0.6-0.4-1.3-0.6-1.9c-0.4-1.3-0.6-2.6-0.9-3.8c0-0.2-0.4,0-0.3,0.1
			c0.3,1.5,0.6,3,1.1,4.5c0.2,0.6,0.4,1.3,0.6,1.9c0.1,0.4,0.2,0.7,0.3,1.1c-0.6-1.1-1.3-2.1-2.1-3.1c-0.4-0.5-0.9-1-1.3-1.5
			c-0.3-2.3-0.2-4.7,0.3-7c2.1,2,4.7,4,5.6,6.8C137.6,200.7,136.9,202.2,136.3,203.7C136.4,203.8,136.4,203.8,136.3,203.7
			L136.3,203.7z M138.3,210.5c0-0.5-0.1-1-0.2-1.4c1.1-2.7,2-5.4,2.7-8.2c0-0.2-0.3-0.1-0.3,0c-0.6,2.6-1.5,5.2-2.5,7.7
			c-0.3-1.1-0.7-2.1-1.2-3.1c0.5-2,1.4-3.9,2.4-5.7c0.1-0.1,0.2-0.2,0.2-0.3c0.8-1.3,1.7-2.5,2.7-3.6c0.3,1.9,0.3,3.9,0.2,5.8
			c-0.1,0.1-0.2,0.3-0.1,0.5c0,0.1,0,0.1,0.1,0.2c-0.1,0.4-0.1,0.9-0.3,1.3c-0.4,1.4-1,2.6-1.7,3.9c-0.3,0.5-0.6,1-1,1.6
			C139,209.2,138.6,210,138.3,210.5L138.3,210.5z M148.2,200.6l-0.7,0.9c-0.6,0.8-1.2,1.6-1.8,2.4c-1.7,2.2-3.7,4.1-5.9,5.7l0.1-0.1
			c0.5-0.7,1-1.5,1.4-2.2c1.3-1.9,2.8-3.7,4.3-5.4c0.1-0.1-0.2,0-0.3,0c-1.2,1.4-2.4,2.8-3.5,4.3c0.1-0.3,0.3-0.7,0.4-1
			c0.3-0.9,0.6-1.8,0.7-2.8c0.1-0.1,0.1-0.2,0.1-0.2V202c0,0,0-0.1,0-0.1l0,0c0.7-0.7,1.6-1.2,2.5-1.5c0.9-0.4,1.8-0.6,2.8-0.5h0.4
			C148.5,200.1,148.4,200.4,148.2,200.6L148.2,200.6z"/>
		<path class="st4" d="M209.2,188.2c-0.8,5.3-3.8,10.1-8.2,13.1c-0.2,0-0.3,0-0.4,0.1c-1.4-0.6-2-2.2-2.8-3.4
			c-0.6-0.9-1.5-1.6-2.5-2l-0.6-0.3C200,194.5,205,191.9,209.2,188.2z"/>
		<path class="st4" d="M167.1,190.7c-0.2-2.8-0.1-6.3,1.4-8.8c0.1,0.7,0.2,1.5,0.2,2.2c0.1,0.6,0.2,1.2,0.3,1.7
			c0.3,1.3,0.8,2.6,1.5,3.7c1.1,1.9,3,3.3,5.1,4c-1.7,1.4-3.1,3.1-4.2,5C168.6,197,167.3,193.9,167.1,190.7z"/>
		<path class="st4" d="M200,209.8c-0.6,0.9-1.6,2.6-2.6,3s-1.4-0.6-2.4-0.4c-1.8,0.3-1.7,2.8-2.3,4c-1.1,2.2-3.4,4.1-5.2,5.6
			c-0.6,0.5-2.8,2.8-3.5,2.2c-0.1-0.1-0.1-0.6-0.2-0.7c-0.1-0.2-0.3-0.4-0.5-0.5c-1.1-0.7-2.5-0.4-3.2,0.6c-0.5,0.7-0.9,1.5-1.1,2.3
			c-0.3,1-0.6,1.2-1.8,1.3c-0.7,0.1-1.4,0-2.1,0c-1.4,0-2.7,0-4.1-0.1c-0.8,0-2.6-0.5-3.1-1.3c0-0.1,0.1-0.1,0.1-0.2
			c0-0.4,0.1-0.8,0.2-1.2l0,0c0.1-0.1,0.1-0.2,0.1-0.4c0.6-2.2,1.9-4.2,2.2-6.6c0.3-3-1-5.9-1-8.9c0.1-5.7,2.8-11.1,7.3-14.6
			c0.1-0.1,0.2-0.2,0.1-0.3c1-0.8,2.3-1.3,3.6-1.4c1.3,0.1,2.6,0.4,3.7,1c2.2,0.9,4.5-0.1,6.7,0.7c1.1,0.4,1.6,1.6,2.5,2.2
			c1.2,0.8,2.6,1,3.5,2.1c1.3,1.6,1.9,3.8,4.1,4.2C202.9,204.6,201.4,207.7,200,209.8z"/>
		<path class="st3" d="M210.1,187.2c0-0.4-0.5-0.5-0.7-0.3c-4.4,4.2-9.9,7.1-15.9,8.4l-0.2-0.2c-0.5-0.4-0.7-1-1.2-1.4
			c-0.8-0.5-1.7-0.8-2.6-0.8c-1.3-0.1-2.5,0.2-3.8,0s-2.4-1-3.7-1.3c-2.1-0.5-4.3,0.1-6,1.5H176c-2.8-0.8-5.1-3.1-5.9-5.9
			c-0.4-1.4-0.7-2.8-0.8-4.3c-0.1-0.8,0-1.4-0.7-1.9c-0.2-0.1-0.4,0-0.6,0.1c-2.1,2.8-2.2,7.4-1.7,10.6c0.3,3.1,1.9,6,4.5,7.7
			c-1.3,2.4-2.1,5.1-2.3,7.9c-0.1,1.3-0.1,2.6,0.1,3.9c0.2,1.8,0.9,3.6,0.9,5.5c-0.1,2.6-1.5,4.8-2.2,7.2c-0.7,0.9-0.5,2.2,0.3,3
			c1.3,1.4,3.8,1,5.5,1.1l4,0.1c0.7,0,1.4,0.1,1.9-0.5c0.4-0.7,0.7-1.4,0.9-2.2c0.2-0.7,0.6-1.2,1.2-1.6c0.3-0.2,0.7-0.3,1-0.2
			c0.8,0.1,0.8,0.4,1,1.1c0.5,1.5,1.7,0.6,2.6-0.1c2-1.5,3.8-3.1,5.5-4.9c1.4-1.4,2.4-3.2,2.8-5.1c0-0.3,0.1-0.6,0.3-0.8
			c1.4-1.6,1-0.3,1.5-0.1c0.2,0.1,0.3,0.2,0.5,0.3c0.8,0.2,1.5-0.5,2-1c2.5-2.4,6.1-7.7,3.3-11c0-0.1,0-0.1-0.1-0.2
			C206.5,198.5,209.6,193.1,210.1,187.2z M167.1,190.7c-0.2-2.8-0.1-6.3,1.4-8.8c0.1,0.7,0.2,1.5,0.2,2.2c0.1,0.6,0.2,1.2,0.3,1.7
			c0.3,1.3,0.8,2.6,1.5,3.7c1.1,1.9,3,3.3,5.1,4c-1.7,1.4-3.1,3.1-4.2,5C168.6,197,167.3,193.9,167.1,190.7L167.1,190.7z M200,209.8
			c-0.6,0.9-1.6,2.6-2.6,3s-1.4-0.6-2.4-0.4c-1.8,0.3-1.7,2.8-2.3,4c-1.1,2.2-3.4,4.1-5.2,5.6c-0.6,0.5-2.8,2.8-3.5,2.2
			c-0.1-0.1-0.1-0.6-0.2-0.7c-0.1-0.2-0.3-0.4-0.5-0.5c-1.1-0.7-2.5-0.4-3.2,0.6c-0.5,0.7-0.9,1.5-1.1,2.3c-0.2,0.6-0.4,0.9-0.7,1.1
			c-0.1-0.1-0.2-0.1-0.3,0l-1.3-0.3c0-0.3,0-0.6,0-0.9c0-0.2,0-0.4-0.1-0.6c0-0.2-0.6-0.1-0.5,0.1v0.7l0,0c-0.8,1.1-1.3,1.3-1.8,0.5
			c-0.5-0.5-0.4-0.7-0.4-1.4c0-0.2-0.5-0.1-0.5,0.1c-0.2,0.7-0.6,2.1-1.8,1.7c-1-0.4-0.5-1.4-0.2-2c0.1-0.2-0.4,0-0.5,0
			c-0.2,0.2-0.2,0.5-0.4,0.8c-1,1.2-1.8,1.1-2.3-0.1c0-0.1-0.1-0.1-0.2-0.1c0,0,0,0,0-0.1c0-0.4,0.1-0.8,0.2-1.2l0,0
			c0.1-0.1,0.1-0.2,0.1-0.4c0.6-2.2,1.9-4.2,2.2-6.6c0.3-3-1-5.9-1-8.9c0.1-5.7,2.8-11.1,7.3-14.6c0.1-0.1,0.2-0.2,0.1-0.3
			c1-0.8,2.3-1.3,3.6-1.4c1.3,0.1,2.6,0.4,3.7,1c2.2,0.9,4.5-0.1,6.7,0.7c1.1,0.4,1.6,1.6,2.5,2.2c1.2,0.8,2.6,1,3.5,2.1
			c1.3,1.6,1.9,3.8,4.1,4.2C202.9,204.6,201.4,207.7,200,209.8z M201,201.3c-0.2,0-0.3,0-0.4,0.1c-1.4-0.6-2-2.2-2.8-3.4
			c-0.6-0.9-1.5-1.6-2.5-2l-0.6-0.3c5.4-1.4,10.4-4,14.6-7.7C208.4,193.5,205.4,198.3,201,201.3L201,201.3z"/>
		<path class="st3" d="M192.5,204.3c0-3-2.5-5.4-5.5-5.3c-3,0-5.4,2.5-5.3,5.5c0,3,2.5,5.4,5.5,5.3c2.9,0,5.3-2.4,5.3-5.3
			C192.5,204.4,192.5,204.4,192.5,204.3C192.5,204.3,192.5,204.3,192.5,204.3z M188.2,206.1c0.4-0.6,0.6-1.3,0.6-2
			c0-0.1,0-0.2,0-0.2l0.1-0.4c0,1.1-0.2,2.1-0.8,3C188.2,206.3,188.2,206.2,188.2,206.1L188.2,206.1z M187.1,199.7
			c0.2,0,0.4,0,0.6,0.1c-0.1,0.1-0.1,0.2,0,0.4v0.1c0,0-0.1,0.1-0.1,0.1c-0.2-0.3-0.5-0.5-0.8-0.6L187.1,199.7z M187.4,205.9
			L187.4,205.9l-0.1,0.2c-0.1,0.2-0.3,0.3-0.4,0.4L187.4,205.9z M183.4,203.1l-0.1,0.2c-0.1,0.1-0.1,0.2-0.1,0.3v0.1h-0.1
			C183.2,203.4,183.3,203.2,183.4,203.1C183.5,203,183.4,203.1,183.4,203.1L183.4,203.1z M182.9,202.4c0.4-0.8,1-1.5,1.7-2
			C183.9,201,183.4,201.7,182.9,202.4L182.9,202.4z M184.9,201.4L184.9,201.4c0.1-0.1,0.2-0.2,0.3-0.2v0.2l-0.1,0.1H184.9z
			 M185.4,208.3c-0.1,0-0.2-0.1-0.3-0.2c0.1-0.1,0.1-0.1,0.1-0.2c0.1,0,0.2,0,0.3,0l-0.1,0.3C185.4,208.2,185.4,208.3,185.4,208.3
			L185.4,208.3z M186.8,209c3-2.1,3.8-6.1,1.8-9.1c0.5,0.2,0.9,0.4,1.3,0.7c0,0,0,0.1,0,0.1c0.8,2.7,0.4,5.6-1.2,7.9
			c0,0-0.1,0.1-0.1,0.1c-0.5,0.2-1,0.3-1.6,0.3L186.8,209z M189.6,208.4c1.2-2.1,1.6-4.6,1.1-7c0.7,0.8,1.1,1.9,1.1,3
			C191.8,206,191,207.5,189.6,208.4L189.6,208.4z"/>
		<path class="st3" d="M186.5,211.6c-3.6-0.9-6-4.2-5.7-7.9c0-0.2-0.5-0.2-0.5,0.1c-0.3,3.8,2.2,7.3,5.9,8.2
			C186.4,212,186.8,211.7,186.5,211.6z"/>
		<path class="st3" d="M190.4,215.9c-0.7,0.8-1.3,1.7-1.9,2.7c-0.8,1.2-1.9,2.2-3.1,2.9c-0.2,0.1,0.3,0.1,0.4,0
			c1-0.6,1.9-1.3,2.6-2.2c0.9-1.1,1.5-2.4,2.4-3.5C191,215.8,190.5,215.8,190.4,215.9z"/>
		<path class="st3" d="M193.7,212.1c-0.1,0-0.3,0-0.4,0.1l-0.6,0.5c-0.1,0.1-0.1,0.1,0,0.2c0.1,0,0.3,0,0.4-0.1l0.6-0.5
			C193.8,212.2,193.8,212.1,193.7,212.1z"/>
		<path class="st3" d="M199.8,208c-0.3,1.4-1.1,2.5-2.2,3.4c-0.2,0.2,0.3,0.2,0.4,0.1c1.2-0.9,2-2.1,2.4-3.5
			C200.4,207.8,199.9,207.8,199.8,208z"/>
		<path class="st3" d="M176.1,219.8c-0.4-0.9-0.6-2-0.6-3c0.1-0.7,0.1-1.5-0.2-2.1c-0.5-0.6-1.3-0.8-2-0.5c-0.9,0.5-1.5,1.5-1.5,2.6
			c-0.2,2-0.9,3.9-1.9,5.7c-0.1,0-0.2,0-0.3,0c-0.7,0.4-0.3,1.1,0.3,1.3c1.4,0.4,2.9-0.4,4.3-0.3c0.9,0.1,1.8,1,2.6,0.1
			S176.6,220.8,176.1,219.8z"/>
		<path class="st3" d="M170.6,195.8c-1.4-1.1-2.1-2.9-1.8-4.6c0-0.1-0.5,0-0.5,0.1c-0.3,1.8,0.4,3.6,1.8,4.7
			C170.2,196.1,170.7,195.9,170.6,195.8z"/>
		<path class="st3" d="M200.2,199.1c-1.3-0.6-1.6-2.7-3.2-2.8c-0.1,0-0.6,0.2-0.3,0.2c1.5,0.1,1.9,2.2,3.1,2.8
			C199.9,199.3,200.4,199.1,200.2,199.1z"/>
		<path class="st3" d="M181,210.1c-0.9-1.2-1.4-2.5-1.6-3.9c0-0.2-0.6-0.1-0.5,0.1c0.2,1.4,0.8,2.8,1.6,4
			C180.6,210.5,181.1,210.3,181,210.1z"/>
		<path class="st3" d="M175.4,211.4l-0.2-0.2c-0.1-0.1-0.6,0.1-0.5,0.2l0.2,0.2C175.1,211.7,175.6,211.5,175.4,211.4z"/>
		<path class="st3" d="M178.1,219.5c-0.7-0.8-1.1-1.8-1.1-2.8c0-0.3-0.5-0.2-0.5,0c0,1.1,0.4,2.2,1.1,3
			C177.7,219.9,178.2,219.7,178.1,219.5z"/>
		<path class="st3" d="M175.5,197.2c-2.8,2.9-4.7,6.5-5.4,10.4c0,0,0.5,0,0.5-0.1c0.8-3.9,2.6-7.5,5.4-10.3
			C176.1,197,175.6,197.1,175.5,197.2z"/>
		<path class="st3" d="M183.5,194.3c-1-0.7-2.2-1-3.4-0.8c-0.1,0-0.6,0.2-0.2,0.2c1.1-0.1,2.2,0.1,3.1,0.8
			C183.2,194.6,183.6,194.3,183.5,194.3z"/>
		<path class="st3" d="M205.8,193.8l-1.9,2.4c-0.1,0.2,0.4,0.2,0.5,0l1.9-2.4C206.5,193.6,206,193.7,205.8,193.8z"/>
		<path class="st3" d="M201,195.3l-0.4,0.3c-0.2,0.2,0.3,0.2,0.4,0.1l0.4-0.4C201.6,195.2,201.1,195.2,201,195.3z"/>
	</g>
</g>
</svg>
