<svg xmlns="http://www.w3.org/2000/svg" viewBox="0 0 287.18 249.84"><defs><style>.cls-1{fill:#ffd780;}.cls-2{fill:#ffd16b;}.cls-3{fill:#fcba4e;}.cls-4{fill:#fcae30;}.cls-5{fill:#ffffeb;}.cls-6{font-size:31.49px;fill:#ff7d55;font-family:OpenSans-Bold, OpenSans Bold;font-weight:700;}</style></defs><g id="Layer_2" data-name="Layer 2"><g id="OBJECTS"><path class="cls-1" d="M282.14,100.75a7.62,7.62,0,0,0-10.82-6.09c0-.24,0-.48,0-.72a15.27,15.27,0,0,0-24-12.55A22.48,22.48,0,1,0,204.29,94a7.75,7.75,0,0,0-1-.07,7.55,7.55,0,0,0-4.05,1.17c0-.14,0-.27,0-.41A14.52,14.52,0,1,0,170.47,97H146.09a6.11,6.11,0,0,0,0,12.22h131.1v-.48A7.61,7.61,0,0,0,282.14,100.75Z"/><path class="cls-2" d="M0,209.84s36.17-68.62,79.26-67.9C141.23,143,180,202.3,180,202.3Z"/><path class="cls-1" d="M90.47,209.84s51.12-87.32,94.22-86.6c62,1.05,94.21,85.14,94.21,85.14Z"/><path class="cls-3" d="M287.18,221.35c0,15.18-67.89,15.09-144.53,25.43C22.91,262.94,0,209.84,0,209.84c5.76-14.39,78.89-33.32,150.14-33.32S287.18,206.17,287.18,221.35Z"/><path class="cls-1" d="M152.72,51.51h-23.6a11.14,11.14,0,0,0-.89-8.13,11.82,11.82,0,0,0-8-6.29,11.6,11.6,0,0,0-6.11.34c0-.13,0-.25,0-.38a20.79,20.79,0,0,0-41.22-3.87,13.57,13.57,0,0,0-16.2,12.61H24.65a7.43,7.43,0,0,0-7.53,7,7.23,7.23,0,0,0,7.23,7.45H152.72a4.37,4.37,0,1,0,0-8.74Z"/><path class="cls-1" d="M240.38,25.57h-14a6.64,6.64,0,0,0-.53-4.83A7,7,0,0,0,221.05,17a6.8,6.8,0,0,0-3.63.2V17a12.37,12.37,0,0,0-24.52-2.3,7.81,7.81,0,0,0-1.54-.15,8.11,8.11,0,0,0-8.1,7.65H164.18a4.42,4.42,0,0,0-4.48,4.17,4.3,4.3,0,0,0,4.3,4.44h76.38a2.61,2.61,0,0,0,0-5.21Z"/><path class="cls-4" d="M27.36,194.23c11.93,14.13,47.2,41.21,137.33,29.05,45.39-6.13,87.71-8.59,114.67-12.74-19.46-15.31-72.62-34-129.22-34C103.57,176.52,56.2,184.6,27.36,194.23Z"/><path class="cls-5" d="M209.85,71.47c.36-1.74-1.15-3.67-1.9-5.27-.59-1.25-1.19-2.5-1.77-3.75-.09-.2-.24-.74-.31-.59a8.58,8.58,0,0,1,.76-1.29c1-1.85,2.4-3.51,2.4-5.64V50.28a12.78,12.78,0,0,0,0-3.09,10.34,10.34,0,0,0-1.91-2.76c-.54-.72-1.08-1.45-1.63-2.17-.31-.42-.68-1.27-.78-.87.2-1,1.64-2.62,2.11-3.41L209,34.37c.3-.5-.39-.77-.74-.77H154.58a.45.45,0,0,0,.1-.27V1.44A.93.93,0,0,0,153.75,0c-7.48,1.33-14.26,5-21.65,6.68a.75.75,0,0,0-.6.56.38.38,0,0,0-.14.28V33.6H82.16c-.35,0-.91.3-.91.71,0,3.61,0,7.22-.07,10.82,0,1.15-.08,1.33.65,2.1a24.64,24.64,0,0,0,3.7,2.87l0,0L81.6,52.2c-.21.11-.47.32-.47.59,0,3.89,0,7.79-.08,11.68l0,8a20.54,20.54,0,0,0,0,4.22c.34,1.44,1.83,3,2.66,4.16.09.13.23.3.37.47-.24.25-.32.55-.08.71a.34.34,0,0,1-.06.06,24,24,0,0,0-2.21,2.81c-.93,1.3-.74,2.28-.75,3.91,0,2.23,0,4.47-.05,6.7,0,.45.41.59.79.6l42.81,1.36,8.22.27V204.32a.91.91,0,0,0,.5,1.61l20.35,1a.78.78,0,0,0,.83-.91,1.07,1.07,0,0,0,.06-.31V98.4l38,1.21,15.4.49a1.07,1.07,0,0,0,.47,0,.86.86,0,0,0,.52-.26.63.63,0,0,0,.22-.6l-3.27-15.32c-.09-.43-.2-1.46-.27-1.24a18.66,18.66,0,0,1,1.26-3.2C207.73,76.92,209.3,74.15,209.85,71.47Z"/><path class="cls-4" d="M209.85,71.47c.36-1.74-1.15-3.67-1.9-5.27-.59-1.25-1.19-2.5-1.77-3.75-.09-.2-.24-.74-.31-.59a8.58,8.58,0,0,1,.76-1.29c1-1.85,2.4-3.51,2.4-5.64V50.28a12.78,12.78,0,0,0,0-3.09,10.34,10.34,0,0,0-1.91-2.76c-.54-.72-1.08-1.45-1.63-2.17-.31-.42-.68-1.27-.78-.87.2-1,1.64-2.62,2.11-3.41L209,34.37c.3-.5-.39-.77-.74-.77H154.58a.45.45,0,0,0,.1-.27V1.44A.93.93,0,0,0,153.75,0c-7.48,1.33-14.26,5-21.65,6.68a.75.75,0,0,0-.6.56.38.38,0,0,0-.14.28V33.6H82.16c-.35,0-.91.3-.91.71,0,3.61,0,7.22-.07,10.82,0,1.15-.08,1.33.65,2.1a24.64,24.64,0,0,0,3.7,2.87l0,0L81.6,52.2c-.21.11-.47.32-.47.59,0,3.89,0,7.79-.08,11.68l0,8a20.54,20.54,0,0,0,0,4.22c.34,1.44,1.83,3,2.66,4.16.09.13.23.3.37.47-.24.25-.32.55-.08.71a.34.34,0,0,1-.06.06,24,24,0,0,0-2.21,2.81c-.93,1.3-.74,2.28-.75,3.91,0,2.23,0,4.47-.05,6.7,0,.45.41.59.79.6l42.81,1.36,8.22.27V204.32a.91.91,0,0,0,.5,1.61l20.35,1a.78.78,0,0,0,.83-.91,1.07,1.07,0,0,0,.06-.31V98.4l38,1.21,15.4.49a1.07,1.07,0,0,0,.47,0,.86.86,0,0,0,.52-.26.63.63,0,0,0,.22-.6l-3.27-15.32c-.09-.43-.2-1.46-.27-1.24a18.66,18.66,0,0,1,1.26-3.2C207.73,76.92,209.3,74.15,209.85,71.47ZM133,8.25c6.8-1.65,13.11-4.86,19.95-6.32V33.47a.51.51,0,0,0,0,.13H133Zm19.65,196.91-11.59-.57a.79.79,0,0,0,.62-.81v-24a.87.87,0,0,0-1.73,0v24a.8.8,0,0,0,.53.78l-6.11-.3V97.76l18.28.58ZM204,84.17q-9.48.7-19,.53c-.56,0-1.8.82-.68.84q9.93.18,19.83-.59.84,4,1.7,8-41.29.74-82.58.49c-1,0-1.27,1.26-.14,1.27q41.49.26,83-.5l1,4.6-41.72-1.33L97.49,95.28,82.56,94.8c0-2.58.14-5.18,0-7.76,0-1.35-.14-.85.74-2l2.29-2.9q10.24.5,20.51.66c.95,0,1.28-1.19.15-1.21Q96,81.46,85.75,80.93c-.83-1.23-1.63-2.49-2.52-3.68-.72-1-.59-.46-.55-1.69.09-3,.06-6.06.06-9.1l19.67-.95c1,0,1.27-1.32.14-1.26l-19.8,1v-.26L82.82,54c0-.33,0-.68,0-1h0a13.48,13.48,0,0,0,3.73-1.94,3.48,3.48,0,0,0,1.33.1,1,1,0,0,0,.85-.5L116,51c.65,0,1.77-1,.65-1l-29.08-.38,0,0a50,50,0,0,0-4.12-3.16,6.17,6.17,0,0,1-.55-.38,8.35,8.35,0,0,1,0-1.87L83,34.91h124c-1.29,2.15-2.58,4.29-3.86,6.44a.5.5,0,0,0,0,.5c1.31,1.74,3.15,3.54,4.11,5.49.1.18.13.21.14.19a7.48,7.48,0,0,1,0,1.16v4.45a8.18,8.18,0,0,1-1.28,5.33c-.62,1.13-1.53,2.18-1.68,3.34q-10.65-.18-21.29.56c-.86.06-1.36,1.09-.21,1,7.19-.51,14.39-.68,21.6-.55a40.76,40.76,0,0,0,3.43,7.26,4,4,0,0,1,.42.89v.07a12.65,12.65,0,0,1-1.13,2.89c-1,2.56-2,5.12-3,7.7A3.58,3.58,0,0,0,204,84.17Z"/><path class="cls-4" d="M202.33,40.09q-21.32-.48-42.63.22c-.87,0-1.35,1.06-.2,1q21.09-.69,42.2-.21C202.39,41.14,203.45,40.11,202.33,40.09Z"/><path class="cls-4" d="M102.84,38.59l-16.16-.36c-1,0-1.27,1.22-.14,1.24l16.15.36C103.65,39.85,104,38.61,102.84,38.59Z"/><path class="cls-4" d="M109.42,88.62l-20.19-.35c-.69,0-1.76,1-.63,1l20.2.35C109.49,89.67,110.55,88.64,109.42,88.62Z"/><path class="cls-4" d="M199.33,88.8h1.16c.35,0,.88-.27.92-.65s-.45-.52-.76-.52H199.5c-.36,0-.88.27-.93.66S199,88.8,199.33,88.8Z"/><path class="cls-4" d="M91.75,76.63l-5.48-.32a1.59,1.59,0,0,0-1.18.31c-.18.21-.29.45.12.48l5.48.32a1.66,1.66,0,0,0,1.19-.31C92.05,76.9,92.16,76.65,91.75,76.63Z"/><path class="cls-4" d="M199.17,57.85l-8.36-.33c-.58,0-1.8.81-.68.86l8.37.32C199.07,58.72,200.29,57.89,199.17,57.85Z"/><path class="cls-4" d="M196.5,47.78h-9.81c-.35,0-1.89.66-1.09.66h9.81C195.75,48.44,197.29,47.78,196.5,47.78Z"/><path class="cls-4" d="M148.64,148.75a1.45,1.45,0,0,1,.2-1.29c.61-.93-.89-1.8-1.5-.87a3.18,3.18,0,0,0-.37,2.62A.87.87,0,0,0,148.64,148.75Z"/><path class="cls-4" d="M147.68,172.46v2.21a.39.39,0,0,0-.07.23V195c0,.73,1.34.56,1.34-.08V175.51a.78.78,0,0,0,.46-.74v-2.31A.87.87,0,0,0,147.68,172.46Z"/><path class="cls-4" d="M148.16,199.84a.87.87,0,0,0,0,1.73A.87.87,0,0,0,148.16,199.84Z"/><path class="cls-4" d="M148.55,124.63q-.17-9.81-.35-19.61c0-.63-1.34-.39-1.33.13q.18,9.8.35,19.6C147.24,125.39,148.56,125.14,148.55,124.63Z"/><path class="cls-4" d="M141.19,154.16V109.92c0-.4-1.32-.15-1.32.35v44.24C139.87,154.91,141.19,154.67,141.19,154.16Z"/><path class="cls-4" d="M144.84,155.65V136.5c0-.69-1.34-.5-1.34.1v19.15C143.5,156.45,144.84,156.25,144.84,155.65Z"/><path class="cls-4" d="M139.42,12.59c-.48,0-1.41.72-.52.72C139.37,13.31,140.31,12.59,139.42,12.59Z"/><path class="cls-4" d="M142.15,10.39V27.27c0,.27,1.32.07,1.32-.36V10C143.47,9.76,142.15,10,142.15,10.39Z"/><path class="cls-4" d="M139,17.12V29.89c0,.62,1.33.38,1.33-.13V17C140.28,16.37,139,16.61,139,17.12Z"/><path class="cls-4" d="M150.35,7.07V19.39c0,.68,1.33.48,1.33-.11V7C151.68,6.28,150.35,6.48,150.35,7.07Z"/><path class="cls-4" d="M140.74,171.62V162c0-.69-1.34-.49-1.34.1v9.58C139.4,172.41,140.74,172.21,140.74,171.62Z"/><path class="cls-4" d="M138.45,107.29V99.54c0-.63-1.33-.38-1.33.13v7.76C137.12,108.05,138.45,107.81,138.45,107.29Z"/><text class="cls-6" transform="translate(115.6 78.01)">404</text><path class="cls-4" d="M64.56,192v5.67c0,.43,1,.24,1-.11v-5.67C65.53,191.42,64.56,191.61,64.56,192Z"/><path class="cls-5" d="M59.36,196.82H73.67V149.33a32.33,32.33,0,0,0,30.08-32.21,7.34,7.34,0,0,0-14.68,0,17.64,17.64,0,0,1-15.4,17.47V114.45a7.16,7.16,0,0,0-14.31,0v36.76a17.63,17.63,0,0,1-12.84-17,7.34,7.34,0,0,0-14.68,0A32.34,32.34,0,0,0,59.36,166.2Z"/><path class="cls-4" d="M58.61,166.24c.56.55,0,4.21,0,5v19.41c0,1.92-.2,4.09,0,6.17h1.52c-.21-2.44,0-5,0-7.45V166.2a.75.75,0,0,0-.55-.72C45.21,163,32.08,150.33,32.61,135c.13-3.82,2.29-7.29,6.57-7.29,4.53,0,6.11,3.5,6.62,7.29a22.83,22.83,0,0,0,1.67,7,18.89,18.89,0,0,0,11.69,10,.76.76,0,0,0,1-.73V117.27c0-3.13-.06-6.46,3.17-8.35,4.61-2.69,9.16,1.09,9.64,5.77.09.89,0,1.84,0,2.73v17.17a.76.76,0,0,0,1,.72,18.83,18.83,0,0,0,13.35-8.77,18.36,18.36,0,0,0,2.38-6.65c.5-3.23.12-6.49,3.48-8.46,4.63-2.7,9.48.85,9.92,5.69a32,32,0,0,1-29.33,31.46.78.78,0,0,0-.75.75V195c0,.59,0,1.21,0,1.82h1.6c.19-2.57-.11-5.32-.11-7.79v-32.2c0-1.85-.59-4.8,0-6.55a1.36,1.36,0,0,0,.12-.55.45.45,0,0,0,.2-.07c.93-.5,4.43-.37,5.89-.8a33.15,33.15,0,0,0,12-6.42,33.61,33.61,0,0,0,11.85-25.32c-.58-6.43-7.67-10.75-13.2-6.26-2.59,2.1-2.69,4.61-3,7.66a17.57,17.57,0,0,1-3.06,8.36c-2.49,3.5-5.55,4.53-9.06,6.44-1.69.91-1.35,1.47-1.72.35a12.61,12.61,0,0,1,0-3.19V120.26c0-4.57.73-9.92-3.92-12.63-5.47-3.2-11.48,1-11.89,6.86-.29,4.13,0,8.38,0,12.52v19.18c0,1,.52,3.8,0,4.72.37-.65-2.6-1.82-3.72-2.55a17,17,0,0,1-6.79-8.86c-1.17-3.58-.18-7.45-2.78-10.49A8.09,8.09,0,0,0,37,126.49c-7.79,2.14-6.3,11.66-4.47,17.55a33.1,33.1,0,0,0,20,21.17,16.27,16.27,0,0,0,3.9,1.19C55.17,166.29,59.2,166.81,58.61,166.24Z"/><path class="cls-4" d="M68.38,121.24v23.42c0,.41.83.27.83-.07V121.17C69.21,120.76,68.38,120.89,68.38,121.24Z"/><path class="cls-4" d="M69.8,154.61v6.2c0,.21.82.07.82-.22v-6.2C70.62,154.18,69.8,154.32,69.8,154.61Z"/><path class="cls-4" d="M68.39,171.53V187.9c0,.18.81,0,.81-.22V171.31C69.2,171.13,68.39,171.26,68.39,171.53Z"/><path class="cls-4" d="M64.71,132.52v24.26c0,.44.83.33.83-.06V132.46C65.54,132,64.71,132.14,64.71,132.52Z"/><path class="cls-4" d="M64.72,163.07v4.23c0,.25.82.1.82-.22v-4.23C65.54,162.6,64.72,162.76,64.72,163.07Z"/><path class="cls-4" d="M63.31,113.06v5.36c0,.39.82.24.82-.08V113C64.13,112.6,63.31,112.75,63.31,113.06Z"/><path class="cls-4" d="M54.41,155.08C47.76,149.7,42,142.45,42.46,133.45c0-.16-.81,0-.82.22-.46,9,5.33,16.31,12,21.71C53.83,155.53,54.56,155.21,54.41,155.08Z"/><path class="cls-4" d="M47.46,154.32A15.45,15.45,0,0,1,43.25,149c-.15-.31-1-.06-.82.21a16,16,0,0,0,4.27,5.42C47,154.86,47.71,154.53,47.46,154.32Z"/><path class="cls-4" d="M41.79,152.91a25.57,25.57,0,0,1-6.69-18.47c0-.44-.81-.33-.83.05A26,26,0,0,0,41,153.28C41.3,153.56,42.08,153.22,41.79,152.91Z"/><path class="cls-4" d="M93.08,118.15a32.33,32.33,0,0,1-6.27,13.35,1.1,1.1,0,0,0,.8-.15A32.29,32.29,0,0,0,93.89,118C93.92,117.83,93.13,118,93.08,118.15Z"/><path class="cls-4" d="M79.73,136A4,4,0,0,1,76,137.55c-.4-.06-.83.51-.28.59a5.05,5.05,0,0,0,4.7-1.87C80.73,135.86,80,135.74,79.73,136Z"/><path class="cls-4" d="M97.94,113.2c0-.17-.84,0-.82.22a13.75,13.75,0,0,1-1.65,8.41c-.07.12.69.08.81-.14A13.81,13.81,0,0,0,97.94,113.2Z"/><path class="cls-4" d="M99.56,122.89a30.66,30.66,0,0,1-23.63,20.54c-.42.07-.65.62-.1.52a31.61,31.61,0,0,0,24.55-21.14C100.49,122.48,99.66,122.58,99.56,122.89Z"/><path class="cls-4" d="M62.86,183v10.66c0,.22,1,.07,1-.26V182.7C63.83,182.48,62.86,182.63,62.86,183Z"/><path class="cls-5" d="M102.58,207.55c0,1.12-1.07,2-1.85,2.57a.73.73,0,0,0,0,1c1.74,1.41,4.2,3.37,3.56,5.93-.88,3.5-5.47,1.06-7.31-.07a.68.68,0,0,0-.87.1l-31.58,7.7a.66.66,0,0,0-.54.64.67.67,0,0,0-.06.27,4.69,4.69,0,0,1-5.86,4.48c-1.85-.5-3.38-2.12-2.67-4.13.57-1.63,2.18-2.56,3.58-3.4a.75.75,0,0,0-.34-1.39,7.42,7.42,0,0,1-3.94-1.18c-1.85-1.23-2.31-3.54-.28-4.89,2.6-1.75,5.49.29,7.45,2.22a.75.75,0,0,0,.67,1.27L95,210.79a.63.63,0,0,0,.88-.32.71.71,0,0,0,.18-.67,5.42,5.42,0,0,1,3-3.55C100.2,205.73,102.54,205.36,102.58,207.55Z"/><path class="cls-4" d="M94.66,209.36,63.45,217c-2.7-2.81-8-6.05-11-1.87-2.63,3.54.83,6.41,4.2,7.35a6.2,6.2,0,0,0-2.9,4.18,4.68,4.68,0,0,0,3.11,4.72,6.17,6.17,0,0,0,8.54-5.21l31.09-7.57.12-.05c2.55,1.49,6.84,3.32,8.71,0,1.74-3.06-.63-5.94-2.89-7.9A4.32,4.32,0,0,0,104,207a3,3,0,0,0-2.63-2.61C98.28,203.92,95.5,206.52,94.66,209.36Zm7.92-1.81c0,1.12-1.07,2-1.85,2.57a.73.73,0,0,0,0,1c1.74,1.41,4.2,3.37,3.56,5.93-.88,3.5-5.47,1.06-7.31-.07a.68.68,0,0,0-.87.1l-31.58,7.7a.66.66,0,0,0-.54.64.67.67,0,0,0-.06.27,4.69,4.69,0,0,1-5.86,4.48c-1.85-.5-3.38-2.12-2.67-4.13.57-1.63,2.18-2.56,3.58-3.4a.75.75,0,0,0-.34-1.39,7.42,7.42,0,0,1-3.94-1.18c-1.85-1.23-2.31-3.54-.28-4.89,2.6-1.75,5.49.29,7.45,2.22a.75.75,0,0,0,.67,1.27L95,210.79a.63.63,0,0,0,.88-.32.71.71,0,0,0,.18-.67,5.42,5.42,0,0,1,3-3.55C100.2,205.73,102.54,205.36,102.58,207.55Z"/><path class="cls-4" d="M62.75,221.49l21.3-5.19c.46-.11,0-1.11-.37-1l-21.3,5.19C61.92,220.58,62.38,221.58,62.75,221.49Z"/><path class="cls-4" d="M87.78,215.64l3.59-.87c.17,0-.23-1.05-.53-1l-3.59.87C87.07,214.71,87.47,215.72,87.78,215.64Z"/><path class="cls-4" d="M99.09,153.22a2.81,2.81,0,1,1,5.61,0,6.74,6.74,0,0,0,5.88,6.67V152.2a2.74,2.74,0,0,1,2.74-2.74h0a2.74,2.74,0,0,1,2.73,2.74v14a6.75,6.75,0,0,0,4.91-6.48,2.8,2.8,0,0,1,5.6,0A12.34,12.34,0,0,1,116.05,172v11.88a2.73,2.73,0,0,1-2.73,2.73h0a2.74,2.74,0,0,1-2.74-2.73V165.52A12.35,12.35,0,0,1,99.09,153.22Z"/><path class="cls-4" d="M240.9,176.29a2.52,2.52,0,1,1,5,0,6.06,6.06,0,0,0,5.28,6v-6.91a2.46,2.46,0,0,1,2.46-2.45h0a2.45,2.45,0,0,1,2.45,2.45V188a6,6,0,0,0,4.41-5.81,2.52,2.52,0,1,1,5,0,11.08,11.08,0,0,1-9.44,11v10.66a2.46,2.46,0,0,1-2.45,2.46h0a2.46,2.46,0,0,1-2.46-2.46V187.34A11.1,11.1,0,0,1,240.9,176.29Z"/><path class="cls-5" d="M250.86,140.67a6,6,0,0,0-6,6V147a9.38,9.38,0,0,1-9.37,9.36H232V124.1a6.89,6.89,0,1,0-13.78,0v17.83a6.83,6.83,0,0,1-6.48-6.81v-.93a6,6,0,1,0-12,0v.93A18.85,18.85,0,0,0,218.19,154v15.86h-3.84a9.38,9.38,0,0,1-9.37-9.36,6,6,0,1,0-12,0,21.4,21.4,0,0,0,21.38,21.37h3.84v13.24H232V168.37h3.52A21.4,21.4,0,0,0,256.87,147v-.32A6,6,0,0,0,250.86,140.67Z"/><path class="cls-4" d="M251.17,140a.6.6,0,0,0-.31-.05.66.66,0,0,0-.32.05,6.89,6.89,0,0,0-5.89,4.13c-.67,1.67-.33,3.43-.8,5.15-1.1,4-4.66,6.14-8.62,6.36-.85.05-2.29-.35-2.64,0,0-.35.06-.73.07-.9.19-2.56,0-5.2,0-7.76V127.82c0-4.37,0-9-5-10.85-5.44-2-10,2.41-10.17,7.66-.1,2.63,0,5.29,0,7.92,0,2,.91,7,0,8.85,0,0,0,0,0,.07a.26.26,0,0,0-.11,0c-.74.2-3.93-3-4.16-3.38-1.17-2.09-.42-4.33-1.28-6.45a6.78,6.78,0,0,0-6.21-4.18c-8.08,0-7.35,9.93-5.22,15.07a19.63,19.63,0,0,0,6.05,8,19.2,19.2,0,0,0,4.27,2.54,18.37,18.37,0,0,0,3.48,1.13s3.35.47,2.93.12c.2.17.29.62.29,1.8v4c0,2.7.68,6.47,0,9.12a8.88,8.88,0,0,1-1.23-.07c-2.24-.28-4.14.07-6.29-1.19-5.43-3.18-2.49-9.66-7.15-13-6.13-4.33-11.08,2.3-10.4,8.06a22.26,22.26,0,0,0,13.14,17.66,25.32,25.32,0,0,0,10.29,1.83h1.73a22.65,22.65,0,0,1-.09,3.11c0,2.6-.47,6.16-.25,9.44h1.64c-.21-4.39,0-8.84,0-13.24a.71.71,0,0,0-.7-.69c-5,0-9.77-.2-14.27-2.83-6-3.54-12.45-12.54-9.47-19.73q.62-3.36,4.53-3.43,4.85.45,5.3,5.31c.28,1.09.19,2.14.57,3.25a9.93,9.93,0,0,0,3.36,4.71c3,2.32,6.42,2.1,10,2.1a.71.71,0,0,0,.7-.7V154a.72.72,0,0,0-.7-.7c-8.94-.46-19.77-8.89-17.79-19.06a6.07,6.07,0,0,1,5.3-5.31c3.7-.51,4.76,3.26,5.31,5.77a22.93,22.93,0,0,0,.46,3,7.73,7.73,0,0,0,6.54,4.91.71.71,0,0,0,.88-.68V126.71c0-4,1-8.8,6.19-8.8,4.79,0,6.19,4.39,6.19,8.24v30.21a.71.71,0,0,0,.7.7c3.48,0,6.83.13,9.73-2.16a10.07,10.07,0,0,0,3.49-5.23c1-3.66.1-7.74,5.67-8.3,11.21,1.13,2.54,17.35-1.65,21.07-5,4.45-10.84,5.23-17.24,5.23a.71.71,0,0,0-.7.7v26.1c0,.2,0,.39,0,.59h1.63c.35-4.45-.23-9.28-.23-13.55v-9.73a20.8,20.8,0,0,1-.06-2.64c.34.19,1.3-.06,2-.07,8.62-.08,16.54-4.17,20.57-12C258.08,151.33,259.75,141.13,251.17,140Z"/><path class="cls-4" d="M227.75,146.68V167.8c0,.23.9.08.9-.24V146.44C228.65,146.2,227.75,146.36,227.75,146.68Z"/><path class="cls-4" d="M223.4,154.69v6.05c0,.39.9.21.9-.1v-6.06C224.3,154.19,223.4,154.37,223.4,154.69Z"/><path class="cls-4" d="M223.87,171.83v13.82c0,.14.9,0,.9-.24V171.59C224.77,171.45,223.87,171.58,223.87,171.83Z"/><path class="cls-4" d="M226.35,122v9.78c0,.18.9,0,.9-.24v-9.78C227.25,121.58,226.35,121.71,226.35,122Z"/><path class="cls-4" d="M222.15,127v2.8c0,.41.91.24.91-.1V127C223.06,126.53,222.15,126.71,222.15,127Z"/><path class="cls-4" d="M249.43,149.07c-1.21,2.81-2.45,5.77-4.65,8-3,3-6.8,3.13-10.82,2.89-.42,0-.93.58-.32.62,3.49.21,7.08.29,10.09-1.76,3.33-2.27,5-6.05,6.55-9.63C250.48,148.7,249.57,148.72,249.43,149.07Z"/><path class="cls-4" d="M251.73,153.85a12.64,12.64,0,0,1-3.4,4.89c-.22.2.64.13.82,0a13.11,13.11,0,0,0,3.48-5C252.71,153.5,251.83,153.59,251.73,153.85Z"/><path class="cls-4" d="M228.65,195.06V181.93c0-.48-.91-.36-.91.06v13.07Z"/><path class="cls-4" d="M228.21,175.71v1.86c0,.48.91.35.91-.07v-1.86C229.12,175.16,228.21,175.29,228.21,175.71Z"/><path class="cls-4" d="M213.09,173.14A14,14,0,0,1,201,160.87c0-.3-.94-.1-.9.25a14.33,14.33,0,0,0,12.47,12.52C212.84,173.68,213.6,173.21,213.09,173.14Z"/><path class="cls-4" d="M212.16,176.73a5.54,5.54,0,0,1-2.34-.44c-.4-.17-1,.41-.51.63a6.63,6.63,0,0,0,2.78.5C212.61,177.4,212.77,176.71,212.16,176.73Z"/><path class="cls-4" d="M211.4,148c-2,0-4.46-3.44-5.56-4.91a10.25,10.25,0,0,1-2.3-7.8c.05-.32-.85-.16-.9.12a10.71,10.71,0,0,0,2.6,8.33c1.34,1.69,3.43,4.67,5.8,4.73C211.35,148.51,212,148.05,211.4,148Z"/><path class="cls-4" d="M212,142.61a3.45,3.45,0,0,1-2.8-2.92c0-.16-.93,0-.9.24a3.59,3.59,0,0,0,3,3,1,1,0,0,0,.62-.11C212,142.79,212.25,142.64,212,142.61Z"/><path class="cls-4" d="M220.76,139v8.39c0,.22.9.07.9-.24v-8.39C221.66,138.53,220.76,138.68,220.76,139Z"/><path class="cls-4" d="M228,136.83v3.26c0,.39.9.21.9-.11v-3.26C228.88,136.33,228,136.52,228,136.83Z"/><path class="cls-3" d="M30.33,179.47a2.06,2.06,0,0,0-2.06,2.06v.11a3.21,3.21,0,0,1-3.21,3.21H23.85V173.79a2.36,2.36,0,0,0-2.36-2.36h0a2.36,2.36,0,0,0-2.36,2.36v6.11a2.34,2.34,0,0,1-2.22-2.33v-.32a2.06,2.06,0,1,0-4.11,0v.32A6.45,6.45,0,0,0,19.13,184v5.43H17.82a3.21,3.21,0,0,1-3.21-3.21,2.06,2.06,0,0,0-4.12,0,7.34,7.34,0,0,0,7.33,7.33h1.31v5A2.36,2.36,0,0,0,21.49,201h0a2.36,2.36,0,0,0,2.36-2.36V189h1.21a7.33,7.33,0,0,0,7.32-7.32v-.11A2.05,2.05,0,0,0,30.33,179.47Z"/><path class="cls-5" d="M249.55,218.81a6.52,6.52,0,0,0-2.88.17l-.38.11c.54-1.46.85-3,1.25-4.55a.33.33,0,0,0-.46-.39,19.16,19.16,0,0,0-3.19,2.11c-.19-2.38-1.69-4.6-2.77-6.66a.33.33,0,0,0-.56,0,16.17,16.17,0,0,0-2.16,5.1,8.06,8.06,0,0,0-.73-.93c-.54-.59-1.73-1.79-2.63-1.59s-.54,1.83-.49,2.5a24,24,0,0,0,.57,3.77,11.2,11.2,0,0,0-3.72,1c-1.23.58-1.67,1-.55,2,2.45,2.21,5.18,4.37,8.64,4.4h0a.38.38,0,0,0,.13.06.36.36,0,0,0,.32,0,1.49,1.49,0,0,0,.53-.17c3.86-.76,7.23-3,10.36-5.24C252.15,219.52,250.54,219,249.55,218.81Z"/><path class="cls-4" d="M249.55,218.81a6.52,6.52,0,0,0-2.88.17l-.38.11c.54-1.46.85-3,1.25-4.55a.33.33,0,0,0-.46-.39,19.16,19.16,0,0,0-3.19,2.11c-.19-2.38-1.69-4.6-2.77-6.66a.33.33,0,0,0-.56,0,16.17,16.17,0,0,0-2.16,5.1,8.06,8.06,0,0,0-.73-.93c-.54-.59-1.73-1.79-2.63-1.59s-.54,1.83-.49,2.5a24,24,0,0,0,.57,3.77,11.2,11.2,0,0,0-3.72,1c-1.23.58-1.67,1-.55,2,2.45,2.21,5.18,4.37,8.64,4.4h0a.38.38,0,0,0,.13.06.36.36,0,0,0,.32,0,1.49,1.49,0,0,0,.53-.17c3.86-.76,7.23-3,10.36-5.24C252.15,219.52,250.54,219,249.55,218.81Zm-16.77,3.38a9.61,9.61,0,0,1-1.59-1.39c-.24-.29-.34-.17-.11-.51.13-.17.59-.29.77-.38a10.49,10.49,0,0,1,3.44-.86l0,.12a14.18,14.18,0,0,0,2.15,4.44,11.2,11.2,0,0,1-3.8-3c-.06-.07-.31,0-.25.08a11.45,11.45,0,0,0,4.3,3.26,11.77,11.77,0,0,0,1,1.12A11.57,11.57,0,0,1,232.78,222.19Zm7,2.54c-1-2.85-2-5.71-2.9-8.6,0-.12-.3-.07-.26.05.92,2.93,1.9,5.83,2.95,8.72,0,0,.08.07.14.06a.17.17,0,0,0-.06.06,9.08,9.08,0,0,1-.83-.81s0-.05,0-.06h0a12.39,12.39,0,0,1-2.45-4.12c-.17-.45-.3-.91-.43-1.38a.28.28,0,0,0,0-.13c-.16-.63-.29-1.26-.39-1.9s-.16-1.14-.21-1.71c0-.35-.05-.71-.07-1.06s-.2-.71.22-.83c.9-.26,2.2,1.56,2.6,2.19a10.9,10.9,0,0,1,1.27,3.1c.21.82.41,1.69.55,2.57a.32.32,0,0,0,0,.14A9.89,9.89,0,0,1,239.75,224.73Zm.83-5.17v-1.25c0-.51,0-1,.06-1.54.06-1,.15-2,.28-3.06,0-.13-.24-.12-.26,0-.15,1.18-.26,2.38-.31,3.57,0,.52,0,1,0,1.56a8.48,8.48,0,0,0,0,.89,21.46,21.46,0,0,0-.79-2.8,10.24,10.24,0,0,0-.62-1.44,15.88,15.88,0,0,1,1.94-5.09c1.07,2,2.46,4.13,2.43,6.39a19.56,19.56,0,0,0-2.65,2.88A.52.52,0,0,0,240.58,219.56Zm-.22,5.47a8.19,8.19,0,0,0,.2-1.12,42.16,42.16,0,0,0,4-5.39c.08-.13-.18-.16-.25-.06a40.86,40.86,0,0,1-3.73,5,12.56,12.56,0,0,0-.1-2.59,19.06,19.06,0,0,1,3.18-3.64.28.28,0,0,0,.2-.17,18.56,18.56,0,0,1,2.85-2,25.37,25.37,0,0,1-1.25,4.37.71.71,0,0,0-.24.33.54.54,0,0,0,0,.18,8.16,8.16,0,0,1-.53.9,12.14,12.14,0,0,1-2.23,2.41c-.36.32-.74.62-1.12.91C241.24,224.29,240.74,224.75,240.36,225Zm9.76-4.85-.7.5c-.65.44-1.29.88-1.95,1.31a23.2,23.2,0,0,1-5.75,2.75l.07-.06c.54-.42,1.07-.85,1.57-1.31a46,46,0,0,1,4.53-2.93c.11-.07-.14-.07-.2,0-1.25.72-2.47,1.48-3.65,2.31.2-.21.39-.42.57-.64a8.66,8.66,0,0,0,1.21-1.89.25.25,0,0,0,.12-.16V220a.19.19,0,0,0,0-.08v0a6.16,6.16,0,0,1,2.22-.49,4.18,4.18,0,0,1,2.2.33l.3.08Z"/><path class="cls-5" d="M44.64,226.53a6.37,6.37,0,0,0-2.88.17l-.38.11c.54-1.46.85-3,1.25-4.55a.33.33,0,0,0-.46-.39A19.16,19.16,0,0,0,39,224c-.19-2.38-1.69-4.6-2.77-6.66a.33.33,0,0,0-.56,0,16.33,16.33,0,0,0-2.16,5.11,8.06,8.06,0,0,0-.73-.93c-.54-.59-1.73-1.79-2.62-1.59s-.55,1.83-.5,2.5a24.91,24.91,0,0,0,.57,3.76,11.4,11.4,0,0,0-3.71,1c-1.24.58-1.68,1-.56,2,2.45,2.21,5.19,4.36,8.64,4.39v0a.38.38,0,0,0,.13.06.33.33,0,0,0,.32,0,1.26,1.26,0,0,0,.54-.17c3.85-.75,7.22-3,10.35-5.23C47.24,227.23,45.63,226.7,44.64,226.53Z"/><path class="cls-4" d="M44.64,226.53a6.37,6.37,0,0,0-2.88.17l-.38.11c.54-1.46.85-3,1.25-4.55a.33.33,0,0,0-.46-.39A19.16,19.16,0,0,0,39,224c-.19-2.38-1.69-4.6-2.77-6.66a.33.33,0,0,0-.56,0,16.33,16.33,0,0,0-2.16,5.11,8.06,8.06,0,0,0-.73-.93c-.54-.59-1.73-1.79-2.62-1.59s-.55,1.83-.5,2.5a24.91,24.91,0,0,0,.57,3.76,11.4,11.4,0,0,0-3.71,1c-1.24.58-1.68,1-.56,2,2.45,2.21,5.19,4.36,8.64,4.39v0a.38.38,0,0,0,.13.06.33.33,0,0,0,.32,0,1.26,1.26,0,0,0,.54-.17c3.85-.75,7.22-3,10.35-5.23C47.24,227.23,45.63,226.7,44.64,226.53Zm-16.77,3.38a9.61,9.61,0,0,1-1.59-1.39c-.24-.29-.34-.18-.11-.51.13-.18.59-.3.77-.38a10.75,10.75,0,0,1,3.44-.87l0,.13a14.18,14.18,0,0,0,2.15,4.44,11.3,11.3,0,0,1-3.8-3c-.06-.07-.31,0-.25.08a11.45,11.45,0,0,0,4.3,3.26,11.77,11.77,0,0,0,1,1.12A11.57,11.57,0,0,1,27.87,229.91Zm7,2.53c-1-2.84-2-5.7-2.9-8.59,0-.12-.3-.07-.26.05q1.38,4.38,3,8.72s.08.06.14.06a.17.17,0,0,0-.06.06,9.18,9.18,0,0,1-.83-.82s0,0,0,0h0a12.49,12.49,0,0,1-2.45-4.12c-.17-.45-.3-.92-.43-1.38a.28.28,0,0,0,0-.13c-.16-.63-.29-1.26-.39-1.9s-.16-1.14-.21-1.71c0-.35,0-.71-.07-1.06s-.2-.71.22-.83c.9-.26,2.2,1.55,2.6,2.19a10.5,10.5,0,0,1,1.27,3.1c.21.82.41,1.69.55,2.57a.32.32,0,0,0,0,.14A9.83,9.83,0,0,1,34.84,232.44Zm.83-5.16V226c0-.52,0-1,.06-1.54.06-1,.15-2,.28-3.06,0-.13-.24-.12-.26,0-.15,1.18-.26,2.37-.31,3.57,0,.52,0,1,0,1.56a8.48,8.48,0,0,0,0,.89,22.07,22.07,0,0,0-.79-2.81,10.65,10.65,0,0,0-.62-1.43,15.88,15.88,0,0,1,1.94-5.09c1.07,2,2.46,4.13,2.43,6.39a19.07,19.07,0,0,0-2.65,2.88A.43.43,0,0,0,35.67,227.28Zm-.22,5.47a8.47,8.47,0,0,0,.2-1.12,42.16,42.16,0,0,0,4-5.39c.08-.13-.18-.16-.24-.06a42,42,0,0,1-3.74,5,12.56,12.56,0,0,0-.1-2.59A18.48,18.48,0,0,1,38.77,225a.28.28,0,0,0,.2-.17,18.62,18.62,0,0,1,2.85-2,25.37,25.37,0,0,1-1.25,4.37.79.79,0,0,0-.24.34.48.48,0,0,0,0,.17,8.29,8.29,0,0,1-.53.91A12.42,12.42,0,0,1,37.57,231c-.36.32-.74.62-1.12.91C36.33,232,35.83,232.46,35.45,232.75Zm9.76-4.85-.7.5c-.65.44-1.29.88-1.95,1.3a22.85,22.85,0,0,1-5.75,2.75l.07,0c.54-.42,1.07-.85,1.57-1.32A47.86,47.86,0,0,1,43,228.16c.12-.07-.14-.07-.2,0-1.25.71-2.47,1.48-3.65,2.31.2-.21.39-.42.57-.64a8.9,8.9,0,0,0,1.21-1.89.28.28,0,0,0,.12-.16v-.06a.22.22,0,0,0,0-.08v0a6.16,6.16,0,0,1,2.22-.49,4,4,0,0,1,2.2.33l.3.08Z"/><path class="cls-5" d="M161.21,201.67a10.2,10.2,0,0,0-4.63.13L156,202a73.32,73.32,0,0,0,2.23-7.25.53.53,0,0,0-.71-.65,31.21,31.21,0,0,0-5.25,3.23c-.17-3.84-2.49-7.48-4.11-10.85a.53.53,0,0,0-.9-.09,26,26,0,0,0-3.74,8.12,14.07,14.07,0,0,0-1.12-1.54c-.85-1-2.7-3-4.15-2.7s-1,2.93-.91,4a37.92,37.92,0,0,0,.73,6.09,18.22,18.22,0,0,0-6,1.4c-2,.87-2.74,1.46-1,3.13,3.83,3.67,8.13,7.28,13.68,7.5h0a.57.57,0,0,0,.21.12.63.63,0,0,0,.52.08,2.05,2.05,0,0,0,.86-.25c6.24-1,11.77-4.41,16.92-7.91C165.36,202.93,162.8,202,161.21,201.67Z"/><path class="cls-4" d="M161.21,201.67a10.2,10.2,0,0,0-4.63.13L156,202a73.32,73.32,0,0,0,2.23-7.25.53.53,0,0,0-.71-.65,31.21,31.21,0,0,0-5.25,3.23c-.17-3.84-2.49-7.48-4.11-10.85a.53.53,0,0,0-.9-.09,26.05,26.05,0,0,0-3.74,8.12,14.07,14.07,0,0,0-1.12-1.54c-.85-1-2.7-3-4.15-2.7s-1,2.93-.91,4a37.92,37.92,0,0,0,.73,6.09,18.22,18.22,0,0,0-6,1.4c-2,.87-2.74,1.46-1,3.13,3.83,3.67,8.13,7.28,13.68,7.5h0a.57.57,0,0,0,.21.12.63.63,0,0,0,.52.08,2.05,2.05,0,0,0,.86-.25c6.24-1,11.77-4.41,16.92-7.91C165.36,202.93,162.8,202,161.21,201.67Zm-27.15,4.61a17.17,17.17,0,0,1-2.5-2.31c-.36-.49-.53-.31-.14-.83.21-.28,1-.45,1.26-.58a16.91,16.91,0,0,1,5.57-1.22c0,.07,0,.14.05.21a22.8,22.8,0,0,0,3.24,7.25,18,18,0,0,1-6-5c-.1-.12-.51,0-.4.12a18.39,18.39,0,0,0,6.76,5.46,19.11,19.11,0,0,0,1.54,1.85C139.88,210.67,136.79,208.67,134.06,206.28Zm11.1,4.42q-2.28-6.94-4.25-14c-.06-.2-.48-.13-.43.06q2,7.14,4.32,14.18c0,.08.12.11.22.11s-.08,0-.1.09a16.38,16.38,0,0,1-1.29-1.35s0-.07-.06-.1l0,0A20,20,0,0,1,139.8,203a22,22,0,0,1-.62-2.25.5.5,0,0,0-.05-.21c-.23-1-.4-2-.53-3.07s-.2-1.84-.25-2.76c0-.57,0-1.15-.07-1.72s-.28-1.14.41-1.32c1.45-.37,3.45,2.61,4.07,3.65a17.3,17.3,0,0,1,1.88,5.05c.3,1.33.59,2.74.77,4.17a.44.44,0,0,0,0,.23A15.91,15.91,0,0,1,145.16,210.7Zm1.58-8.27V202c0-.53,0-1.07.06-1.6,0-.83.09-1.65.16-2.47.15-1.65.35-3.28.61-4.91,0-.22-.39-.22-.42,0-.3,1.9-.53,3.81-.67,5.73-.07.83-.11,1.67-.14,2.51a12.27,12.27,0,0,0-.09,1.42,36.31,36.31,0,0,0-1.12-4.54,17.53,17.53,0,0,0-.93-2.34,25.42,25.42,0,0,1,3.36-8.1c1.64,3.23,3.77,6.77,3.61,10.41a31.35,31.35,0,0,0-4.42,4.5A1.1,1.1,0,0,0,146.74,202.43Zm-.63,8.79a13.23,13.23,0,0,0,.38-1.79,67.26,67.26,0,0,0,6.74-8.48c.13-.2-.29-.26-.39-.1a66.62,66.62,0,0,1-6.26,7.94,20.08,20.08,0,0,0,0-4.17,30.61,30.61,0,0,1,5.3-5.71.48.48,0,0,0,.33-.26,30,30,0,0,1,4.7-3.12,42.9,42.9,0,0,1-2.24,7,1.12,1.12,0,0,0-.4.54.49.49,0,0,0,0,.27,14.17,14.17,0,0,1-.89,1.43,20.37,20.37,0,0,1-3.71,3.77c-.61.49-1.23,1-1.86,1.42C147.56,210.07,146.73,210.78,146.11,211.22Zm16-7.32-1.17.76c-1.05.69-2.11,1.37-3.2,2a36.7,36.7,0,0,1-9.38,4.14l.11-.08c.89-.64,1.77-1.32,2.6-2a74.71,74.71,0,0,1,7.43-4.48c.19-.1-.23-.12-.32-.07q-3.07,1.62-6,3.53c.33-.33.65-.66,1-1a14.68,14.68,0,0,0,2-3,.41.41,0,0,0,.2-.26l0-.09s0-.08,0-.12v0a10,10,0,0,1,3.6-.68c1,0,2.73,0,3.52.64l.47.15Z"/><path class="cls-5" d="M146.92,199.19a8.33,8.33,0,0,0-3.43,1.36l-.43.29a58.29,58.29,0,0,0-.32-6,.42.42,0,0,0-.71-.29,24.21,24.21,0,0,0-3,3.85c-1.19-2.81-3.92-4.89-6.06-7a.43.43,0,0,0-.7.19,20.93,20.93,0,0,0-.56,7.09,10.61,10.61,0,0,0-1.26-.84c-.9-.5-2.83-1.48-3.84-.88s.08,2.45.42,3.25a29.57,29.57,0,0,0,2.22,4.34,14.5,14.5,0,0,0-4.12,2.71c-1.27,1.21-1.64,1.84.12,2.61,3.87,1.69,8.07,3.2,12.28,1.84h0a.43.43,0,0,0,.19,0,.47.47,0,0,0,.41-.08,1.51,1.51,0,0,0,.57-.42c4.38-2.48,7.58-6.53,10.46-10.56C150.36,199,148.19,199,146.92,199.19Z"/><path class="cls-4" d="M146.92,199.19a8.33,8.33,0,0,0-3.43,1.36l-.43.29a58.29,58.29,0,0,0-.32-6,.42.42,0,0,0-.71-.29,24.21,24.21,0,0,0-3,3.85c-1.19-2.81-3.92-4.89-6.06-7a.43.43,0,0,0-.7.19,20.93,20.93,0,0,0-.56,7.09,10.61,10.61,0,0,0-1.26-.84c-.9-.5-2.83-1.48-3.84-.88s.08,2.45.42,3.25a29.57,29.57,0,0,0,2.22,4.34,14.5,14.5,0,0,0-4.12,2.71c-1.27,1.21-1.64,1.84.12,2.61,3.87,1.69,8.07,3.2,12.28,1.84h0a.43.43,0,0,0,.19,0,.47.47,0,0,0,.41-.08,1.51,1.51,0,0,0,.57-.42c4.38-2.48,7.58-6.53,10.46-10.56C150.36,199,148.19,199,146.92,199.19Zm-19,10.91a13.09,13.09,0,0,1-2.5-1c-.4-.26-.48-.08-.33-.57.08-.27.59-.6.78-.78a13.53,13.53,0,0,1,3.83-2.45l.09.14a18.1,18.1,0,0,0,4.41,4.53,14.4,14.4,0,0,1-5.84-2.12c-.1-.06-.38.13-.27.2a14.65,14.65,0,0,0,6.55,2.22,15.94,15.94,0,0,0,1.66,1A14.89,14.89,0,0,1,127.9,210.1Zm9.51.25q-3.61-4.56-7-9.27c-.09-.13-.39,0-.3.16q3.45,4.78,7.12,9.4a.17.17,0,0,0,.2,0,.41.41,0,0,0,0,.09,13.77,13.77,0,0,1-1.34-.65s0-.06-.07-.06h0a16.11,16.11,0,0,1-4.65-4c-.38-.49-.74-1-1.07-1.51a.56.56,0,0,0-.1-.15c-.45-.69-.86-1.41-1.24-2.14s-.65-1.32-1-2c-.18-.42-.35-.84-.52-1.26s-.52-.78-.06-1.1c1-.68,3.3,1,4,1.61a13.54,13.54,0,0,1,2.79,3.25c.59.91,1.19,1.89,1.72,2.91a.35.35,0,0,0,.08.16A12.81,12.81,0,0,1,137.41,210.35Zm-1.09-6.61c0-.11-.07-.21-.11-.31-.14-.41-.27-.81-.4-1.22-.19-.63-.38-1.26-.55-1.89-.35-1.27-.64-2.55-.9-3.84,0-.17-.35,0-.32.11.3,1.5.65,3,1.07,4.46.19.64.38,1.28.59,1.92a9.93,9.93,0,0,0,.33,1.08,28.07,28.07,0,0,0-2.09-3.08,14.65,14.65,0,0,0-1.34-1.5,20.16,20.16,0,0,1,.29-7c2.11,2,4.68,4,5.55,6.78a25.15,25.15,0,0,0-2.06,4.58A.34.34,0,0,0,136.32,203.74Zm1.94,6.73a10.17,10.17,0,0,0-.2-1.44,53.41,53.41,0,0,0,2.7-8.19c0-.18-.29-.12-.32,0a52.72,52.72,0,0,1-2.5,7.66,15.46,15.46,0,0,0-1.17-3.11,24.2,24.2,0,0,1,2.39-5.72.35.35,0,0,0,.17-.28A24.52,24.52,0,0,1,142,195.8a33.32,33.32,0,0,1,.25,5.82.85.85,0,0,0-.15.51.47.47,0,0,0,.06.2,9.51,9.51,0,0,1-.27,1.31,16.05,16.05,0,0,1-1.73,3.85c-.32.53-.65,1-1,1.56C139,209.21,138.61,210,138.26,210.47Zm9.91-9.86-.66.9c-.6.8-1.2,1.6-1.84,2.38a28.93,28.93,0,0,1-5.87,5.67l.06-.09c.49-.73,1-1.47,1.39-2.24a58.81,58.81,0,0,1,4.31-5.39c.11-.13-.2,0-.26,0q-1.85,2.07-3.5,4.29c.15-.33.3-.67.44-1a11.65,11.65,0,0,0,.7-2.79.31.31,0,0,0,.08-.24V202a.36.36,0,0,0,0-.1v0a7.8,7.8,0,0,1,2.51-1.49,5.2,5.2,0,0,1,2.8-.5l.39,0C148.52,200.14,148.35,200.38,148.17,200.61Z"/><path class="cls-5" d="M209.18,188.19a19.44,19.44,0,0,1-8.24,13.14.45.45,0,0,0-.43.14c-1.35-.55-2-2.19-2.78-3.36a5.47,5.47,0,0,0-2.5-2l-.62-.26A35,35,0,0,0,209.18,188.19Z"/><path class="cls-5" d="M167.09,190.73c-.2-2.75-.12-6.3,1.38-8.76a10.89,10.89,0,0,1,.2,2.23,16.94,16.94,0,0,0,.31,1.73,12.58,12.58,0,0,0,1.47,3.74,9,9,0,0,0,5.11,4,19.39,19.39,0,0,0-4.24,5C168.58,197,167.32,193.88,167.09,190.73Z"/><path class="cls-5" d="M200,209.84c-.58.88-1.61,2.59-2.63,3s-1.44-.55-2.41-.41c-1.82.26-1.66,2.8-2.26,4-1.09,2.25-3.36,4.06-5.22,5.65-.63.54-2.78,2.84-3.5,2.21-.07-.07-.14-.59-.22-.72a1.75,1.75,0,0,0-.52-.53,2.46,2.46,0,0,0-3.23.6,6.37,6.37,0,0,0-1.07,2.28c-.34,1-.62,1.22-1.76,1.32-.69.05-1.42,0-2.11,0-1.37,0-2.74,0-4.11-.1-.78,0-2.62-.46-3.15-1.32a.49.49,0,0,0,.08-.21,8.59,8.59,0,0,1,.22-1.25h0a.37.37,0,0,0,.09-.38c.63-2.22,1.92-4.24,2.18-6.57.33-3-1-5.92-1-8.93a19,19,0,0,1,7.27-14.64.34.34,0,0,0,.13-.34,6,6,0,0,1,3.64-1.36,8.74,8.74,0,0,1,3.7,1c2.19.9,4.54-.08,6.71.67,1.14.4,1.57,1.59,2.52,2.23,1.18.79,2.55,1,3.47,2.15,1.26,1.6,1.94,3.84,4.15,4.18C202.85,204.56,201.36,207.74,200,209.84Z"/><path class="cls-4" d="M210.12,187.16c0-.38-.46-.52-.7-.29a34.07,34.07,0,0,1-15.85,8.39l-.2-.18c-.46-.44-.74-1-1.24-1.41a4.45,4.45,0,0,0-2.59-.84c-1.26-.06-2.52.16-3.76,0s-2.42-1-3.71-1.31a6.91,6.91,0,0,0-6,1.49l-.07,0a8.75,8.75,0,0,1-5.89-5.91,16.33,16.33,0,0,1-.78-4.27c-.05-.76,0-1.43-.71-1.88a.42.42,0,0,0-.56.15c-2.06,2.77-2.16,7.36-1.73,10.64a10.43,10.43,0,0,0,4.54,7.72,19.87,19.87,0,0,0-2.3,7.85,18.63,18.63,0,0,0,.12,3.95c.25,1.84.91,3.65.86,5.52-.08,2.56-1.54,4.8-2.23,7.23a2.3,2.3,0,0,0,.32,3c1.34,1.35,3.81,1,5.51,1.08l4,.1c.69,0,1.42.09,1.93-.47a6.74,6.74,0,0,0,.86-2.21,3,3,0,0,1,1.19-1.63,1.34,1.34,0,0,1,1-.22c.75.12.75.41,1,1.13.49,1.5,1.69.56,2.58-.13a49.77,49.77,0,0,0,5.5-4.86,10.43,10.43,0,0,0,2.83-5.1,2.63,2.63,0,0,1,.28-.83c1.35-1.61,1-.31,1.52-.07a3.29,3.29,0,0,0,.52.29c.82.23,1.53-.53,2-1,2.48-2.45,6.05-7.69,3.29-11a.4.4,0,0,0-.07-.19A20.24,20.24,0,0,0,210.12,187.16Zm-43,3.57c-.2-2.75-.12-6.3,1.38-8.76a10.89,10.89,0,0,1,.2,2.23,16.94,16.94,0,0,0,.31,1.73,12.58,12.58,0,0,0,1.47,3.74,9,9,0,0,0,5.11,4,19.39,19.39,0,0,0-4.24,5C168.58,197,167.32,193.88,167.09,190.73ZM200,209.84c-.58.88-1.61,2.59-2.63,3s-1.44-.55-2.41-.41c-1.82.26-1.66,2.8-2.26,4-1.09,2.25-3.36,4.06-5.22,5.65-.63.54-2.78,2.84-3.5,2.21-.07-.07-.14-.59-.22-.72a1.75,1.75,0,0,0-.52-.53,2.46,2.46,0,0,0-3.23.6,6.37,6.37,0,0,0-1.07,2.28c-.2.61-.39.92-.73,1.1a.35.35,0,0,0-.34,0l-1.29-.29a8.23,8.23,0,0,1,0-.86,2,2,0,0,0-.06-.58c0-.18-.56-.05-.52.14l0,.68h0c-.75,1.13-1.34,1.29-1.8.46-.46-.54-.37-.67-.35-1.35,0-.22-.48-.09-.53.07-.2.72-.6,2.14-1.76,1.74-1-.35-.46-1.35-.25-2,.07-.22-.45,0-.51,0-.21.24-.21.53-.38.75-1,1.24-1.75,1.09-2.34-.09,0-.07-.13-.08-.23-.07a.43.43,0,0,1,0-.05,8.59,8.59,0,0,1,.22-1.25h0a.37.37,0,0,0,.09-.38c.63-2.22,1.92-4.24,2.18-6.57.33-3-1-5.92-1-8.93a19,19,0,0,1,7.27-14.64.33.33,0,0,0,.13-.34,6,6,0,0,1,3.64-1.36,8.74,8.74,0,0,1,3.7,1c2.19.9,4.54-.08,6.71.67,1.14.4,1.57,1.59,2.52,2.23,1.18.79,2.55,1,3.47,2.15,1.26,1.6,1.94,3.84,4.15,4.18C202.85,204.56,201.36,207.74,200,209.84Zm1-8.51a.45.45,0,0,0-.43.14c-1.35-.55-2-2.19-2.78-3.36a5.47,5.47,0,0,0-2.5-2l-.62-.26a35,35,0,0,0,14.57-7.66A19.44,19.44,0,0,1,200.94,201.33Z"/><path class="cls-4" d="M192.52,204.29a5.39,5.39,0,1,0,0,.17.28.28,0,0,0,0-.09A.19.19,0,0,0,192.52,204.29Zm-4.29,1.83a4.68,4.68,0,0,0,.62-2,.36.36,0,0,0,0-.24l.09-.4a5.58,5.58,0,0,1-.77,3C188.16,206.34,188.19,206.23,188.23,206.12Zm-1.09-6.46a3.81,3.81,0,0,1,.59.05.33.33,0,0,0,0,.35l0,.08a.38.38,0,0,0-.09.15,1.64,1.64,0,0,0-.78-.62Zm.21,6.26h0l-.07.19a2.86,2.86,0,0,1-.4.45Zm-3.91-2.85-.07.21a.42.42,0,0,0-.11.26v.05h-.12a4.17,4.17,0,0,1,.31-.54S183.44,203.06,183.44,203.07Zm-.58-.63a4.73,4.73,0,0,1,1.7-2A12.93,12.93,0,0,0,182.86,202.44Zm2-1h0a1.94,1.94,0,0,1,.26-.23v.17l-.1.06Zm.52,6.88a1.54,1.54,0,0,1-.34-.17.44.44,0,0,0,.1-.23,1.41,1.41,0,0,0,.29,0l-.05.26A.75.75,0,0,0,185.39,208.33Zm1.43.73a6.7,6.7,0,0,0,1.84-9.14,4.82,4.82,0,0,1,1.32.72.2.2,0,0,0,0,.13,9.2,9.2,0,0,1-1.22,7.89.2.2,0,0,0-.05.14,4.56,4.56,0,0,1-1.58.28Zm2.77-.69a9.67,9.67,0,0,0,1.11-7,5.09,5.09,0,0,1,1.15,3A4.93,4.93,0,0,1,189.59,208.37Z"/><path class="cls-4" d="M186.51,211.64a7.48,7.48,0,0,1-5.73-7.85c0-.25-.52-.17-.53.05A7.74,7.74,0,0,0,186.2,212C186.4,212,186.82,211.72,186.51,211.64Z"/><path class="cls-4" d="M190.39,215.92a22.27,22.27,0,0,0-1.85,2.67,10.34,10.34,0,0,1-3.13,2.94c-.21.14.31.08.4,0a11.23,11.23,0,0,0,2.62-2.18c.9-1.1,1.48-2.41,2.43-3.48C191,215.76,190.47,215.82,190.39,215.92Z"/><path class="cls-4" d="M193.66,212.07a.43.43,0,0,0-.37.1l-.58.5c-.09.07-.05.14,0,.17a.51.51,0,0,0,.38-.1l.58-.5C193.8,212.17,193.76,212.1,193.66,212.07Z"/><path class="cls-4" d="M199.81,208a6.09,6.09,0,0,1-2.25,3.38c-.23.17.29.17.42.07a6.37,6.37,0,0,0,2.35-3.52C200.38,207.76,199.85,207.83,199.81,208Z"/><path class="cls-4" d="M176.13,219.8a7.18,7.18,0,0,1-.63-3,4.3,4.3,0,0,0-.19-2.14,1.59,1.59,0,0,0-2-.47,3.07,3.07,0,0,0-1.52,2.58,14.8,14.8,0,0,1-1.85,5.67.48.48,0,0,0-.27,0c-.67.41-.32,1.08.33,1.26,1.45.4,2.91-.42,4.3-.27.88.09,1.77,1,2.57.08S176.59,220.8,176.13,219.8Z"/><path class="cls-4" d="M170.59,195.78a4.94,4.94,0,0,1-1.82-4.65c0-.12-.5,0-.52.1a5,5,0,0,0,1.84,4.73C170.2,196.05,170.67,195.85,170.59,195.78Z"/><path class="cls-4" d="M200.22,199.05c-1.34-.6-1.58-2.72-3.2-2.81-.12,0-.6.22-.34.23,1.47.08,1.85,2.23,3.12,2.79C199.92,199.31,200.39,199.12,200.22,199.05Z"/><path class="cls-4" d="M181,210.15a8.5,8.5,0,0,1-1.61-3.93c0-.22-.56-.09-.53.14a8.81,8.81,0,0,0,1.65,4C180.64,210.54,181.14,210.34,181,210.15Z"/><path class="cls-4" d="M175.44,211.38l-.18-.17c-.11-.11-.6.08-.49.19l.18.18C175.06,211.69,175.55,211.5,175.44,211.38Z"/><path class="cls-4" d="M178.05,219.49a4.36,4.36,0,0,1-1.06-2.82c0-.29-.53-.23-.53,0a4.66,4.66,0,0,0,1.11,3C177.74,219.93,178.23,219.71,178.05,219.49Z"/><path class="cls-4" d="M175.52,197.16a20.46,20.46,0,0,0-5.42,10.38s.49,0,.52-.14A20.3,20.3,0,0,1,176,197.11C176.09,197,175.61,197.08,175.52,197.16Z"/><path class="cls-4" d="M183.54,194.3a4.72,4.72,0,0,0-3.38-.78c-.13,0-.57.24-.23.19a4.36,4.36,0,0,1,3.11.77C183.16,194.56,183.6,194.34,183.54,194.3Z"/><path class="cls-4" d="M205.83,193.81l-1.92,2.41c-.15.19.38.17.49,0l1.93-2.41C206.48,193.64,206,193.67,205.83,193.81Z"/><path class="cls-4" d="M201,195.32l-.35.34c-.21.22.3.21.42.09l.35-.35C201.62,195.18,201.11,195.2,201,195.32Z"/></g></g></svg>