<?xml version="1.0" encoding="utf-8"?>
<!-- Generator: Adobe Illustrator 26.0.1, SVG Export Plug-In . SVG Version: 6.00 Build 0)  -->
<svg version="1.1" id="Layer_1" xmlns="http://www.w3.org/2000/svg" xmlns:xlink="http://www.w3.org/1999/xlink" x="0px" y="0px"
	 viewBox="0 0 357 276" style="enable-background:new 0 0 357 276;" xml:space="preserve">
<style type="text/css">
	.st0{fill:#CCCCCC;}
	.st1{fill:#F2F2F2;}
	.st2{fill:#A2A2A2;}
	.st3{fill:#E6E6E6;}
	.st4{opacity:0.7;fill:#FCE3CA;enable-background:new    ;}
	.st5{fill:#FCE3CA;}
	.st6{fill:#DCDDDC;}
	.st7{fill:#EAECEB;}
	.st8{fill:#CACACA;}
	.st9{opacity:0.5;fill:#F3A354;enable-background:new    ;}
	.st10{fill:#FCE3CA;enable-background:new    ;}
	.st11{opacity:0.1;fill:#FEC400;stroke:#FFF1B1;stroke-width:0.1548;enable-background:new    ;}
	.st12{opacity:0.8;fill:#FF8201;stroke:#FFF1B1;stroke-width:0.1548;enable-background:new    ;}
	.st13{fill:none;stroke:#FFF1B1;stroke-width:0.1548;stroke-miterlimit:10;}
	.st14{fill:none;stroke:#A2A2A2;stroke-width:0.1548;stroke-miterlimit:10;}
	.st15{opacity:0.8;fill:#FF8201;enable-background:new    ;}
	.st16{opacity:0.7;fill:#FF8201;enable-background:new    ;}
	.st17{fill:#FFFFFF;}
	.st18{fill:#FFB201;}
	.st19{fill:#FF8201;}
	.st20{fill:#272425;}
	.st21{fill:#F3A354;}
	.st22{fill:#CFD1D2;}
	.st23{fill:#FFF1B1;}
	.st24{fill:url(#SVGID_1_);}
	.st25{fill:url(#SVGID_00000149381878355496850900000007986315880568624829_);}
	.st26{fill:url(#SVGID_00000050660560392468208380000007762522110166000776_);}
	.st27{fill:url(#SVGID_00000137819552499344388990000009909593898167876519_);}
	.st28{fill:#F5BF28;}
	.st29{fill:url(#SVGID_00000120520767702208093440000001209209801531004548_);}
	.st30{fill:url(#SVGID_00000162354045396019987440000010355875823084800917_);}
	.st31{fill:#FFE773;}
	.st32{fill:url(#SVGID_00000178168304347521562450000015752089390658623365_);}
	.st33{fill:url(#SVGID_00000026151193664218602360000011250040115279373952_);}
	.st34{fill:#EDAE10;}
	.st35{fill:url(#SVGID_00000038410220476210738970000009302848276008540837_);}
	.st36{fill:url(#SVGID_00000158010720513694154950000014742532858794782639_);}
	.st37{fill:url(#SVGID_00000090257209414871055820000011913904857894814094_);}
	.st38{fill:url(#SVGID_00000114056496765744355470000000744525921124285609_);}
	.st39{fill:url(#SVGID_00000139980387560827272210000009938361344994584463_);}
	.st40{fill:url(#SVGID_00000073688586599390621360000016249317095997685682_);}
	.st41{fill:url(#SVGID_00000136398708066601897650000005046695404283498647_);}
	.st42{fill:url(#SVGID_00000132083315603763037370000001010498609858772102_);}
	.st43{fill:#F5C73F;}
	.st44{fill:url(#SVGID_00000170972254997425883060000000435840518163331244_);}
	.st45{fill:url(#SVGID_00000135657899631060701560000000237764410670348707_);}
	.st46{fill:url(#SVGID_00000012432730900870979570000009804954468707744681_);}
	.st47{fill:url(#SVGID_00000018935667384540722350000017307906952417630888_);}
	.st48{fill:url(#SVGID_00000105412210980419539790000002274056956326088095_);}
	.st49{fill:url(#SVGID_00000053506398870032187450000010585921295130601359_);}
	.st50{fill:url(#SVGID_00000065784682597713577120000018237411630866530737_);}
	.st51{fill:url(#SVGID_00000072958338623001545110000017604903191043823275_);}
	.st52{fill:url(#SVGID_00000093164114726268293910000005950474542716921750_);}
	.st53{fill:url(#SVGID_00000120518992094038489530000005818474845469665954_);}
</style>
<path class="st0" d="M17.5,191.3c0,0-0.1,0-0.1-0.1l-0.1-0.1v-3.4c0,0,0-0.1,0.1-0.1l0.1-0.1c0,0,0.1,0,0.1,0.1l0.1,0.1v3.4
	c0,0,0,0.1-0.1,0.1C17.5,191.3,17.5,191.3,17.5,191.3z"/>
<path class="st0" d="M17.5,190.2h-0.1l-2.1-1.8c0,0,0,0,0-0.1c0,0,0,0,0-0.1c0,0,0,0,0-0.1s0,0,0-0.1c0,0,0,0,0.1,0c0,0,0,0,0.1,0
	c0,0,0,0,0.1,0c0,0,0,0,0.1,0l2.1,1.8c0,0,0,0.1,0.1,0.1v0.1C17.6,190.1,17.6,190.1,17.5,190.2C17.5,190.1,17.5,190.2,17.5,190.2
	L17.5,190.2z"/>
<path class="st1" d="M30.9,191.2c0-1.7,0.7-3.4,1.9-4.6c1.2-1.2,2.8-1.9,4.6-1.9c1.7,0,3.3,0.7,4.6,1.9c1.2,1.2,1.9,2.9,1.9,4.6"/>
<path class="st0" d="M37.3,191.2c0,0-0.1,0-0.1-0.1l-0.1-0.1v-3.4c0,0,0-0.1,0.1-0.1l0.1-0.1c0,0,0.1,0,0.1,0.1l0.1,0.1v3.4
	c0,0,0,0.1-0.1,0.1C37.4,191.2,37.3,191.2,37.3,191.2z"/>
<path class="st0" d="M37.3,190L37.3,190l-2.2-1.8c0,0,0,0,0-0.1c0,0,0,0,0-0.1c0,0,0,0,0-0.1s0,0,0-0.1c0,0,0,0,0.1,0c0,0,0,0,0.1,0
	c0,0,0,0,0.1,0c0,0,0,0,0.1,0l2.1,1.8c0,0,0,0.1,0.1,0.1v0.1C37.5,190,37.4,190,37.3,190C37.4,190,37.3,190,37.3,190L37.3,190z"/>
<path class="st1" d="M20.6,238.5c6.2,0,11.3-1.2,11.3-2.6c0-1.5-5-2.6-11.3-2.6s-11.3,1.2-11.3,2.6C9.4,237.3,14.4,238.5,20.6,238.5
	z"/>
<path class="st2" d="M82.1,204.7c0.1,0,0.3-0.1,0.4-0.2c0.1-0.1,0.2-0.2,0.2-0.4c0-0.1-0.1-0.3-0.2-0.4c-0.1-0.1-0.2-0.2-0.4-0.2h-5
	v-2.1h5c0.1,0,0.3-0.1,0.4-0.2c0.1-0.1,0.2-0.2,0.2-0.4c0-0.1-0.1-0.3-0.2-0.4c-0.1-0.1-0.2-0.2-0.4-0.2H39.2
	c-0.1,0-0.3,0.1-0.4,0.2c-0.1,0.1-0.2,0.2-0.2,0.4c0,0.1,0.1,0.3,0.2,0.4c0.1,0.1,0.2,0.2,0.4,0.2h5v2.1h-5c-0.1,0-0.3,0.1-0.4,0.2
	c-0.1,0.1-0.2,0.2-0.2,0.4c0,0.1,0.1,0.3,0.2,0.4c0.1,0.1,0.2,0.2,0.4,0.2h5v2.1h-5c-0.1,0-0.3,0.1-0.4,0.2
	c-0.1,0.1-0.2,0.2-0.2,0.4c0,0.1,0.1,0.3,0.2,0.4c0.1,0.1,0.2,0.2,0.4,0.2h5v2.1h-4.5c-0.3,0-0.5,0.1-0.7,0.3s-0.3,0.5-0.3,0.8
	s0.1,0.6,0.3,0.8s0.5,0.3,0.7,0.3H44c0,0.1,0,0.2,0,0.3v7.5c0,0.2,0.1,0.4,0.2,0.6c0.1,0.2,0.4,0.2,0.6,0.2c0.2,0,0.4-0.1,0.6-0.2
	c0.1-0.2,0.2-0.4,0.2-0.6v-7.5c0-0.1,0-0.2,0-0.3h30.3c0,0.1,0,0.2,0,0.3v7.5c0,0.2,0.1,0.4,0.2,0.6c0.1,0.2,0.4,0.2,0.6,0.2
	s0.4-0.1,0.6-0.2c0.1-0.2,0.2-0.4,0.2-0.6v-7.5c0-0.1,0-0.2,0-0.3h4.3c0.3,0,0.5-0.1,0.7-0.3s0.3-0.5,0.3-0.8s-0.1-0.6-0.3-0.8
	c-0.2-0.2-0.5-0.3-0.7-0.3H77V208h5c0.1,0,0.3-0.1,0.4-0.2c0.1-0.1,0.2-0.2,0.2-0.4c0-0.1-0.1-0.3-0.2-0.4c-0.1-0.1-0.2-0.2-0.4-0.2
	h-5v-2.1H82.1z M45.3,201.5H76v2.1H45.3V201.5z M76,210H45.3v-2.1H76V210z M76,206.8H45.3v-2.1H76V206.8z"/>
<path class="st3" d="M345.4,192.5H0.3c-0.1,0-0.2,0-0.2-0.1C0,192.3,0,192.3,0,192.2s0-0.2,0.1-0.3s0.1-0.1,0.2-0.1h345.1
	c0.1,0,0.2,0,0.2,0.1c0.1,0.1,0.1,0.2,0.1,0.3s0,0.2-0.1,0.3C345.6,192.5,345.5,192.5,345.4,192.5z"/>
<path class="st3" d="M247.4,206.4h-34.9c-0.1,0-0.2,0-0.3-0.1s-0.1-0.2-0.1-0.3s0-0.2,0.1-0.3s0.2-0.1,0.3-0.1h34.9
	c0.1,0,0.2,0,0.3,0.1s0.1,0.2,0.1,0.3s0,0.2-0.1,0.3C247.6,206.4,247.5,206.4,247.4,206.4z"/>
<path class="st4" d="M270,69.3c6.8,0,12.4-5.6,12.4-12.4c0-6.9-5.5-12.4-12.4-12.4c-6.8,0-12.4,5.6-12.4,12.4
	C257.6,63.8,263.2,69.3,270,69.3z"/>
<path class="st5" d="M10.5,95.9c3-9.2,10.2-16.4,18.7-20.7c10.2-5,21.8-5.6,32.8-3.7c11.9,2.1,23,7,33.8,12.4
	c10.6,5.2,20.9,10.8,31.9,15.1c21.9,8.6,45.1,13.5,68.7,14.2c21.2,0.7,43.8-1.6,62-13.5c16.6-10.9,27.2-29,32.7-47.7
	c0.7-2.4,1.3-4.8,1.9-7.3c0.2-0.7-0.9-1-1.1-0.3c-4.4,19.6-13.9,39-30.1,51.5c-17.5,13.5-40.5,16.7-62,16.3
	c-23.8-0.4-47.3-5-69.6-13.4c-11.3-4.3-21.9-9.9-32.6-15.3C87,78.3,76.2,73.3,64.7,70.9c-10.6-2.2-21.9-2.4-32.1,1.6
	c-8.4,3.2-16,9-20.5,17c-1.1,1.9-2,4-2.7,6.1C9.2,96.3,10.3,96.6,10.5,95.9z"/>
<path class="st6" d="M194.1,164.9c0-6.6-5.4-22.4-12-22.4s-12,15.8-12,22.4c0,3.2,1.3,6.3,3.5,8.5c2.3,2.3,5.3,3.5,8.5,3.5
	s6.2-1.3,8.5-3.5C192.8,171.2,194.1,168.1,194.1,164.9L194.1,164.9z"/>
<path class="st7" d="M191.1,164.9c0-6.6-5.4-22.4-12-22.4s-12,15.8-12,22.4c0,3.2,1.3,6.3,3.5,8.5c2.3,2.3,5.3,3.5,8.5,3.5
	s6.2-1.3,8.5-3.5C189.8,171.2,191.1,168.1,191.1,164.9L191.1,164.9z"/>
<path class="st8" d="M179.4,191.8c-0.1,0-0.2,0-0.3-0.1s-0.1-0.2-0.1-0.3v-33.5c0-0.1,0-0.2,0.1-0.3s0.2-0.1,0.3-0.1s0.2,0,0.3,0.1
	s0.1,0.2,0.1,0.3v33.5c0,0.1,0,0.2-0.1,0.3C179.6,191.8,179.5,191.8,179.4,191.8z"/>
<path class="st8" d="M179.4,163.4c-0.1,0-0.1,0-0.2-0.1c-0.1,0-0.1-0.1-0.1-0.2c0-0.1,0-0.1,0-0.2c0-0.1,0.1-0.1,0.1-0.2l4.9-4.9
	c0.1-0.1,0.2-0.1,0.3-0.1s0.2,0,0.3,0.1s0.1,0.2,0.1,0.3s0,0.2-0.1,0.3l-4.9,4.9l-0.1,0.1C179.5,163.4,179.5,163.4,179.4,163.4z"/>
<path class="st5" d="M81.9,63.5h-6c-0.4,0-0.9-0.2-1.2-0.5c-0.3-0.3-0.5-0.7-0.5-1.2V47.9c0-0.4,0.2-0.9,0.5-1.2s0.7-0.5,1.2-0.5h6
	c0.4,0,0.9,0.2,1.2,0.5c0.3,0.3,0.5,0.7,0.5,1.2v13.9c0,0.4-0.2,0.9-0.5,1.2C82.8,63.3,82.4,63.5,81.9,63.5z"/>
<path class="st5" d="M105.6,193.2H74.8c-0.8,0-1.7-0.3-2.3-0.9s-0.9-1.4-0.9-2.3V65.5c0-0.8,0.3-1.7,0.9-2.3s1.4-0.9,2.3-0.9h30.8
	c0.8,0,1.7,0.3,2.3,0.9c0.6,0.6,0.9,1.4,0.9,2.3V190c0,0.8-0.3,1.7-0.9,2.3C107.2,192.9,106.4,193.2,105.6,193.2z"/>
<path class="st5" d="M87.2,193.2H56.4c-0.8,0-1.7-0.3-2.3-0.9c-0.6-0.6-0.9-1.4-0.9-2.3V65.5c0-0.8,0.3-1.7,0.9-2.3
	c0.6-0.6,1.4-0.9,2.3-0.9h30.8c0.8,0,1.7,0.3,2.3,0.9c0.6,0.6,0.9,1.4,0.9,2.3V190c0,0.8-0.3,1.7-0.9,2.3
	C88.9,192.9,88,193.2,87.2,193.2z"/>
<path class="st5" d="M76.3,63.5h-6c-0.4,0-0.9-0.2-1.2-0.5c-0.3-0.3-0.5-0.7-0.5-1.2V47.9c0-0.4,0.2-0.9,0.5-1.2s0.7-0.5,1.2-0.5h6
	c0.4,0,0.9,0.2,1.2,0.5c0.3,0.3,0.5,0.7,0.5,1.2v13.9c0,0.4-0.2,0.9-0.5,1.2C77.2,63.3,76.8,63.5,76.3,63.5z"/>
<path class="st9" d="M68.4,90.6h-7.1c-0.2,0-0.5-0.1-0.7-0.3c-0.2-0.2-0.3-0.4-0.3-0.7V78.7c0-0.2,0.1-0.5,0.3-0.7s0.4-0.3,0.7-0.3
	h7.1c0.2,0,0.5,0.1,0.7,0.3c0.2,0.2,0.3,0.4,0.3,0.7v10.9c0,0.2-0.1,0.5-0.3,0.7C68.9,90.5,68.7,90.6,68.4,90.6z"/>
<path class="st9" d="M82.3,90.6h-7.1c-0.2,0-0.5-0.1-0.7-0.3c-0.2-0.2-0.3-0.4-0.3-0.7V78.7c0-0.2,0.1-0.5,0.3-0.7
	c0.2-0.2,0.4-0.3,0.7-0.3h7.1c0.2,0,0.5,0.1,0.7,0.3c0.2,0.2,0.3,0.4,0.3,0.7v10.9c0,0.2-0.1,0.5-0.3,0.7
	C82.8,90.5,82.6,90.6,82.3,90.6z"/>
<path class="st9" d="M68.4,110.5h-7.1c-0.2,0-0.5-0.1-0.7-0.3c-0.2-0.2-0.3-0.4-0.3-0.7V98.6c0-0.2,0.1-0.5,0.3-0.7s0.4-0.3,0.7-0.3
	h7.1c0.2,0,0.5,0.1,0.7,0.3c0.2,0.2,0.3,0.4,0.3,0.7v10.9c0,0.2-0.1,0.5-0.3,0.7C68.9,110.4,68.7,110.5,68.4,110.5z"/>
<path class="st9" d="M82.3,110.5h-7.1c-0.2,0-0.5-0.1-0.7-0.3c-0.2-0.2-0.3-0.4-0.3-0.7V98.6c0-0.2,0.1-0.5,0.3-0.7
	c0.2-0.2,0.4-0.3,0.7-0.3h7.1c0.2,0,0.5,0.1,0.7,0.3c0.2,0.2,0.3,0.4,0.3,0.7v10.9c0,0.2-0.1,0.5-0.3,0.7
	C82.8,110.4,82.6,110.5,82.3,110.5z"/>
<path class="st9" d="M68.4,130.4h-7.1c-0.2,0-0.5-0.1-0.7-0.3s-0.3-0.4-0.3-0.7v-10.9c0-0.2,0.1-0.5,0.3-0.7s0.4-0.3,0.7-0.3h7.1
	c0.2,0,0.5,0.1,0.7,0.3c0.2,0.2,0.3,0.4,0.3,0.7v10.9c0,0.2-0.1,0.5-0.3,0.7C68.9,130.3,68.7,130.4,68.4,130.4z"/>
<path class="st9" d="M82.3,130.4h-7.1c-0.2,0-0.5-0.1-0.7-0.3s-0.3-0.4-0.3-0.7v-10.9c0-0.2,0.1-0.5,0.3-0.7
	c0.2-0.2,0.4-0.3,0.7-0.3h7.1c0.2,0,0.5,0.1,0.7,0.3c0.2,0.2,0.3,0.4,0.3,0.7v10.9c0,0.2-0.1,0.5-0.3,0.7
	C82.8,130.3,82.6,130.4,82.3,130.4z"/>
<path class="st9" d="M68.4,150.3h-7.1c-0.2,0-0.5-0.1-0.7-0.3s-0.3-0.4-0.3-0.7v-10.9c0-0.2,0.1-0.5,0.3-0.7s0.4-0.3,0.7-0.3h7.1
	c0.2,0,0.5,0.1,0.7,0.3s0.3,0.4,0.3,0.7v10.9c0,0.2-0.1,0.5-0.3,0.7C68.9,150.2,68.7,150.3,68.4,150.3z"/>
<path class="st9" d="M82.3,150.3h-7.1c-0.2,0-0.5-0.1-0.7-0.3s-0.3-0.4-0.3-0.7v-10.9c0-0.2,0.1-0.5,0.3-0.7
	c0.2-0.2,0.4-0.3,0.7-0.3h7.1c0.2,0,0.5,0.1,0.7,0.3s0.3,0.4,0.3,0.7v10.9c0,0.2-0.1,0.5-0.3,0.7C82.8,150.2,82.6,150.3,82.3,150.3z
	"/>
<path class="st9" d="M68.4,170.3h-7.1c-0.2,0-0.5-0.1-0.7-0.3s-0.3-0.4-0.3-0.7v-10.9c0-0.2,0.1-0.5,0.3-0.7s0.4-0.3,0.7-0.3h7.1
	c0.2,0,0.5,0.1,0.7,0.3s0.3,0.4,0.3,0.7v10.9c0,0.2-0.1,0.5-0.3,0.7C68.9,170.2,68.7,170.3,68.4,170.3z"/>
<path class="st9" d="M82.3,170.3h-7.1c-0.2,0-0.5-0.1-0.7-0.3s-0.3-0.4-0.3-0.7v-10.9c0-0.2,0.1-0.5,0.3-0.7
	c0.2-0.2,0.4-0.3,0.7-0.3h7.1c0.2,0,0.5,0.1,0.7,0.3s0.3,0.4,0.3,0.7v10.9c0,0.2-0.1,0.5-0.3,0.7C82.8,170.2,82.6,170.3,82.3,170.3z
	"/>
<path class="st5" d="M237,129.3h-6c-0.4,0-0.9-0.2-1.2-0.5s-0.5-0.7-0.5-1.2v-7.9c0-0.4,0.2-0.9,0.5-1.2c0.3-0.3,0.7-0.5,1.2-0.5h6
	c0.4,0,0.9,0.2,1.2,0.5s0.5,0.7,0.5,1.2v7.9c0,0.4-0.2,0.9-0.5,1.2S237.4,129.3,237,129.3z"/>
<path class="st5" d="M287.7,193.6h-30.8c-0.8,0-1.7-0.3-2.3-0.9c-0.6-0.6-0.9-1.4-0.9-2.3v-59.8c0-0.8,0.3-1.7,0.9-2.3
	c0.6-0.6,1.4-0.9,2.3-0.9h30.8c0.8,0,1.7,0.3,2.3,0.9c0.6,0.6,0.9,1.4,0.9,2.3v59.8c0,0.8-0.3,1.7-0.9,2.3
	C289.3,193.2,288.5,193.6,287.7,193.6z"/>
<path class="st5" d="M269.3,193.6H216c-0.8,0-1.7-0.3-2.3-0.9c-0.6-0.6-0.9-1.4-0.9-2.3v-59.8c0-0.8,0.3-1.7,0.9-2.3
	c0.6-0.6,1.4-0.9,2.3-0.9h53.3c0.8,0,1.7,0.3,2.3,0.9c0.6,0.6,0.9,1.4,0.9,2.3v59.8c0,0.8-0.3,1.7-0.9,2.3S270.1,193.6,269.3,193.6z
	"/>
<path class="st5" d="M233.5,130.9h-7.7c-0.6,0-1.1-0.2-1.5-0.6c-0.4-0.4-0.6-1-0.6-1.5v-10.1c0-0.6,0.2-1.1,0.6-1.5
	c0.4-0.4,1-0.6,1.5-0.6h7.7c0.6,0,1.1,0.2,1.5,0.6s0.6,1,0.6,1.5v10.1c0,0.6-0.2,1.1-0.6,1.5C234.6,130.6,234.1,130.9,233.5,130.9z"
	/>
<path class="st9" d="M239.2,156.9h-7.1c-0.2,0-0.5-0.1-0.7-0.3s-0.3-0.4-0.3-0.7V145c0-0.2,0.1-0.5,0.3-0.7s0.4-0.3,0.7-0.3h7.1
	c0.2,0,0.5,0.1,0.7,0.3s0.3,0.4,0.3,0.7v11c0,0.2-0.1,0.5-0.3,0.7C239.7,156.8,239.5,156.9,239.2,156.9z"/>
<path class="st9" d="M253.1,156.9H246c-0.2,0-0.5-0.1-0.7-0.3s-0.3-0.4-0.3-0.7V145c0-0.2,0.1-0.5,0.3-0.7s0.4-0.3,0.7-0.3h7.1
	c0.2,0,0.5,0.1,0.7,0.3s0.3,0.4,0.3,0.7v11c0,0.2-0.1,0.5-0.3,0.7C253.6,156.8,253.4,156.9,253.1,156.9z"/>
<path class="st9" d="M239.2,176.9h-7.1c-0.2,0-0.5-0.1-0.7-0.3s-0.3-0.4-0.3-0.7V165c0-0.2,0.1-0.5,0.3-0.7s0.4-0.3,0.7-0.3h7.1
	c0.2,0,0.5,0.1,0.7,0.3s0.3,0.4,0.3,0.7v10.9c0,0.2-0.1,0.5-0.3,0.7C239.7,176.8,239.5,176.9,239.2,176.9z"/>
<path class="st9" d="M253.1,176.9H246c-0.2,0-0.5-0.1-0.7-0.3s-0.3-0.4-0.3-0.7V165c0-0.2,0.1-0.5,0.3-0.7s0.4-0.3,0.7-0.3h7.1
	c0.2,0,0.5,0.1,0.7,0.3s0.3,0.4,0.3,0.7v10.9c0,0.2-0.1,0.5-0.3,0.7C253.6,176.8,253.4,176.9,253.1,176.9z"/>
<path class="st10" d="M180.9,35.2c0,0.8,0,1.5-0.1,2.3c-0.3,4.4-1.4,8.7-3.3,12.7v0.1c-0.1,0.2-0.2,0.4-0.3,0.6
	c-2.9,5.8-7.2,10.6-12.7,14.1c-5.4,3.4-11.7,5.3-18.1,5.5l0.4,20.1l4.5-2.4l0.8,1.5l-5.3,2.8l0.6,35.4V192H144v-64.1l1.1-57.4
	c-4.7-0.1-9.3-1.1-13.5-2.9c-4.3-1.9-8.1-4.5-11.4-7.9c-0.2-0.2-0.4-0.5-0.7-0.7l0,0c-2.7-2.9-4.9-6.3-6.4-9.9l0.1,0.1
	c-3.5-8.3-3.8-17.6-0.7-26s9.3-15.4,17.4-19.4c0.1-0.1,0.2-0.1,0.4-0.2c8-3.8,17.1-4.5,25.6-2c8.5,2.6,15.7,8.2,20.2,15.9
	c0.2,0.4,0.4,0.7,0.6,1.1C179.5,23.6,180.9,29.4,180.9,35.2z"/>
<path class="st11" d="M283.9,225.9c0,0.1,0,0.1-0.2,0.2c-0.1,0.1-0.3,0.2-0.6,0.3c-0.5,0.2-1.3,0.3-2.2,0.4
	c-1.8,0.3-4.4,0.4-7.2,0.4c-2.8,0-5.4-0.2-7.2-0.4c-0.9-0.1-1.7-0.3-2.2-0.4c-0.3-0.1-0.4-0.2-0.6-0.3c-0.1-0.1-0.2-0.2-0.2-0.2
	c0-0.1,0-0.1,0.2-0.2c0.1-0.1,0.3-0.2,0.6-0.3c0.5-0.2,1.3-0.3,2.2-0.4c1.8-0.3,4.4-0.4,7.2-0.4c2.8,0,5.4,0.2,7.2,0.4
	c0.9,0.1,1.7,0.3,2.2,0.4c0.3,0.1,0.4,0.2,0.6,0.3C283.8,225.8,283.9,225.8,283.9,225.9z"/>
<path class="st11" d="M323,229.9c0,0.1,0,0.1-0.2,0.2c-0.1,0.1-0.3,0.2-0.6,0.3c-0.5,0.2-1.3,0.3-2.2,0.4c-1.8,0.3-4.4,0.4-7.2,0.4
	c-2.8,0-5.4-0.2-7.2-0.4c-0.9-0.1-1.7-0.3-2.2-0.4c-0.3-0.1-0.4-0.2-0.6-0.3c-0.1-0.1-0.2-0.2-0.2-0.2c0-0.1,0-0.1,0.2-0.2
	c0.1-0.1,0.3-0.2,0.6-0.3c0.5-0.2,1.3-0.3,2.2-0.4c1.8-0.3,4.4-0.4,7.2-0.4c2.8,0,5.4,0.2,7.2,0.4c0.9,0.1,1.7,0.3,2.2,0.4
	c0.3,0.1,0.4,0.2,0.6,0.3C322.9,229.7,323,229.8,323,229.9z"/>
<path class="st11" d="M304.4,241.2c0,0,0,0.1-0.1,0.1c-0.1,0.1-0.2,0.1-0.4,0.2c-0.4,0.1-0.9,0.2-1.5,0.3c-1.3,0.2-3.1,0.3-5.1,0.3
	s-3.8-0.1-5.1-0.3c-0.7-0.1-1.2-0.2-1.5-0.3c-0.2-0.1-0.3-0.1-0.4-0.2c-0.1-0.1-0.1-0.1-0.1-0.1s0-0.1,0.1-0.1
	c0.1-0.1,0.2-0.1,0.4-0.2c0.4-0.1,0.9-0.2,1.5-0.3c1.3-0.2,3.1-0.3,5.1-0.3s3.8,0.1,5.1,0.3c0.7,0.1,1.2,0.2,1.5,0.3
	c0.2,0.1,0.3,0.1,0.4,0.2C304.3,241.1,304.4,241.1,304.4,241.2z"/>
<path class="st11" d="M344.9,240.2c0,0,0,0.1-0.1,0.1c-0.1,0.1-0.2,0.1-0.4,0.2c-0.4,0.1-0.9,0.2-1.5,0.3c-1.3,0.2-3.1,0.3-5.1,0.3
	s-3.8-0.1-5.1-0.3c-0.7-0.1-1.2-0.2-1.5-0.3c-0.2-0.1-0.3-0.1-0.4-0.2c-0.1-0.1-0.1-0.1-0.1-0.1s0-0.1,0.1-0.1
	c0.1-0.1,0.2-0.1,0.4-0.2c0.4-0.1,0.9-0.2,1.5-0.3c1.3-0.2,3.1-0.3,5.1-0.3s3.8,0.1,5.1,0.3c0.7,0.1,1.2,0.2,1.5,0.3
	c0.2,0.1,0.3,0.1,0.4,0.2C344.9,240.1,344.9,240.1,344.9,240.2z"/>
<path class="st12" d="M348,153.1L348,153.1c1.6,0.4,3.1,1.2,4.4,2.3s2.3,2.4,3,3.9c1.1,2.4,1.5,5.5-0.2,9.1
	c-1.8,3.6-5.7,7.8-13.5,12.3c-13,7.6-19.9,16.5-23.6,23.6c-1.8,3.5-2.8,6.6-3.4,8.8c-0.3,1.1-0.4,2-0.5,2.6c0,0.3-0.1,0.5-0.1,0.7
	c0,0.1,0,0.1,0,0.2l0,0l0,0l0,0l0,0l0,0l-1.1,12.6v-0.1c-0.1-0.3-0.2-0.9-0.4-1.5c-0.4-1.3-0.9-3.2-1.4-5.6
	c-1.1-4.7-2.4-11.2-3.1-18.2c-0.8-7-1-14.7,0-21.7s3.2-13.5,7.3-18.2C327.7,149.7,341.7,151.4,348,153.1z"/>
<path class="st13" d="M345.8,159.7c0,0-42.2,13.2-32.7,69.8"/>
<path class="st13" d="M321.1,164.5c0,0,5.8,3.9,4,9.8"/>
<path class="st13" d="M341.5,168c0,0-3.6-3.6-7.9-1.6"/>
<path class="st13" d="M324.9,186.2c0,0-6.2-3.2-7.9,0.8"/>
<path class="st12" d="M336.5,209.5L336.5,209.5c-2.4,5.4-8.7,15.7-23.9,20.3c0-0.1,0.1-0.1,0.1-0.2c0.1-0.2,0.3-0.6,0.5-1.1
	c0.5-0.9,1.1-2.3,2-3.9c1.6-3.2,3.9-7.4,6.3-11.7c2.4-4.2,4.9-8.4,7.1-11.5c1.1-1.5,2.1-2.8,3-3.7c0.4-0.4,0.9-0.8,1.2-1
	c0.4-0.2,0.7-0.3,0.9-0.2c1.1,0.2,1.9,0.8,2.4,1.6c0.6,0.8,0.9,1.9,1.2,3C338,204,337.7,206.9,336.5,209.5z"/>
<path class="st13" d="M333.7,203c0,0-17.6,25.6-21,26.7"/>
<path class="st12" d="M312.8,229.8c-15.2-4.6-21.5-14.9-23.9-20.3l0,0c-1.2-2.6-1.5-5.5-0.9-8.3c0.2-1.1,0.6-2.1,1.2-3
	c0.6-0.8,1.4-1.5,2.4-1.6c0.3,0,0.6,0,0.9,0.2c0.4,0.2,0.8,0.5,1.2,1c0.9,0.9,1.9,2.1,3,3.7c2.2,3.1,4.7,7.3,7.1,11.5
	s4.6,8.5,6.3,11.7c0.8,1.6,1.5,2.9,2,3.9c0.2,0.5,0.4,0.8,0.5,1.1C312.8,229.7,312.8,229.7,312.8,229.8z"/>
<path class="st13" d="M291.7,203c0,0,17.6,25.6,21,26.7"/>
<path class="st12" d="M341.7,237.8L341.7,237.8L341.7,237.8c-0.7,0.6-1.4,1.1-2.2,1.5h-3.6c0-0.1,0-0.1-0.1-0.2l0,0l0,0
	c-0.3-0.5-0.7-0.9-1.2-1.2l0,0l0,0c-0.6-0.3-1.2-0.8-1.7-1.3c-0.2-0.3-0.3-0.6-0.4-0.9c0-0.3,0.1-0.7,0.3-1c0.2-0.2,0.5-0.3,0.7-0.4
	c0.3-0.1,0.6-0.1,0.8-0.1l0,0l0,0c0.3,0,0.7,0.1,1,0.2c0.2,0.2,0.4,0.4,0.5,0.7s0.2,0.5,0.1,0.8c-0.1,0.6,0,1.2,0,1.8h0.2
	c0-1.6,0.4-3.3,1.6-4.2c0.2-0.1,0.4-0.2,0.7-0.3c0.2,0,0.4,0,0.6,0.2c0.1,0.1,0.2,0.3,0.2,0.5l0,0l0,0c0.1,0.4,0.1,0.9-0.1,1.3
	s-0.4,0.8-0.7,1.1l-0.1,0.1h0.2c0.3,0,0.7-0.1,1-0.2c0.3-0.2,0.6-0.4,0.8-0.6c0.2-0.2,0.5-0.4,0.8-0.5s0.6-0.2,0.9-0.1
	c0.2,0.1,0.4,0.3,0.6,0.6c0.1,0.3,0.1,0.5,0.1,0.8C342.5,237,342.1,237.5,341.7,237.8z"/>
<path class="st12" d="M277.8,224.1L277.8,224.1L277.8,224.1c-0.7,0.6-1.4,1.1-2.2,1.5H272c0-0.1,0-0.1-0.1-0.2l0,0l0,0
	c-0.3-0.5-0.7-0.9-1.2-1.2l0,0l0,0c-0.6-0.3-1.2-0.8-1.7-1.3c-0.2-0.3-0.3-0.6-0.4-0.9c0-0.3,0.1-0.7,0.3-1c0.2-0.2,0.5-0.3,0.7-0.4
	c0.3-0.1,0.6-0.1,0.8-0.1l0,0l0,0c0.3,0,0.7,0.1,1,0.2c0.2,0.2,0.4,0.4,0.5,0.7s0.2,0.5,0.1,0.8c-0.1,0.6,0,1.2,0,1.8h0.2
	c0-1.6,0.4-3.3,1.6-4.2c0.2-0.1,0.4-0.2,0.7-0.3c0.2,0,0.4,0,0.6,0.2c0.1,0.1,0.2,0.3,0.2,0.5l0,0l0,0c0.1,0.4,0.1,0.9-0.1,1.3
	s-0.4,0.8-0.7,1.1l-0.1,0.1h0.2c0.3,0,0.7-0.1,1-0.2c0.3-0.2,0.6-0.4,0.8-0.6c0.2-0.2,0.5-0.4,0.8-0.5s0.6-0.2,0.9-0.1
	c0.2,0.1,0.4,0.3,0.6,0.6c0.1,0.3,0.1,0.5,0.1,0.8C278.6,223.2,278.3,223.7,277.8,224.1z"/>
<path class="st12" d="M299.1,237.8L299.1,237.8L299.1,237.8c-0.7,0.6-1.4,1.1-2.2,1.5h-3.6c0-0.1,0-0.1-0.1-0.2l0,0l0,0
	c-0.3-0.5-0.7-0.9-1.2-1.2l0,0l0,0c-0.6-0.3-1.2-0.8-1.7-1.3c-0.2-0.3-0.3-0.6-0.4-0.9c0-0.3,0.1-0.7,0.3-1c0.2-0.2,0.5-0.3,0.7-0.4
	c0.3-0.1,0.6-0.1,0.8-0.1l0,0l0,0c0.3,0,0.7,0.1,1,0.2c0.2,0.2,0.4,0.4,0.5,0.7s0.2,0.5,0.1,0.8c-0.1,0.6,0,1.2,0,1.8h0.2
	c0-1.6,0.4-3.3,1.6-4.2c0.2-0.1,0.4-0.2,0.7-0.3c0.2,0,0.4,0,0.6,0.2c0.1,0.1,0.2,0.3,0.2,0.5l0,0l0,0c0.1,0.4,0.1,0.9-0.1,1.3
	c-0.1,0.4-0.4,0.8-0.7,1.1l-0.1,0.1h0.2c0.3,0,0.7-0.1,1-0.2c0.3-0.2,0.6-0.4,0.8-0.6c0.2-0.2,0.5-0.4,0.8-0.5s0.6-0.2,0.9-0.1
	c0.2,0.1,0.4,0.3,0.6,0.6c0.1,0.3,0.1,0.5,0.1,0.8C299.9,237,299.6,237.5,299.1,237.8z"/>
<path class="st14" d="M21.1,236.3c0,0,4.6-15.8-0.9-27.4c-2.3-4.9-3-10.3-2-15.6c0.5-2.5,1.2-5,2.2-7.3"/>
<path class="st15" d="M17,178.6c0,1.9,3.5,7.5,3.5,7.5s3.5-5.6,3.5-7.5c0-0.9-0.4-1.8-1.1-2.4c-0.7-0.6-1.5-1-2.4-1s-1.8,0.4-2.4,1
	C17.4,176.8,17,177.7,17,178.6L17,178.6z"/>
<path class="st15" d="M11.2,189.3c1,1.6,7,4.4,7,4.4s-0.1-6.6-1.2-8.2c-0.5-0.7-1.3-1.3-2.2-1.4c-0.9-0.2-1.8,0-2.6,0.5
	c-0.8,0.5-1.3,1.3-1.5,2.1C10.6,187.6,10.8,188.5,11.2,189.3z"/>
<path class="st15" d="M11.5,207.6c1.7,0.9,8.3,0.3,8.3,0.3s-3.4-5.6-5.1-6.5c-0.4-0.2-0.9-0.4-1.3-0.4c-0.5,0-0.9,0-1.4,0.1
	c-0.4,0.1-0.9,0.4-1.2,0.7c-0.4,0.3-0.6,0.7-0.9,1.1c-0.2,0.4-0.3,0.9-0.4,1.3c0,0.5,0,0.9,0.2,1.4c0.2,0.4,0.4,0.9,0.7,1.2
	C10.7,207.1,11,207.4,11.5,207.6L11.5,207.6z"/>
<path class="st15" d="M14.8,221.4c1.6,1.2,8.1,1.7,8.1,1.7s-2.4-6.1-4-7.3c-0.4-0.3-0.8-0.5-1.2-0.6c-0.4-0.1-0.9-0.1-1.4-0.1
	c-0.5,0.1-0.9,0.2-1.3,0.5c-0.4,0.2-0.7,0.6-1,0.9c-0.3,0.4-0.5,0.8-0.6,1.2s-0.1,0.9-0.1,1.4c0.1,0.5,0.2,0.9,0.5,1.3
	C14.1,220.8,14.4,221.2,14.8,221.4L14.8,221.4z"/>
<path class="st15" d="M25.6,194.1c-1.4,1.3-7.8,2.7-7.8,2.7s1.6-6.4,3-7.8c0.7-0.6,1.6-1,2.5-1s1.8,0.4,2.5,1.1c0.6,0.7,1,1.6,1,2.5
	C26.6,192.6,26.2,193.5,25.6,194.1L25.6,194.1z"/>
<path class="st15" d="M29.2,210.3c-1.7,0.9-8.3,0.3-8.3,0.3s3.4-5.6,5.1-6.5c0.8-0.4,1.8-0.4,2.6-0.1c0.9,0.3,1.6,0.9,2,1.7
	s0.5,1.8,0.2,2.6C30.6,209.1,30,209.9,29.2,210.3L29.2,210.3z"/>
<path class="st15" d="M30.6,226.5c-1.6,1.2-8.1,1.7-8.1,1.7s2.4-6.1,4-7.3c0.7-0.6,1.7-0.8,2.6-0.6c0.9,0.1,1.7,0.6,2.3,1.4
	c0.6,0.7,0.8,1.7,0.6,2.6C31.9,225.2,31.4,226,30.6,226.5L30.6,226.5z"/>
<path class="st16" d="M145.8,47.8c6.8,0,12.4-5.6,12.4-12.4S152.6,23,145.8,23s-12.4,5.6-12.4,12.4S138.9,47.8,145.8,47.8z"/>
<path class="st17" d="M180.9,178H166c0,0,0.9-7.6,1.5-9.3c0.6-1.6,1.1-3.9,5.9-3.9c4.4,0,5.7,2.1,6.2,3.9
	C180,170.6,180.9,178,180.9,178z"/>
<path class="st18" d="M252.5,207.7h15.9l-2.1-8.2h-13.8L252.5,207.7L252.5,207.7z"/>
<path class="st19" d="M56.7,231c-1.4-4.5-0.9-9.4,1-13.7c0.5-1.1,0.9-2.1,1.3-2.7c1.2-2,4.5-5.4,6.3-6.8c1.6-1.2,5.5-2.6,7.4-3.2
	c5.4-1.6,22.2-3.5,22.2-3.5l15-1.4l11.9-6.6c0,0,12.6-7.3,17.1-9.3c6.6-3,19.5-6.2,28.4-6.2c20.2,0,31,0.4,41,2.7
	c5.6,1.3,21.9,7.3,21.9,7.3l18.3,6.4c0,0,12.3-0.9,15.6,1.2c1.2,0.8,2.5,5.1,2.5,5.1l-10.4,0.2l2,6.2l9.9,0.4l1.6,2.9
	c2,3.6,2.8,7.9,2,11.9c-0.7,3.8-2,8-4.1,9.5c-2.9,2.1-22.4,3.2-22.4,3.2s1.4-20.4-18.2-20.9c-9.8-0.2-16.8,6.9-18,13.7
	c-0.4,2.2-0.7,8.9-0.7,8.9l-98.3,1.5l0,0l0,0v-1.1c-0.2-6.6-2.5-22.2-20-22.2c-19.3,0-18.2,23.3-18.2,23.3s-9.5-0.5-12.3-2.5
	C58.1,234.4,57.3,232.8,56.7,231z"/>
<path class="st20" d="M174.5,197l0.9-15.3c0,0,15.6-0.1,22.2,1.2c2.3,0.5,8,2.9,12.6,5.7c5.7,3.4,10.2,7.4,10.2,7.4L174.5,197z"/>
<path class="st20" d="M166.6,197.8l2.1-16.1c0,0-8,0-16.4,2.1c-11.4,2.8-29.7,16.3-29.7,16.3L166.6,197.8z"/>
<path class="st21" d="M206.3,206.7h8.3v-3h-8.3V206.7z"/>
<path class="st21" d="M152.8,206.7h8.3v-3h-8.3V206.7z"/>
<path class="st17" d="M65.3,207.7h9.6c1.2,0,1.8,1.4,1.1,2.3c-4.2,4.7-10.2,7.3-16.5,7.2h-1.8C57.7,217.3,59.7,211.7,65.3,207.7z"/>
<path class="st20" d="M210.1,232.5c0,9.1,7.4,16.5,16.5,16.5s16.5-7.4,16.5-16.5s-7.4-16.5-16.5-16.5
	C217.5,215.9,210.1,223.3,210.1,232.5z"/>
<path class="st22" d="M219.6,232.5c0,3.9,3.1,7,7,7s7-3.1,7-7s-3.1-7-7-7C222.7,225.4,219.6,228.6,219.6,232.5z"/>
<path class="st20" d="M74.2,232.5c0,9.1,7.4,16.5,16.5,16.5s16.5-7.4,16.5-16.5S99.8,216,90.7,216C81.5,215.9,74.2,223.3,74.2,232.5
	z"/>
<path class="st22" d="M83.7,232.5c0,3.9,3.1,7,7,7s7-3.1,7-7s-3.1-7-7-7C86.8,225.4,83.7,228.6,83.7,232.5z"/>
<path class="st23" d="M113.9,260.6c0-0.1,0-0.1,0-0.2c-0.9-3.5-5.2-5.6-5.2-5.6l-1.7,0.1c-1,3.1-0.9,4.9-0.7,5.8c0,0,0,0,0,0.1
	C107.7,260.8,110.6,260.9,113.9,260.6z"/>
<linearGradient id="SVGID_1_" gradientUnits="userSpaceOnUse" x1="125.6489" y1="470.6174" x2="97.3326" y2="492.8264" gradientTransform="matrix(1 0 0 1 0 -222)">
	<stop  offset="0" style="stop-color:#53D8FF"/>
	<stop  offset="1" style="stop-color:#3840F7"/>
</linearGradient>
<path class="st24" d="M106.3,260.7c0.1,0.3,0.3,0.5,0.5,0.6c2,0.4,5.2,0.1,6.6-0.1c0.3,0,0.5-0.3,0.5-0.6
	C110.6,260.9,107.7,260.8,106.3,260.7z"/>
<linearGradient id="SVGID_00000165203793729817748910000015992444361391210677_" gradientUnits="userSpaceOnUse" x1="108.326" y1="470.9114" x2="106.837" y2="483.8904" gradientTransform="matrix(1 0 0 1 0 -222)">
	<stop  offset="0" style="stop-color:#F9B776"/>
	<stop  offset="1" style="stop-color:#F47960"/>
</linearGradient>
<path style="fill:url(#SVGID_00000165203793729817748910000015992444361391210677_);" d="M106.3,252.3l0.7,3.5
	c0.1,0.3,0.2,0.4,0.5,0.5c0.3,0,0.7,0,1.1,0c0.4-0.1,0.6-0.4,0.6-0.8l-0.5-3.1L106.3,252.3L106.3,252.3z"/>
<linearGradient id="SVGID_00000117640470249157895670000014870192833938070688_" gradientUnits="userSpaceOnUse" x1="130.6609" y1="477.0015" x2="102.3449" y2="499.2105" gradientTransform="matrix(1 0 0 1 0 -222)">
	<stop  offset="0" style="stop-color:#53D8FF"/>
	<stop  offset="1" style="stop-color:#3840F7"/>
</linearGradient>
<path style="fill:url(#SVGID_00000117640470249157895670000014870192833938070688_);" d="M121.4,260.7c-1.9-0.1-2.9-0.3-3.4-0.5
	c0,0.2,0,0.4,0,0.6s0.2,0.4,0.4,0.4l10.4-0.1c0.3,0,0.5-0.4,0.4-0.7C127.8,260.5,124.3,260.8,121.4,260.7z"/>
<path class="st23" d="M129.2,260.4C129.2,260.4,129.2,260.3,129.2,260.4c-1-1.4-3.3-3.9-8-5.1l-2.2-0.1c0,0-1,1.7-1,4.9
	c0.5,0.2,1.5,0.4,3.4,0.5C124.3,260.8,127.8,260.5,129.2,260.4z"/>
<linearGradient id="SVGID_00000154386900687219543990000000056607026195635132_" gradientUnits="userSpaceOnUse" x1="120.2202" y1="472.2889" x2="119.5512" y2="485.3359" gradientTransform="matrix(1 0 0 1 0 -222)">
	<stop  offset="0" style="stop-color:#F9B776"/>
	<stop  offset="1" style="stop-color:#F47960"/>
</linearGradient>
<path style="fill:url(#SVGID_00000154386900687219543990000000056607026195635132_);" d="M118.5,252c0,0.2,0.5,2.7,0.7,3.6
	c0,0.2,0.2,0.4,0.4,0.4c0.4,0,1,0,1.5-0.1c0.3-0.1,0.5-0.4,0.5-0.7l-0.2-4L118.5,252z"/>
<path class="st28" d="M116.8,205.8c0,0,3.1,21.1,5.3,46.2c0,0.5-0.3,0.9-0.8,1c-0.7,0.1-1.7,0.3-2.5,0.3c-0.4,0-0.8-0.3-0.9-0.8
	c-0.8-4.4-6.1-28.2-7.5-33.4c0,0-1.6,22.2-1.1,33.7c0,0.3-0.2,0.5-0.5,0.6c-0.4,0.1-1.1,0.1-2,0c-0.3,0-0.6-0.3-0.7-0.6
	c-0.5-3.7-3.6-26-3.5-42.1c0-0.9,1.1-8.3,1.1-8.3L116.8,205.8z"/>
<linearGradient id="SVGID_00000087395561882914460860000009220670910009275828_" gradientUnits="userSpaceOnUse" x1="137.5" y1="407.0515" x2="154.051" y2="407.0515" gradientTransform="matrix(1 0 0 1 0 -222)">
	<stop  offset="0" style="stop-color:#F9B776"/>
	<stop  offset="1" style="stop-color:#F47960"/>
</linearGradient>
<path style="fill:url(#SVGID_00000087395561882914460860000009220670910009275828_);" d="M143.1,185.6c0,0-0.9-2.3-1.9-2.1
	s-2.1,1-2.1,1l-1.6,2.2c0,0,4.5,1.8,6.1,0.8c0,0,4.6,0.8,10.4-0.2c-0.8-1.8-1.3-3.6-1.6-5C149.5,184.1,146.3,185.3,143.1,185.6z"/>
<path class="st23" d="M167.5,169.2c0,0-6.6,8.3-15.1,13.1c0.3,1.4,0.8,3.2,1.6,5c4.4-0.7,9.5-2.5,13.8-6.3L167.5,169.2z"/>
<path class="st28" d="M118,170.3l0.4,11c1.2,0.4,2.3,0.7,3.3,0.9c0.7-2.1,2.1-4.7,3.3-6.7C120.7,174.1,118,170.3,118,170.3z"/>
<linearGradient id="SVGID_00000077319106077783237090000010578457555123325568_" gradientUnits="userSpaceOnUse" x1="147.8262" y1="391.3171" x2="121.8503" y2="404.2241" gradientTransform="matrix(1 0 0 1 0 -222)">
	<stop  offset="0" style="stop-color:#F9B776"/>
	<stop  offset="1" style="stop-color:#F47960"/>
</linearGradient>
<path style="fill:url(#SVGID_00000077319106077783237090000010578457555123325568_);" d="M139.9,170.2c-6,6.5-10.9,6.9-14.8,5.5
	c-1.2,1.9-2.6,4.6-3.3,6.7c16,3.5,19.8-11.2,19.8-11.2L139.9,170.2z"/>
<path class="st31" d="M103.3,207c-0.3-0.1-0.5-0.4-0.6-0.7c-0.4-4-2.4-28.5,10.1-38.6c0,0,0.7-1.9,6.6,2.7c5.9,4.6,2.7,9.4,1.3,16.1
	c-1.7,8-4.7,14.6-3.4,19.6c0.1,0.3-0.1,0.7-0.4,0.8C112.3,208.6,107.8,208.6,103.3,207z"/>
<linearGradient id="SVGID_00000028294344870803521820000003865757789694146486_" gradientUnits="userSpaceOnUse" x1="114.2095" y1="395.2475" x2="117.6665" y2="385.8185" gradientTransform="matrix(1 0 0 1 0 -222)">
	<stop  offset="0" style="stop-color:#F9B776"/>
	<stop  offset="1" style="stop-color:#F47960"/>
</linearGradient>
<path style="fill:url(#SVGID_00000028294344870803521820000003865757789694146486_);" d="M117.6,160.3c0,0.3-5,7.4-5,7.4
	s0.9,1.8,5.2,3.2l3.7-7.6L117.6,160.3z"/>
<linearGradient id="SVGID_00000076564851503953273600000005412565479372911499_" gradientUnits="userSpaceOnUse" x1="131.3345" y1="406.2263" x2="105.6405" y2="450.8203" gradientTransform="matrix(1 0 0 1 0 -222)">
	<stop  offset="0" style="stop-color:#F9B776"/>
	<stop  offset="1" style="stop-color:#F47960"/>
</linearGradient>
<path style="fill:url(#SVGID_00000076564851503953273600000005412565479372911499_);" d="M115.7,184.6c0,0,9.4,7.9,19.6,4.5
	c0.6-0.2,1.3-0.2,1.9,0.1l2.9,1.5c1.2,0.6,2.8,0.2,3.5-1c0.4-0.7,0.8-1.5,0.8-2.2l-5.7-2.3l0.4-0.7c0,0-2.8-0.2-3.5,1.8
	c0,0-5.3,2.2-14.3-7.7C121.3,178.7,117.2,182.1,115.7,184.6z"/>
<path class="st34" d="M115.2,184.5C115.1,184.5,115.1,184.5,115.2,184.5c-4.1-2.7-5.9-7.1-6-7.1c0-0.1,0-0.2,0.1-0.2s0.2,0,0.2,0.1
	c0,0,1.9,4.3,5.7,6.9c0.1,0,0.1,0.1,0,0.2C115.3,184.5,115.2,184.5,115.2,184.5z"/>
<path class="st34" d="M121.1,178.5c-0.1,0-0.1,0-0.1-0.1c0,0-1.2-1.9-3.5-6.1c-0.7-1.3-1.6-2.1-2.8-2.4c-1.9-0.5-3.7,0.5-3.7,0.5
	c-0.1,0-0.2,0-0.2-0.1s0-0.2,0.1-0.2s1.9-1.1,3.9-0.5c1.2,0.3,2.2,1.2,3,2.6c2.3,4.1,3.5,6,3.5,6
	C121.3,178.3,121.2,178.4,121.1,178.5L121.1,178.5z"/>
<linearGradient id="SVGID_00000058551995111589029340000014804389812982564009_" gradientUnits="userSpaceOnUse" x1="122.7344" y1="381.1217" x2="102.1604" y2="397.4898" gradientTransform="matrix(1 0 0 1 0 -222)">
	<stop  offset="0" style="stop-color:#F9B776"/>
	<stop  offset="1" style="stop-color:#F47960"/>
</linearGradient>
<path style="fill:url(#SVGID_00000058551995111589029340000014804389812982564009_);" d="M121.5,156.3c0,0,1.8,4.1,1.9,6.2
	c0.1,2.1,0.6,3.5-1.9,4c-2.5,0.4-4.5-0.8-5.7-2.9c0,0-1.8-3.3-1.4-4.6C114.9,157.5,121.5,156.3,121.5,156.3z"/>
<linearGradient id="SVGID_00000129195802389106294730000005431640286068815755_" gradientUnits="userSpaceOnUse" x1="114.8447" y1="375.6838" x2="124.2807" y2="387.8178" gradientTransform="matrix(1 0 0 1 0 -222)">
	<stop  offset="0" style="stop-color:#2B3582"/>
	<stop  offset="1" style="stop-color:#150E42"/>
</linearGradient>
<path style="fill:url(#SVGID_00000129195802389106294730000005431640286068815755_);" d="M116.7,162l0.1-0.1
	c0.2-0.1,0.3-0.3,0.2-0.5c-0.3-0.7-1-2.2-0.2-2.6c1.1-0.5,5.6-1.4,6.6-3c0.9-1.5,0.1-3.5-1.1-4.1c-0.1,0-0.2,0-0.2,0.1L122,152
	c-0.1,0.1-0.3,0.1-0.3,0s-0.2-0.2-0.3,0c-0.3,0.5-1.1,1.2-3.2,1.6c-3,0.6-5.1,1.8-5.1,3.9c0,0.1-0.1,0.2-0.3,0.1
	c-0.2-0.1-0.6-0.2-1.1,0.2c-0.8,0.7-0.5,2.5,1.3,4c0.1,0.1,0.1,0.2,0,0.3c-0.3,0.2-0.8,0.7,0.5,1.4s2.3,0.7,2.7,0.6
	c0.1,0,0.2-0.1,0.1-0.2l-0.4-1.9c0-0.1,0.1-0.2,0.2-0.2h0.6V162z"/>
<linearGradient id="SVGID_00000163773125741119383140000003642690934877089934_" gradientUnits="userSpaceOnUse" x1="120.673" y1="380.2329" x2="110.548" y2="387.9709" gradientTransform="matrix(1 0 0 1 0 -222)">
	<stop  offset="0" style="stop-color:#F9B776"/>
	<stop  offset="1" style="stop-color:#F47960"/>
</linearGradient>
<path style="fill:url(#SVGID_00000163773125741119383140000003642690934877089934_);" d="M116.8,162.4c0,0-0.7-2.6-1.8-1.9
	c-1.2,0.7,0.6,2.9,1.5,3L116.8,162.4z"/>
<linearGradient id="SVGID_00000127001906363705660660000007961551264840746626_" gradientUnits="userSpaceOnUse" x1="137.21" y1="411.2391" x2="141.2886" y2="411.2391" gradientTransform="matrix(1 0 0 1 0 -222)">
	<stop  offset="0" style="stop-color:#F9B776"/>
	<stop  offset="1" style="stop-color:#F47960"/>
</linearGradient>
<path style="fill:url(#SVGID_00000127001906363705660660000007961551264840746626_);" d="M137.2,189.2c0,0,2.4,2.3,2.9,2
	c0.2-0.1,0.6-0.6,1-1.1c0.3-0.3,0.3-0.8,0.1-1.2l-0.6-0.9c-0.5-0.8-1.7-1-2.4-0.4C137.7,188.1,137.4,188.5,137.2,189.2z"/>
<path class="st23" d="M175.8,206.2c-1.3-6.1-2.6-9.7-6.9-21.4c-1.4-3.7-2.6-7.4-2-11.2l0.7-4.3c0,0,8.4-2.8,17.7-0.1
	c0,0,12.7,5.5,4.1,32.8C185.4,206.3,180.9,207.6,175.8,206.2z"/>
<linearGradient id="SVGID_00000162342048348095255060000013971362499478860467_" gradientUnits="userSpaceOnUse" x1="172.9197" y1="393.5404" x2="176.4296" y2="370.2345" gradientTransform="matrix(1 0 0 1 0 -222)">
	<stop  offset="0" style="stop-color:#F9B776"/>
	<stop  offset="1" style="stop-color:#F47960"/>
</linearGradient>
<path style="fill:url(#SVGID_00000162342048348095255060000013971362499478860467_);" d="M169,163.7l2.2,5.2
	c0.1,0.3,0.4,0.6,0.8,0.6c1.3,0.2,4.3,0.6,6.3-0.8c0.2-0.2,0.3-0.5,0.1-0.7l-4-5.8L169,163.7z"/>
<linearGradient id="SVGID_00000076580520036611002670000008445504730843955102_" gradientUnits="userSpaceOnUse" x1="172.4182" y1="379.0725" x2="169.7622" y2="394.6845" gradientTransform="matrix(1 0 0 1 0 -222)">
	<stop  offset="0" style="stop-color:#F9B776"/>
	<stop  offset="1" style="stop-color:#F47960"/>
</linearGradient>
<path style="fill:url(#SVGID_00000076580520036611002670000008445504730843955102_);" d="M171.2,155.7c-0.1,0.1-3.9,7.5-3.9,7.5
	l4.3,2.1l4.6-6.5C176.2,158.7,172.7,154.2,171.2,155.7z"/>
<linearGradient id="SVGID_00000032647081717746583630000009231027454557684382_" gradientUnits="userSpaceOnUse" x1="175.2014" y1="386.5022" x2="167.3826" y2="378.2054" gradientTransform="matrix(1 0 0 1 0 -222)">
	<stop  offset="0" style="stop-color:#2B3582"/>
	<stop  offset="1" style="stop-color:#150E42"/>
</linearGradient>
<path style="fill:url(#SVGID_00000032647081717746583630000009231027454557684382_);" d="M174.3,159.5l-2.1,3.6
	c0,0.1-0.1,0.1-0.1,0.1c-0.3,0.2-1.1,0.9-1.8,0c-0.6-0.8-1.1-1.5-1.7-1.8c-0.3-0.2-0.8,0-0.9,0.3c-0.4,0.7-1,2.1-1.5,3.5
	c-0.1,0.3,0.1,0.7,0.4,0.8c0.9,0.4,2.6,1,4.1,1.2c0.2,0,0.5-0.1,0.6-0.3c0.7-0.9,2.5-3.4,3.1-4s1.7-0.4,2.1-0.2
	c0.2,0.1,0.4,0,0.5-0.1c0.5-0.3,1.4-1,0.6-2.3c-0.2-0.3-0.1-0.7,0.2-0.9c0.6-0.4,1.1-1,0.6-2.1c-0.6-1.1-1.6-1.2-2.3-1.1
	c-0.3,0-0.6-0.1-0.7-0.4c-0.1-0.1-0.2-0.2-0.4-0.3c-0.4-0.1-0.6-0.4-0.5-0.8c0.1-0.6,0-1.4-1-2c-1.8-1-3.5,0.6-3.9,2
	s1.7,2.4,2.9,2.5c1,0.1,1.5,1.2,1.7,1.7C174.4,159.1,174.4,159.3,174.3,159.5z"/>
<linearGradient id="SVGID_00000138568004435693847890000002296921838218283934_" gradientUnits="userSpaceOnUse" x1="174.7331" y1="396.1233" x2="175.2051" y2="385.1602" gradientTransform="matrix(1 0 0 1 0 -222)">
	<stop  offset="0" style="stop-color:#F9B776"/>
	<stop  offset="1" style="stop-color:#F47960"/>
</linearGradient>
<path style="fill:url(#SVGID_00000138568004435693847890000002296921838218283934_);" d="M173.6,164.2c0,0,0.8-2.4,1.9-2.3
	c1.1,0.1,1.9,1.1,0.6,2.3C174.5,165.7,173.6,164.2,173.6,164.2z"/>
<path class="st43" d="M174.9,260.3c2,0.2,5.6,0.5,8.3,0.6c1.7,0.1,2.6-0.1,3.2-0.3c0,0.1,0,0.1,0,0.2c0,0.3-0.3,0.5-0.5,0.5
	c-5.2,0.3-9.4,0.1-10.9,0c-0.3,0-0.5-0.4-0.3-0.6C174.7,260.6,174.8,260.5,174.9,260.3z"/>
<path class="st23" d="M183.3,260.9c-2.8-0.1-6.3-0.4-8.3-0.6c2-2.5,8.3-4.1,8.3-4.1h1.8c1.2,1.8,1.4,3.5,1.4,4.4
	C185.9,260.8,184.9,261,183.3,260.9z"/>
<linearGradient id="SVGID_00000111909247379439080840000005550338240994301346_" gradientUnits="userSpaceOnUse" x1="185.36" y1="477.3329" x2="182.02" y2="477.3329" gradientTransform="matrix(1 0 0 1 0 -222)">
	<stop  offset="0" style="stop-color:#F9B776"/>
	<stop  offset="1" style="stop-color:#F47960"/>
</linearGradient>
<path style="fill:url(#SVGID_00000111909247379439080840000005550338240994301346_);" d="M185.4,253.3l-0.2,3.3
	c0,0.4-0.3,0.7-0.6,0.7c-0.4,0.1-0.8,0.1-1.3-0.1c-0.3-0.1-0.5-0.4-0.6-0.7l-0.6-3.2H185.4z"/>
<path class="st43" d="M208.6,260.9c0.9-0.1,1.3-0.6,1.4-1.1l0,0c0.1,0.5-0.2,1.1-0.8,1.3c-0.7,0.3-1.5,0.4-2.1,0.3
	c-0.7,0-1.3-0.3-1.6-0.7l0,0C206.2,261,207.1,261.1,208.6,260.9z"/>
<path class="st23" d="M204.5,253.3h1.5c2.2,0,3.7,4.7,4.1,6.5c-0.2,0.5-0.6,0.9-1.4,1.1c-1.5,0.2-2.4,0.2-3.1-0.2
	c-1.2-1.6-1.8-3.9-2.1-5.3C203.1,253.8,204.5,253.3,204.5,253.3z"/>
<linearGradient id="SVGID_00000025439229060441758450000004298750352952187047_" gradientUnits="userSpaceOnUse" x1="206.5884" y1="474.5599" x2="202.598" y2="474.5599" gradientTransform="matrix(1 0 0 1 0 -222)">
	<stop  offset="0" style="stop-color:#F9B776"/>
	<stop  offset="1" style="stop-color:#F47960"/>
</linearGradient>
<path style="fill:url(#SVGID_00000025439229060441758450000004298750352952187047_);" d="M205.7,250.2l0.8,3.3
	c0.1,0.4-0.1,0.8-0.5,1c-0.5,0.2-1.1,0.5-1.7,0.4c-0.3,0-0.5-0.2-0.6-0.5l-1.2-3.4L205.7,250.2z"/>
<path class="st34" d="M206.7,251.1c-1,0.9-4.3,1-4.3,1c-11.9-28.7-16.9-36.6-16.9-36.6c1.7,10.8,0.4,38.7,0.4,38.7
	c-2,0.9-4.5,0-4.5,0c-0.2-17.7-2.7-36.8-5.9-49c8.1-0.2,12.5-1.9,13.9-3.1C196,213,206.7,251.1,206.7,251.1z"/>
<linearGradient id="SVGID_00000120536067160356842040000004171276559037369994_" gradientUnits="userSpaceOnUse" x1="140.4872" y1="387.908" x2="136.7432" y2="393.184" gradientTransform="matrix(1 0 0 1 0 -222)">
	<stop  offset="0" style="stop-color:#F9B776"/>
	<stop  offset="1" style="stop-color:#F47960"/>
</linearGradient>
<path style="fill:url(#SVGID_00000120536067160356842040000004171276559037369994_);" d="M139.3,168.9c0,0-0.5-1-0.5-1.7
	c0.1-0.8-0.4-1.9,0.1-1.8c0.5,0.1,0.6,0,0.7,0.9C139.8,167.2,141.1,170.6,139.3,168.9z"/>
<linearGradient id="SVGID_00000031183105981878220450000009570909896460627101_" gradientUnits="userSpaceOnUse" x1="144.7976" y1="384.9944" x2="131.6856" y2="403.4734" gradientTransform="matrix(1 0 0 1 0 -222)">
	<stop  offset="0" style="stop-color:#2B3582"/>
	<stop  offset="1" style="stop-color:#150E42"/>
</linearGradient>
<path style="fill:url(#SVGID_00000031183105981878220450000009570909896460627101_);" d="M143.2,163.2c0-0.1-0.1-0.3-0.2-0.4
	c-0.1-0.1-0.3-0.1-0.4-0.1l-3.5,0.8c-0.1,0-0.2,0.2-0.2,0.3l1,9.1c0,0,0,0.1,0.1,0.1h0.1l3.1-0.4c0.2,0,0.4-0.2,0.4-0.5L143.2,163.2
	z"/>
<linearGradient id="SVGID_00000094605154110366047770000011918980960240564890_" gradientUnits="userSpaceOnUse" x1="143.9441" y1="385.9351" x2="133.3811" y2="400.8211" gradientTransform="matrix(1 0 0 1 0 -222)">
	<stop  offset="0" style="stop-color:#FDF53F"/>
	<stop  offset="1" style="stop-color:#D93C65"/>
</linearGradient>
<path style="fill:url(#SVGID_00000094605154110366047770000011918980960240564890_);" d="M142.2,163.7c0-0.1,0-0.2-0.1-0.2
	s-0.1-0.1-0.2,0l-2.3,0.6c-0.1,0-0.2,0.2-0.2,0.3l0.9,7.7c0,0,0,0.1,0.1,0.1h0.1l2.1-0.4c0.1,0,0.1-0.1,0.1-0.2L142.2,163.7z"/>
<linearGradient id="SVGID_00000065037815978373047010000011538053141458805131_" gradientUnits="userSpaceOnUse" x1="140.4358" y1="385.3644" x2="140.2938" y2="386.2884" gradientTransform="matrix(1 0 0 1 0 -222)">
	<stop  offset="0" style="stop-color:#8D55D1"/>
	<stop  offset="0.9964" style="stop-color:#1C2873"/>
</linearGradient>
<path style="fill:url(#SVGID_00000065037815978373047010000011538053141458805131_);" d="M140.9,163.5
	C140.9,163.5,140.8,163.6,140.9,163.5l-0.9,0.2c-0.1,0-0.1,0-0.1,0l0,0c0,0,0-0.1,0.1-0.1l0.8-0.2
	C140.8,163.5,140.9,163.5,140.9,163.5L140.9,163.5z"/>
<linearGradient id="SVGID_00000037670847041169934290000000148728380411344810_" gradientUnits="userSpaceOnUse" x1="145.1004" y1="386.9195" x2="137.3514" y2="397.8405" gradientTransform="matrix(1 0 0 1 0 -222)">
	<stop  offset="0" style="stop-color:#F9B776"/>
	<stop  offset="1" style="stop-color:#F47960"/>
</linearGradient>
<path style="fill:url(#SVGID_00000037670847041169934290000000148728380411344810_);" d="M144.4,165.5c-0.6-0.2-1.7-2.1-1.9-1.5
	s0.1,1.5,0,1.8s-0.7,1.8-0.4,2.4c0.2,0.5,0.5,2,0.7,2.8c0.1,0.3,0.3,0.5,0.6,0.5s0.5-0.2,0.6-0.5C143.9,170.9,145,165.7,144.4,165.5
	z"/>
<linearGradient id="SVGID_00000129176119723319158440000013334373320063202191_" gradientUnits="userSpaceOnUse" x1="184.3354" y1="418.983" x2="184.3154" y2="438.441" gradientTransform="matrix(1 0 0 1 0 -222)">
	<stop  offset="0" style="stop-color:#2B3582"/>
	<stop  offset="1" style="stop-color:#150E42"/>
</linearGradient>
<path style="fill:url(#SVGID_00000129176119723319158440000013334373320063202191_);" d="M181.4,197.8c-0.3,0.1-0.5,0.2-0.6,0.5
	l-1.5,3.2c-0.2,0.4,0,1,0.5,1.2l7.4,3.6c0.3,0.1,0.5,0.1,0.8,0.1c0.2-0.1,0.4-0.3,0.5-0.5l0.9-2.4c0.1-0.4,0-0.8-0.4-1.1l-6.8-4.4
	C181.9,197.8,181.6,197.7,181.4,197.8z"/>
<path class="st23" d="M193.9,191.2c1.6-11.9-7.6-21-7.6-21l-5.4,6.4c4.1,5.2,6.1,9.9,7,13.6C189,189.8,191.9,189.2,193.9,191.2z"/>
<linearGradient id="SVGID_00000067924327703013752270000007419442560504483208_" gradientUnits="userSpaceOnUse" x1="198.9172" y1="357.533" x2="174.8032" y2="436.6719" gradientTransform="matrix(1 0 0 1 0 -222)">
	<stop  offset="0" style="stop-color:#FDF53F"/>
	<stop  offset="1" style="stop-color:#D93C65"/>
</linearGradient>
<path style="fill:url(#SVGID_00000067924327703013752270000007419442560504483208_);" d="M187.8,190.4c-0.2,0-0.3-0.1-0.3-0.3
	c-1.1-4.6-3.4-9.1-6.9-13.5c-0.1-0.1-0.1-0.4,0.1-0.5c0.1-0.1,0.4-0.1,0.5,0.1c3.6,4.4,5.9,9.1,7.1,13.7
	C188.2,190.2,188.1,190.4,187.8,190.4C187.9,190.4,187.9,190.4,187.8,190.4z"/>
<linearGradient id="SVGID_00000135679881769245267340000013282257271208836503_" gradientUnits="userSpaceOnUse" x1="190.7486" y1="413.7518" x2="181.8116" y2="430.9198" gradientTransform="matrix(1 0 0 1 0 -222)">
	<stop  offset="0" style="stop-color:#F9B776"/>
	<stop  offset="1" style="stop-color:#F47960"/>
</linearGradient>
<path style="fill:url(#SVGID_00000135679881769245267340000013282257271208836503_);" d="M187.9,190.4c0.8,3.5,0.7,6.1,0.5,7.4
	c0,0.5-0.4,0.8-0.9,0.9c-0.5,0-1.2,0.1-1.9,0.1s-1.5-0.4-2-0.8c-0.3-0.2-0.6,0.1-0.5,0.4c0.4,0.8,1.4,1.4,2.1,1.8
	c0.2,0.1,0.2,0.5-0.1,0.6l-1.9,0.5c-0.2,0.1-0.4,0.2-0.4,0.5c0,0.2,0,0.4,0.2,0.6c4.3,3.2,7.1-1.3,7.1-1.3c2.1-3.3,3.2-6.9,3.6-10
	C191.9,188.8,189.1,190.1,187.9,190.4z"/>
</svg>
