<svg
    xmlns="http://www.w3.org/2000/svg"
    viewBox="0 0 498 498"
    id="vector">
    <path
        id="path"
        d="M 61.009 0 L 438.121 0 C 450.251 0 460.078 9.826 460.078 21.957 L 460.078 353.491 C 460.078 365.621 450.251 375.447 438.121 375.447 L 61.009 375.447 C 48.878 375.447 39.052 365.621 39.052 353.491 L 39.052 21.957 C 39.052 9.826 48.878 0 61.009 0 Z"
        fill="#838f9b"/>
    <path
        id="path_1"
        d="M 72.812 198.486 L 62.302 198.486 L 62.302 145.669 C 62.332 136.333 69.913 128.766 79.249 128.752 L 417.562 128.752 C 426.897 128.781 434.449 136.333 434.479 145.669 L 434.479 193.417 L 423.984 193.417 L 423.984 145.669 C 423.969 142.131 421.1 139.276 417.562 139.276 L 79.249 139.276 C 75.696 139.276 72.827 142.16 72.812 145.698 Z"
        fill="#1785f8"/>
    <path
        id="path_2"
        d="M 417.25 159.791 L 441.243 159.791 C 445.821 159.791 449.538 163.508 449.538 168.086 L 449.538 244.629 C 449.538 249.208 445.821 252.925 441.243 252.925 L 417.25 252.925 C 412.671 252.925 408.955 249.208 408.955 244.629 L 408.955 168.086 C 408.955 163.493 412.671 159.776 417.25 159.776 Z"
        fill="#31a7fb"/>
    <path
        id="path_3"
        d="M 57.887 159.791 L 81.88 159.791 C 86.459 159.791 90.175 163.508 90.175 168.086 L 90.175 244.629 C 90.175 249.208 86.459 252.925 81.88 252.925 L 57.887 252.925 C 53.308 252.925 49.592 249.208 49.592 244.629 L 49.592 168.086 C 49.592 163.493 53.308 159.776 57.887 159.776 Z"
        fill="#31a7fb"/>
    <path
        id="path_4"
        d="M 369.204 372.95 L 411.779 372.95 C 418.216 372.95 423.434 378.168 423.434 384.605 L 423.434 487.475 C 423.434 493.912 418.201 499.13 411.779 499.13 L 369.204 499.13 C 362.767 499.13 357.549 493.912 357.549 487.475 L 357.549 384.605 C 357.549 378.168 362.767 372.95 369.204 372.95 Z"
        fill="#094c66"/>
    <path
        id="path_5"
        d="M 87.351 372.95 L 129.926 372.95 C 136.363 372.95 141.581 378.168 141.581 384.605 L 141.581 487.475 C 141.581 493.912 136.363 499.13 129.926 499.13 L 87.351 499.13 C 80.914 499.13 75.696 493.912 75.696 487.475 L 75.696 384.62 C 75.696 378.183 80.914 372.965 87.351 372.965 Z"
        fill="#094c66"/>
    <path
        id="path_6"
        d="M 376.696 79.814 C 292.928 61.529 206.202 61.529 122.434 79.814 C 112.295 82.103 105.115 91.127 105.145 101.518 L 105.145 450.623 L 393.97 450.623 L 393.97 101.518 C 394.015 91.127 386.82 82.103 376.681 79.814 Z"
        fill="#1785f8"/>
    <path
        id="path_7"
        d="M 393.985 304.612 C 373.857 304.612 357.549 320.92 357.549 341.048 L 357.549 450.608 L 430.406 450.608 L 430.406 341.048 C 430.406 320.935 414.098 304.612 393.985 304.612 Z"
        fill="#31a7fb"/>
    <path
        id="path_8"
        d="M 105.145 304.612 C 85.032 304.612 68.724 320.935 68.724 341.048 L 68.724 450.608 L 141.581 450.608 L 141.581 341.048 C 141.581 320.935 125.273 304.612 105.145 304.612 Z"
        fill="#31a7fb"/>
    <path
        id="path_9"
        d="M 174.255 312.64 L 324.86 312.64 L 324.86 324.503 L 174.255 324.503 Z"
        fill="#0c5f7f"/>
    <path
        id="path_10"
        d="M 174.255 341.524 L 324.86 341.524 L 324.86 353.387 L 174.255 353.387 Z"
        fill="#0c5f7f"/>
    <path
        id="path_11"
        d="M 174.255 370.423 L 324.86 370.423 L 324.86 382.286 L 174.255 382.286 Z"
        fill="#0c5f7f"/>
    <path
        id="path_12"
        d="M 174.255 399.322 L 324.86 399.322 L 324.86 411.184 L 174.255 411.184 Z"
        fill="#0c5f7f"/>
    <path
        id="path_13"
        d="M 438.404 435.46 L 60.711 435.46 C 53.918 435.46 48.417 440.96 48.417 447.754 C 48.417 454.548 53.918 460.048 60.711 460.048 L 438.404 460.048 C 445.197 460.048 450.697 454.548 450.697 447.754 C 450.697 440.96 445.197 435.46 438.404 435.46 Z"
        fill="#3e6b82"/>
    <path
        id="path_14"
        d="M 141.596 137.507 L 357.564 137.507 L 357.564 255.006 L 141.596 255.006 Z"
        fill="#d9ecfd"/>
    <path
        id="path_15"
        d="M 185.39 95.794 L 313.74 95.794 L 313.74 116.101 L 185.39 116.101 Z"
        fill="#0c5f7f"/>
    <path
        id="path_16"
        d="M 395.159 321.812 C 384.263 321.812 375.433 330.642 375.433 341.539 C 375.433 352.435 384.263 361.266 395.159 361.266 C 406.056 361.266 414.886 352.435 414.886 341.539 C 414.886 330.642 406.056 321.812 395.159 321.812 Z"
        fill="#d9ecfd"/>
    <path
        id="path_17"
        d="M 103.971 321.812 C 93.074 321.812 84.244 330.642 84.244 341.539 C 84.244 352.435 93.074 361.266 103.971 361.266 C 114.867 361.266 123.697 352.435 123.697 341.539 C 123.697 330.642 114.867 321.812 103.971 321.812 Z"
        fill="#d9ecfd"/>
    <path
        id="path_18"
        d="M 395.159 370.423 C 384.263 370.423 375.433 379.253 375.433 390.15 C 375.433 401.046 384.263 409.876 395.159 409.876 C 406.056 409.876 414.886 401.046 414.886 390.15 C 414.886 379.253 406.056 370.423 395.159 370.423 Z"
        fill="#d9ecfd"/>
    <path
        id="path_19"
        d="M 103.971 370.423 C 93.074 370.423 84.244 379.253 84.244 390.15 C 84.244 401.046 93.074 409.876 103.971 409.876 C 114.867 409.876 123.697 401.046 123.697 390.15 C 123.697 379.253 114.867 370.423 103.971 370.423 Z"
        fill="#d9ecfd"/>
    <path
        id="path_20"
        d="M 0 0 L 498.2 0 L 498.2 498.2 L 0 498.2 Z"
        fill="#ffffff"/>
    <path
        id="path_21"
        d="M 112.28 66.63 C 107.28 68.84 104.22 74.96 105.1 80.84 C 105.74 85.25 110.92 91.05 114.99 91.84 C 116.51 92.17 133.1 92.41 151.99 92.41 L 186.37 92.41 L 182.78 95.02 C 171.45 103.27 163.88 109.64 156.54 117.32 L 148.17 125.9 L 102.72 125.9 C 74.48 125.9 56.14 126.23 54.31 126.72 C 52.109 127.58 50.162 128.984 48.65 130.8 C 44.1 135.95 43.78 142.32 47.77 147.71 C 51.76 153.1 50.56 152.86 91.56 152.86 C 112.06 152.86 128.65 153.11 128.49 153.43 C 128.33 153.75 125.86 159.07 122.99 165.11 C 105.84 200.64 100.99 238.87 108.39 278.11 C 112.3 298.61 121.55 322.46 132.16 339.11 L 136.55 346.05 L 116.05 346.46 C 97.39 346.87 95.31 347.03 92.84 348.46 C 88.61 350.99 86.94 353.93 86.54 359.24 C 86.3 363.16 86.54 364.47 88.14 366.75 C 89.261 368.445 90.633 369.959 92.21 371.24 C 94.44 372.87 95.4 372.96 127.3 373.24 L 160.08 373.49 L 163.75 377 C 167.66 380.76 183.21 392.85 185.29 393.74 C 185.93 393.99 157.06 394.39 121.08 394.64 C 60.94 395.05 55.44 395.13 53.08 396.44 C 49.17 398.65 47.02 402.44 46.62 407.63 C 46.3 412.94 48.14 416.53 52.76 419.72 L 55.47 421.6 L 174 421.6 C 300.66 421.6 298.66 421.6 317.25 417.52 C 347.96 410.66 377.87 393.91 400.68 370.72 C 416.15 355.04 425.8 341.4 435.3 321.87 C 447.073 297.435 453.188 270.658 453.188 243.535 C 453.188 216.412 447.073 189.635 435.3 165.2 C 412.3 117.91 371.41 83.68 322.44 70.86 C 301.7 65.47 301.86 65.47 203.36 65.47 C 131.59 65.57 114.2 65.73 112.28 66.63 Z M 296.93 134.51 C 334.1 140.72 367.76 169.14 380.28 205 C 392.28 239.14 388.1 274.92 368.64 305.22 C 363.38 313.39 347.98 329.32 340.01 334.79 C 328.371 342.702 315.405 348.461 301.73 351.79 C 293.43 353.91 271.82 354.32 261.73 352.69 C 239.08 348.85 219.86 338.64 203.11 321.57 C 186.92 305.07 177.35 286.57 172.8 263.33 C 170.89 253.94 170.89 234.5 172.72 224.33 C 177.59 196.88 193.94 170.17 215.63 154.17 C 228.47 144.69 245.86 137.17 260.93 134.57 C 269.57 133 287.84 133 296.93 134.51 Z"
        fill="#ff8201"/>
    <path
        id="path_22"
        d="M 258.88 162.69 C 245.583 166.262 233.419 173.179 223.55 182.78 C 214.55 191.52 205.36 204.67 207.76 205.57 C 208.32 205.82 215.9 208.35 224.67 211.21 L 240.46 216.44 L 246.2 210.44 C 249.759 206.497 254.07 203.304 258.88 201.05 L 265.82 197.62 L 265.82 179.32 C 265.82 169.27 265.58 161.02 265.26 161.1 C 264.94 161.18 262.07 161.87 258.88 162.69 Z"
        fill="#ff8201"/>
    <path
        id="path_23"
        d="M 292.3 179.51 L 292.54 197.97 L 296.37 199.52 C 302.883 202.418 308.703 206.673 313.44 212 L 317.35 216.49 L 333.62 211.18 C 342.62 208.24 350.29 205.46 350.69 205.18 C 351.57 204.28 345.35 194.56 339.52 187.95 C 327.95 174.55 311.21 164.83 294.69 161.65 L 292.14 161.08 Z"
        fill="#ff8201"/>
    <path
        id="path_24"
        d="M 273.8 223.87 C 267.66 225.87 261.68 231.55 260.24 236.94 C 258.33 244.21 259.68 251.4 263.91 256.46 C 271.49 265.53 283.69 266.34 292.38 258.34 C 300.44 250.99 300.91 237.76 293.5 229.75 C 288.55 224.36 280.18 221.91 273.8 223.87 Z"
        fill="#ff8201"/>
    <path
        id="path_25"
        d="M 197.71 237.18 C 196.51 250.82 200.02 268.38 206.48 281.18 C 211.9 291.96 220.28 302.83 221.87 301.03 C 222.27 300.62 226.97 294.09 232.32 286.49 L 242.13 272.6 L 240.69 270.15 C 235.9 262.06 233.91 255.94 232.69 245.89 L 232.21 242.13 L 215.7 236.74 C 206.61 233.74 198.95 231.27 198.7 231.27 C 198.45 231.27 198 234 197.71 237.18 Z"
        fill="#ff8201"/>
    <path
        id="path_26"
        d="M 341.83 236.77 L 325.72 242.16 L 325.16 247.55 C 324.551 254.598 322.4 261.426 318.86 267.55 C 317.26 270.25 316.31 272.7 316.71 273.35 C 317.03 273.84 321.71 280.62 327.16 288.3 L 337.05 302.3 L 339.76 299.3 C 348.29 289.58 356.19 273.73 358.66 261.56 C 361.13 249.14 361.29 231.26 358.9 231.42 C 358.34 231.38 350.69 233.83 341.83 236.77 Z"
        fill="#ff8201"/>
    <path
        id="path_27"
        d="M 253.14 303.18 C 247.4 311.27 242.69 318.05 242.69 318.18 C 242.69 318.31 245.64 319.73 249.31 321.12 C 268.381 328.717 289.659 328.717 308.73 321.12 C 312.32 319.73 315.27 318.34 315.27 318.12 C 315.27 317.63 295.33 289.37 294.61 288.96 C 294.29 288.71 291.98 289.12 289.35 289.78 C 281.258 291.49 272.865 291.147 264.94 288.78 C 264 288.56 260.88 292.32 253.14 303.18 Z"
        fill="#ff8201"/>
</svg>
