<?xml version="1.0" encoding="utf-8"?>
<!-- Generator: Adobe Illustrator 26.0.1, SVG Export Plug-In . SVG Version: 6.00 Build 0)  -->
<svg version="1.1" id="Layer_1" xmlns="http://www.w3.org/2000/svg" xmlns:xlink="http://www.w3.org/1999/xlink" x="0px" y="0px"
	 viewBox="0 0 498.2 498.2" style="enable-background:new 0 0 498.2 498.2;" xml:space="preserve">
<style type="text/css">
	.st0{fill:#FF8201;}
	.st1{fill:#FFFFFF;}
</style>
<g id="Layer_2_00000061474109816501639520000006061252403271080625_">
	<g id="Layer_1-2">
		<g id="Layer_2-2">
			<g id="Layer_1-2-2">
				<rect class="st0" width="498.2" height="498.2"/>
				<path class="st1" d="M112.3,66.6c-5,2.2-8.1,8.3-7.2,14.2c0.6,4.4,5.8,10.2,9.9,11c1.5,0.3,18.1,0.6,37,0.6h34.4l-3.6,2.6
					c-11.3,8.2-18.9,14.6-26.2,22.3l-8.4,8.6h-45.4c-28.2,0-46.6,0.3-48.4,0.8c-2.2,0.9-4.1,2.3-5.7,4.1c-4.5,5.1-4.9,11.5-0.9,16.9
					s2.8,5.1,43.8,5.1c20.5,0,37.1,0.2,36.9,0.6s-2.6,5.6-5.5,11.7c-17.2,35.5-22,73.8-14.6,113c3.9,20.5,13.2,44.4,23.8,61l4.4,6.9
					l-20.5,0.4c-18.7,0.4-20.7,0.6-23.2,2c-4.2,2.5-5.9,5.5-6.3,10.8c-0.2,3.9,0,5.2,1.6,7.5c1.1,1.7,2.5,3.2,4.1,4.5
					c2.2,1.6,3.2,1.7,35.1,2l32.8,0.2l3.7,3.5c3.9,3.8,19.5,15.9,21.5,16.7c0.6,0.2-28.2,0.6-64.2,0.9c-60.1,0.4-65.6,0.5-68,1.8
					c-3.9,2.2-6.1,6-6.5,11.2c-0.3,5.3,1.5,8.9,6.1,12.1l2.7,1.9H174c126.7,0,124.7,0,143.2-4.1c30.7-6.9,60.6-23.6,83.4-46.8
					c15.5-15.7,25.1-29.3,34.6-48.9c23.9-49.5,23.9-107.2,0-156.7c-23-47.3-63.9-81.5-112.9-94.3c-20.7-5.4-20.6-5.4-119.1-5.4
					C131.6,65.6,114.2,65.7,112.3,66.6z M296.9,134.5c37.2,6.2,70.8,34.6,83.4,70.5c12,34.1,7.8,69.9-11.6,100.2
					c-5.3,8.2-20.7,24.1-28.6,29.6c-11.6,7.9-24.6,13.7-38.3,17c-8.3,2.1-29.9,2.5-40,0.9c-22.6-3.8-41.9-14-58.6-31.1
					c-16.2-16.5-25.8-35-30.3-58.2c-1.9-9.4-1.9-28.8-0.1-39c4.9-27.4,21.2-54.2,42.9-70.2c12.8-9.5,30.2-17,45.3-19.6
					C269.6,133,287.8,133,296.9,134.5z"/>
				<path class="st1" d="M258.9,162.7c-13.3,3.6-25.5,10.5-35.3,20.1c-9,8.7-18.2,21.9-15.8,22.8c0.6,0.2,8.1,2.8,16.9,5.6l15.8,5.2
					l5.7-6c3.6-3.9,7.9-7.1,12.7-9.4l6.9-3.4v-18.3c0-10.1-0.2-18.3-0.6-18.2S262.1,161.9,258.9,162.7z"/>
				<path class="st1" d="M292.3,179.5l0.2,18.5l3.8,1.6c6.5,2.9,12.3,7.2,17.1,12.5l3.9,4.5l16.3-5.3c9-2.9,16.7-5.7,17.1-6
					c0.9-0.9-5.3-10.6-11.2-17.2c-11.6-13.4-28.3-23.1-44.8-26.3l-2.5-0.6L292.3,179.5z"/>
				<path class="st1" d="M273.8,223.9c-6.1,2-12.1,7.7-13.6,13.1c-1.9,7.3-0.6,14.5,3.7,19.5c7.6,9.1,19.8,9.9,28.5,1.9
					c8.1-7.4,8.5-20.6,1.1-28.6C288.5,224.4,280.2,221.9,273.8,223.9z"/>
				<path class="st1" d="M197.7,237.2c-1.2,13.6,2.3,31.2,8.8,44c5.4,10.8,13.8,21.6,15.4,19.9c0.4-0.4,5.1-6.9,10.4-14.5l9.8-13.9
					l-1.4-2.5c-4.8-8.1-6.8-14.2-8-24.3l-0.5-3.8l-16.5-5.4c-9.1-3-16.8-5.5-17-5.5S198,234,197.7,237.2z"/>
				<path class="st1" d="M341.8,236.8l-16.1,5.4l-0.6,5.4c-0.6,7-2.8,13.9-6.3,20c-1.6,2.7-2.5,5.1-2.1,5.8c0.3,0.5,5,7.3,10.5,15
					l9.9,14l2.7-3c8.5-9.7,16.4-25.6,18.9-37.7c2.5-12.4,2.6-30.3,0.2-30.1C358.3,231.4,350.7,233.8,341.8,236.8z"/>
				<path class="st1" d="M253.1,303.2c-5.7,8.1-10.4,14.9-10.4,15s2.9,1.5,6.6,2.9c19.1,7.6,40.3,7.6,59.4,0c3.6-1.4,6.5-2.8,6.5-3
					c0-0.5-19.9-28.8-20.7-29.2c-0.3-0.2-2.6,0.2-5.3,0.8c-8.1,1.7-16.5,1.4-24.4-1C264,288.6,260.9,292.3,253.1,303.2z"/>
			</g>
		</g>
	</g>
</g>
</svg>
